<svg xmlns="http://www.w3.org/2000/svg" fill="none" viewBox="0 0 1820 1955">
  <path fill="#000" fill-rule="evenodd" d="m873 0-26 1C712 4 577 33 451 82c-12 5-22 15-35 19a850 850 0 0 0-264 171c-6 5-12 13-11 16 1 6 11 0 5 10-7 10-27 45-27 47 0 11-11 14-14 22-16 48-48 87-56 139-4 23-9 52-16 71-23 60 76 87 77 138 1 16-9 49 2 61q19 19 49 34l11 7c0 4 30 11 24 16-15 12-39 36-39 38 0 5 17 16 15 18-4 4-17-3-17 1 0 12 27 20 36 25 25 16 61 30 90 37q16 4 13 5c-10 10-16 34-20 47q-16 56-22 111c-3 19-11 34-12 52q-4 53-6 108c0 11 8 301 56 301q3 0 8-14c8-22 28-38 38-59 13-25-4-79-4-112q-2-157 25-310c5-25 32-157 58-152 81 16 160 48 243 56 65 7 130 13 195 7 32-2 76-2 99 0 13 2 26 13 33 7 9-8 26-4 37-5h19c8 2-40 115-40 130 0 4-4 16-6 19-7 15-5 32-9 46-28 91-80 384 23 446 6 4 12 15 17 17 2 1 1 10 3 6 1-1 30 30 31 35 4 13 0 29 7 41 4 8 5 23 5 32 1 52 23 102 28 153 0 8 10 23 6 9q-17-67-28-134c-4-22-4-41 0-24q1 8 4 5c2-2-6-22-6-26-1-9-7-22-6-31 2-7 1-28-3-33-3-4 2-8 0-13l-5-22c-2-7 3-10 1-17-13-51-3-110 1-162 5-86 19-180 48-261 9-28 17-59 31-85 4-8 16-32 12-40-4-6 175-45 201-52 11-2 31-5 39-11 7-5-33 4-17-3l13-7c2-3-2-6-3-5-2 3-18 10-35 15-34 10-71 21-106 24-31 3-61 14-92 17-24 2-49-29-63-44q6-2 14 1c11 8 44-14 57-16 72-11 348-66 348-165 0-35 25-60 53-77 43-25 28-118-18-135-34-12-52-16-90-20-65-6 15-23 33-57 13-25 39-59 57-62 26-3 53 5 79 7q27 3 40 16c12 12-21 76-38 90-4 4-21 23-21 26q-1 3 6-4 18-16 32-35c5-7 35-52 26-58-3-1-1-12 1-12 32 0 11 85 41 85 27-1 25-89 39-48 12 36 6 151 6 113 0-7-10-18-18-18-5 0-16 7-4 6 6 0 18 11 8 11-6 0-32 11-32 12 4 3 15-9 18-4 2 2 7 0 3-2 0 0 23-10 9 4-5 4-39 18-42 14-8-8 29-29 18-29q-2 0-7 8c-40 51-93 85-143 125a51 51 0 0 0-21 41c0 25 1 97 31 107 11 4 56-14 61-29 1-3 12-10 14-10 5 0 15-15 20-18 12-8 18-23 29-32 5-4 28-40 33-40 4 0-27 53-30 55-27 28-50 58-81 81l-8 8 11-7c3-2 27-21 24-16-1 3-4 6-28 26-21 19-49 48-76 57-5 2-29 17-29 20 0 1-30 17-38 20-11 4-45 12-52 23q1-4-2-7c-3-1-8 13-10 15-43 60-68 135-90 205a1509 1509 0 0 0-63 588c-15-153-3-328 38-477 20-74 43-239 112-282 23-14 59-21 80-40q14-10 29-18c34-17 61-49 93-70q6-4 41-12c24-6 22-5 21-6-6-6-43 8-50 10-5 2 10-5 6-5-29 0 55-16 83-25q2-2-6-2c-21 0-41 13-63 14-20 2 27-8 34-10q25-9 29-8 8-1 5-4c-8-5-39 7-47 9l-19 4c0-10 68-13 68-23 0-16-9 8-33-1-2-1 25-10 28-14 4-7-16 4-14-1 2-6 19-3 19-11 0-5-8 5-8-3 0-2 4-1 4-4q-1-4-7-4 7 0 9-6c1-3-6-3-1-5 8-3 14-33 20-41 15-21 9-50 20-72 3-5 1-12 3-18 6-16 7-42 8-59 0-15 5-29 5-45 0-8-6-58-1-61 6-4 16 2 22-3 5-3 3-11 7-15q11-14 16-30v-26c7-4 9-75 2-75s5-9 5-9c0-3-9-22-11-22-20-5-81 2-78 2q15 4 31 3c15 1 56 1 45 11-9 8-71-7-71 6 0 21 61 9 70 12q9 0 5 10c-14 21-67-24-67 12 0 2 55 2 65 2v11c-9 0-66-4-66 0 0 10 14 0 17 5s-17 1-17 7c0 10 77-11 63 14-3 5-67 10-67-5 0-36-29-78-46-108-23-42-30-90-65-128-31-34-61-78-105-95-11-4-29-22-40-22-4 0 6 5 6 6 0 9 35 21 42 28l32 24c38 36 59 74 89 116 28 41 28 97 25 145 0 6-2 38-12 32-19-15-54-13-77-16l-25-3c-11 0 12-17 15-26 11-29 16-68 2-98-27-57-62-106-114-145C1239 42 920 20 650 73c-51 10-113 19-157 46-6 4-19 9-22 9-11 0-21-14-33-15l-7-3c-4-3 53-23 61-27 48-18 104-29 155-37s100-17 152-19l34-2a1025 1025 0 0 0-230 24q-63 14-60 12c1-2 7-2 9-3 10-7 37-13 49-15C714 24 830-1 946 10l126 12c63 7 122 24 183 39 6 1 72 24 72 21 0-2 26 11 31 12 34 9 128 59 98 40C1291 34 1078 9 891 0zm-36 25h14c0-1-14-2-14 0m125 32c45 3 95 4 139 16 18 4 41 10 60 11a558 558 0 0 1 406 262q10 21 13 41l-1 20c-1 13-6 26-6 38 0 4-15 23-15 23l3-11c20-63-17-138-56-185C1342 77 1011 63 782 74c-16 0-28 6-43 7-14 1-57 8-74 12-35 9-86 9-112 31-11 9-54 28-71 32q-3 3-7 4c-5 0-5-25 0-25l22-10c0-15 106-33 127-39 108-32 228-35 338-29M472 81l-5 1c0-2 7-3 5-1m440 15c2 2-12 42-26 74-2 5-26 52-44 35l17-40 26-65c1-5 14-8 14-4 0 19-17 44-24 61l-13 34c12-29 27-56 37-86 1-5 5-16 13-9m13 0q3 3-30 77-12 24-10 26 1 1 3-5c15-32 32-64 40-98 5 0 20-2 23 1 2 1-2 9-21 49l-27 57q-11-2-23 0c-10 3 1-14 2-17 14-29 30-73 33-87 1-3 7-6 10-3m-62 1-14 35c-14 31-15 34-22 56-7 19-7 19-10 20l-35 1c0-21 21-39 22-59 1-11 8-23 13-34 1-5 7-11 7-16l31-3zm19 2a609 609 0 0 1-43 104c-1 3-15 6-15 2 0-37 42-72 42-107 0-3 17-5 16 1m84-2c5 2-36 87-44 104-2 0-14 2-14 0 0-14 36-108 58-104m-148 1c3 2-13 63-31 45l7-21c11-29-16 23-17 31-2 16-15 62-30 63-6 0 33-102 33-112 0-3 33-7 38-6m175 2c10 1 78 8 78 15 0 30-36 44-8 64 1 1-11 25-14 29-4 6-22 3-14-5 6-8 22-33 12-30-9 3-15 27-19 36l-16-2c-5-1 46-78 46-91q-1-4-6 5c-12 30-31 57-47 85-4 0-18 0-18-4 0-12 40-84 36-87-3-1-37 79-40 86-1 4-19 2-19 0a957 957 0 0 1 41-90c0-34-31 60-45 90l-19-1c2-8 48-95 45-97-6-3-45 113-59 98-1-1 5-16 28-64l18-38zm-218 3q2 2-2 13l-21 61c-3 9-8 39-18 42q-14 3-14 0c-12-31 45-78 36-112-1-5 17-7 19-4m-34 5-6 18c-7 19-18 93-39 99-24 7 19-81 23-97 2-5 14-33 22-20m12 3c0 37-36 71-36 108 0 4-13 7-11 0l38-111c0-4 9-3 9 3m89-3-30 73c24-9 40-97 30-73m-118 2-3 7a971 971 0 0 0-40 111c-2 2-10 5-10 1 0-3 3-18 6-26 9-29 22-57 31-87 1-3 13-11 16-6m-19 8c-11 35-29 69-36 105-2 9-25 24-32 17-17-18 41-96 25-112-1-1 0-5-16 58l-12 54c-1 3-15 8-15 2s8-38 21-80l6-25c-1-1-9 26-10 28a808 808 0 0 0-21 79c-2 3-14 6-14 1 0-13 21-116 32-116 24 0 46-16 70-16q6-1 2 5m386-3c4 3-13 22-13 25l13-16c3 3-14 31-17 36q-3-6-10-7c-3 0 9-54 27-38m-676 0c15 3 35 18 46 18 12 0-1 32 3 35 3 3 16 6 16 10 0 3-35 18-39 21-49 29-106 54-147 95-2 2-20 16-15 19 4 3 72-51 88-62l67-41c12-8 45-35 58-27 4 3 4 4 10 21q9 34 23 66 5 8-1 9c-20 5 40 8 61 8 58 2 64 3 70 5 7 2 33 9 34 2 1-4 8-4 11-3 5 2-29 26-33 31-18 18-46 41-55 67-7 21-54 13-69 13l-67-2c-30-2-156 26-174-10-8-17-26-69-48-71-15-2-6-34-15-34-5 0-13 9-13 5 0-2 12-5 8-11-14-22-65-9-78 5q-7 6-6 2c0-4 14-14 19-18q69-65 153-112c27-16 60-46 93-41m698 3c4 1-35 73-42 85q-4 9-3 11c7 0 11-18 14-22 9-15 29-72 43-71 24 3-38 77-41 93-1 6-32 1-32-3l4-9q24-40 42-84c1-3 12 0 15 0m-431 14c-13 34-25 76-27 90l26-82c6-16 6-17 5-17q-2 1-4 9m471-6 18 5c-9 10-45 76-38 82 2 2 17-38 20-43 2-4 21-27 19-31-2-8 25-6 25-1l-29 43-35 53c-9 0-23-9-32-11l15-27c21-33 38-62 38-65 0-4-9 11-9 11q-17 32-38 62c-2 4-9 11-9 16 0 2-15 2-8-6 15-17 33-94 63-88m-528 8c-5 35-20 69-26 104-5 32-8-12-6-24 4-25 12-49 14-73 1-7 19-13 18-7m-23 4c-7 18-2 110-22 115-19 6-1-42 2-51 3-12 14-61 8-56-16 17 0 107-33 115q-11 2-22 9c-10-12-26-49-21-64q5-15 5-27c0-20-4 23-8 26l-5-15q-4-10-11-16h5c6 1 10-8 15-6 2 1 8-6 9-5 11 15-16 61-3 68 1 1 2 1 2-8 1-13 14-48 7-60-2-3 34-19 40-13 9 9 1 50-16 51-12 0 12-43 4-35s1 40-16 40c-3 0 6-45 3-45-2 0-7 44-8 48-3 11 2 7 8 15-2 11-14 39-4 33 5-3 2-23 6-29 2-4 13 1 10 7l-3 18 15-52c5-13 10-40 5-54-1-3 19-8 22-9q8-3 6 0m609 2c17 7-35 67-51 95l-5 7c-4 0-13-4-10-8 6-9-6 5-5-2 3-15 47-101 71-92m-735 2c-1-6 1 8 0 0m756 4 7 3c4 3-52 79-58 90-2 5-20 9-21 2-2-11 51-102 72-95m-789 0c-51 30-108 51-153 92-29 26 64-44 99-61 12-5 60-21 60-32q-1-2-6 1m809 6 7 3c0 4-52 76-56 78s-10 17-2 8q29-34 53-72c20-31 8 7-5 21-14 15-24 37-35 54-12 19-30 0-31-1-3-3 10-13 10-17 0-14 37-79 59-74m29 11c6 4-52 85-55 94-9 32 39-55 56-84 3-5 12-12 16-2q1 4-30 51c-4 5-21 41-29 41-4 0-28-6-27-10 0-2 54-100 69-90m-494 5c14 1-5 33-8 41-1 4-19 6-19 3 0-14 12-29 16-43 1-5 7-2 11-1m524 7c19 10-21 40 9 9 4-4 31 16 39 19-13 19-52 72-35 58 12-10 24-55 37-55q5 0 22 12l32 23c-7 11-59 87-55 91 2 2 48-86 57-88 3-1 9 7 12 9q-30 45-55 93l-26-18c-13-6-45-21-45-30 0-4 19-34 17-33-7 3-15 32-22 28l-14-4c7-13 56-80 49-86-1-1 0-2-10 16-9 17-38 63-40 66-3 4-17-1-17-4l5-14c-5 0-5 14-9 14-3 0-23-7-22-11 14-37 35-111 71-95m-859 2c-67 38-134 69-190 123q-16 15-7 14c11 0 20-25 30-25 1 0-1 4 1 4l13-14c22-21 50-40 76-55s50-35 79-43c7-2 5-8-2-4m356 10c2-6-4 9 0 0m527 11c0-4 0 4 0 0m-770 2c2 5-6 3-4 0zm352 12c0 14-133 8-145 9-13 1 17-3 20-4 13-1 125-9 125-5m37 0c-1 6-2 6-11 6-27-1 13-14 11-6m91 7c17 2 67 5 51 11-3 1-62-6-65-8-7-4 14-3 14-3m325 3c-7 4-15 27-20 35-8 12-32 6-29 25 1 5 6 24 6 16s26-10 17-23c-4-6 23-40 28-47q7-12-2-6m-837 4c5-14-6 18 0 0m378-1-2 6-3 14c-2 8-68-7-68 2 0 2 56 0 64 1 6 1 1 9 0 13 0 7-31 1-31 4s26-1 30 3c4 3 1 3-25 2-47-1-141-37-140 10q2 3 26 0c24-1-26 14-35 14-10 0 11 23 25 10 7-6 92-1 92-6 0-25-99 13-77 0 22-12 123-4 116-7l25-1c3 8 7 20-2 19-59-6-127-6-187 2q-3 2 1 3c10 4 23-1 33-2q80-4 161 0c2 2 12 11 6 11-1 0 11 4 11 8 0 2-15-2-15 1 0 0 18 3 21 6s39 36 44 29c1-2 17 2 17 3 0 9-28 19-34 25-16 15-41 17-59 28-17 10-38-11-56 0-14 9-24 9-24 31-1 17 41 45 56 34 14-11 38 28 48 38l5 6c0 5-59-6-67-6-22 2-140-29-140-51 0-1 5-3 7-2 16 9-31-26-33-45-5-47 144-41 152-40l56 6c22 9-46-10-69-12-23-1-26-2-28-4-6-7-78-1-78-5 0-7 47-2 47-4 0-11-39 4-32-3 6-6 28-6 35-6q37-2 74 4 8 2 8-1c0-6-53-2-60-6l32-3c14-2-20-2-20-4 0-3 47 0 50 2 0 1-24 1-23 2 7 8 67-2 67 9 0 3-14 0-10 6 8 13 30-6 45-8-37 0-73-13-111-15l-13-1 13-1h21l65 3q23 3 21 1c-5-4-77-4-77-7 0-4 68 3 68 1 0-4-81-5-93-6l-10 1c-1 1 5 0 3 2-6 3-37-3-43-3-5 0-52 5-56-1-1-2 6-2 45-3l4-2c-8 0-79 1-79 3s8-1 5 2c-5 5-15 3-22 2 5-3 15-12 19-13a1533 1533 0 0 1 125-5c-2-8-124 7-124 0 1-9 10-24 3-33-5-4 17 1 17-4 0-57-118 13-172-6l16-7 66-21c2 0 49-3 49-5 0-3-10-2-3-4 6-2 79-14 79-10 0 6-33 2-33 7 0 1 15 0 26-2 9-1 28 3 34-3 4-4-19 2-16-2 2-3 23-2 24-1 4 1-3 0-4 2-6 9 22-3 33-4 33-1-5 0-7 3-1 2 51-3 56 0 2 1-7 2-7 3 0 14 16-9 22-2 6 8-10 3-10 8-1 5 21 1 21-2s-7-8-10-10l11-1zm-24 1h-5c-2-1 4-2 5 0m58 0q6 0 2 5c-6 7-20-3-27 3-4 4-1-2-1-4 1-8 20-4 26-4m436 3c-9 10-1 1 2 1a536 536 0 0 1-47 76c5 0 56-73 52-80q-2-3-7 3m-612 0q-2 3-3 1c0-2 6-3 3-1m41 0c-3 4 9 2 6 0zm102 5c6-9-5 8 0 0m51-3c5 1-6 2-6 0zm72 3 14 4c11 3-31-4-29-5zm-228 2-28 4c22-2 46 1 68-4zm577 25-33 48-3 8c6 0 16-21 18-24l38-57c0-3-4 1-20 25m-315-21 14 4c-7 0-21 0-26-5-2-2 12 1 12 1m41-1c2 1 10 3 8 4-6 2-14-3-20-5q7-1 12 1m-579 1c-1 5-3 14-2 15 3 7 4-20 2-15m161 0c15-3-8 1 0 0m177 0c0 2 14-1 4-1zm63 2h-3c-3-2 4-2 3 0m19 0c0 3-6 3-5 1q3-3 5-1m8 0c0 2-6 1-5 0zm-232 1q-19 2-18 3l20-1 16-2zm293 1c0 3-51 12-51 10q0-3 14-4zm115 0q18 2 18 6c3 10-40-7-30-7zm-856 1c-4 4 6 2 6 0 1-2-5-2-6 0m767 0c10 2 3 8-3 9l-43 5c8 3-42 10-31-1 11-10 57-15 77-13m-224 2c-14 1 11 2 10 0zm128 0q-1 5-3 5c-3-3 3-6 3-5m107 1c-2-5 1 4 0 0m9 0q0 2-5 1c-6-1 5-3 5-1m41 1c1 1-4 1-5-1zm-317 0c-2 3 10 0 10 0 0-2-9-1-10 0m373 1c8 4 76 17 75 20-1 2-8 2-4 3 7 2 27 11 27 12l-27-7c-12-3-32-8-43-14-10-5-25-4-34-11-4-4 4-5 6-3m-486-1c-5 2 7 3 9 1 1-1-5-1-9-1m82 1c-55 6 20 3 20 0zm326 2c7 4-10 19-10 26 0 4-8 32-1 32 3 0 0-12 3-11 15 6 26 36 0 36-3 0-19-22-23-25-1-2-19-14-19-14 9-15 35-52 50-44m-431 2c4-5-3 4 0 0m58 1c-35 4 13 1 12 0zm347 2c1 4-6 25-9 22l2-5c2-4 3-26 7-17m12-1c-6 30-7 32-18 37-9 5-2 8 5 4 13-6 16-55 13-41m30-1c10 2-23 22-11 3q2-7 11-3m335 3c2 4 8 4 10 7s2 3-6 16l-1 6 11-16c16 0 44 48 53 60 6 9 12 19 12 22q0 3-12 16-26 31-33 46-4 9 0 3 20-33 47-61c15 33 37 103 8 135-23 26-41 53-68 75-13 10-23 25-38 33-8 3 4 29 10 27 30-5-49 36-76 50-51 26-108 43-163 59l-40 9c-2 0-3-6-5-8l-24-30c-11-13 15-11 15-23 0-3-24 14-30 9-2-1 41-22 43-26 5-7-5-71-20-71-7 0 0 11 2 11 9 0-1 47 2 55 4 8 8-12 10-5q2 8-14 14c-19 7 6-45-6-49-3-1-11-20-14-24-4-5-33-10-27-9 10 2 42 7 49-3 7-12 35-18 46-18 20 0-11 4-11 6-1 5 6 5 9 5-8 5-32 5-36 13-7 12 52-11 40-15-18-7 45-16 46-35 0-25 93-8 105-8 13 1 24 2 25 1q3-2-14-2c-16-1-103 2-103-10 0-33 160-8 192-6 22 2 40 2 40 1 0-5-164-10-168-11-48-1-56-2-55-4l4-11 51 3c34 2-4 0-4-2 0-4 177 9 177 6q1-2-12-6c-6-2-15-2-15-1 0 2 12 2 14 4l-50-2c-51-4-105-9-156-5-8 1-4-16-3-21q42 2 83 8l20 2c1-1-1-1-25-4l-23-3c-7-1 34-1 57 1 17 1 21 1 20-1-24-24-109 18-131-7-2-2-3-18-1-19a2485 2485 0 0 1 159 5c-21-21-128-7-160-7-1-3-5-14-3-14s-19-21-9-27a2717 2717 0 0 1 168 6c45-42-125 2-185-10-11-2 28-12 31-10l26 1c49 1 97 7 145 7 8 8 67 71 55 79-24 17-111-23-90-2l68 4c19 1 24 2 24 3 5 17 5 18 3 22l-2 5c0 1 6-8 6-3l3 8s1-17 3-19l1-4c-2-2-3 7-5 4-11-10 12-41 20-43s13-27 4-31c-3-2 11-12 9-15-7-22-19 53-41 53-9 0-3-16-2-20a309 309 0 0 1 38-55c-1-4-36 45-41 58-2 4-30-29-30-35 0-17 31-45 41-56q14-15 10-13c-13 0-40 45-48 58l-6 9c-1 0-11-11-10-12 8-5 51-73 50-74-2-2-42 69-52 73-6 2-12-7-16-12-3-6 34-39 30-43-2-2-25 37-32 40-1 0-11-8-11-10 6-9 52-72 48-76 0 0-48 77-52 74-44-22 3-68 24-99 7-11 8-12 12-6m-385 0c1 6-10 32-18 32-7 0-25 4-31-5-1-1 6 0 7-1 1-2 23-7 17-7-4 0-36 8-34 1 0-2 51-13 35-11-13 2-39 15-50 5-5-5 28-9 34-9 7-2 39-12 40-5m-247-2c-53 3-106 11-159 15-33 2 1 8 5 3a1562 1562 0 0 1 154-18m-187 2-16 4c0 2 29 0 29-3zm71 0c-2 2-31 5-30 6 2 3 32-3 34-5 1-1-4-2-4-1m252 1q-2 4-5 3c-4-2 6-6 5-3m-10 3c1 4-15 3-15 9 0 8-2-7-2-9 3 0 16-3 17 0m29 0q2 6-1 7c-9 0-2-14 1-7m-9 4c2 6-3 3-3-1q1-4 3 1m-144-1-101 9c2 2 27 2 30-1 11-10 131-2 131-8zm364 9c19 6 20 6 17 7-9 6-81 16-82 25-1 5 10 8 5 12-1 1-18-3-12-9 8-9-13-10-12-15 9-31 54-31 84-20m-239-4c1 5-11 7-2 7 2 0 10 6 8 8-7 5-22 11-22-2 0-6 15-21 16-13m41 4c9 7-3 6-5 2q-4-9 5-2m-14 0q4 1 5 5c0 1-21-5-5-5m-57 7q5-1 6 3c1 6-97 3-107 4l32-6q35-2 69-1m301 3c11 3 102 40 102 49 0 24-53 34-72 34q-7-1-12-8c-3 1-21 9-21 5 0-10-13-6-18-3-6 3-43-18-49-18q-10 0-12-4c-4-7 19 1 20 1 24 0 44-61 62-56m-190 1 2 1c2-1-5-4-2-1m475 9c10 13-9-5-9-9q2-1 9 9m-213-5c12 4-6 3-11-2q0-3 11 2m-42 1c-6-8 4 4 0 0m-1018 5 8 3c4 17 17 40 2 53-24 20-26 95-21 118q4 17-7-7c-18-42-9-100 15-140q6-11 5-14c-3-3-23 36-25 40-39 50 5 139 29 184 28 52 84 83 131 117 45 33 107 33 155 58 46 25 114 25 163 38l25 3c49 15 103 19 154 23 50 5 99-4 148-2 115 3 238-26 341-76 20-10 90-66 115-64 21 2 88 9 100 28 37 55-392 198-435 203-13 1-33 5-36 6-23 9-50 0-73 6q-10 3-57 3-78 2-156-1c-126-8-256-39-374-84-26-10-63-26-86-46-17-15-41-24-60-40l-44-37c-10-9-102-99-89-111 3-4-11-10-11-18 0-21-15-48-19-59l-1-25c-1-34 6-73 20-105l9-25c6-26 48-41 74-29m292-1c-17 5-40 22-55 22-20 0-113 73-111 74 2 2 17-15 21-14 18 6 41-3 59-3 39 0 77-7 116-7l32-1c3-5-51-6-59-5-22 1-43-2-64 0q-28 3-26 1c9-8 53-5 59-5 14-1 69-1 81 1 2 0 12 2 8-2-18-18-98 9-76-4 3-2 56-2 74 0 9 1 24-2 8-3q-58-3-115-1-19 2-9-3l48-1c39 0 57 0 84 2 28 2-14 20 2 26 7 2 11-11 11-18 0-11 30-30 38-32 5-1 16-15 12-16-2-2-11-2-61-4l-57-4c-9-1-10-6-20-3m-344 0c0 1-9 4-5 0q3-2 5 0m1126 0 8 3c6 5-16 0-14-3q2-2 6 0m-436 4 19 1 22-1zm308 1c-3 8-30 16-38 23-13 10 0-2-4-11 0-2 3-3 20-7 24-7 23-7 22-5m122 2q12 4 12 8c-1 1-34-16-12-8m-322 2c3 5-23 5-9 1q8-3 9-1m27 1c5 6 2 6 13 4 18-4 11 13 30 13 12-1 26 11 34 19l-8 3c-8 3-48 26-57 19-3-2-5-11-1-11 3-1-23 0-12-9 2-1 16-4 15-6-2-3-39 8-45 7-2 0 32-12 43-14q15-2 13-4c-4-4-55 12-55 9s32-9 29-11c-3-1-35 9-35 6 0-9 34-12 37-13l12-4c-22-1-65 32-65 10 0-9 47-5 51-12 7-11-39 15-39 2 0-2 38-9 40-8m33 0c2-2-7 8 0 0m-90 2c4 3-9 7-9-2zm375 6q26 12 49 29c10 7 24 13 33 23 3 3 19 9 19 14l-95-2-28-1c7-11 49-16 50-32 1-7-23-1-14-10 5-5-35-32-14-21m154 5c-18 24 8-2 6-6zm-519-1-8 2c1-3 14-4 8-2m-102 3 27 2 49 1c0-3-56-3-64-4q-14 0-12 1m159 2c8-2-8 1 0 0m-668 1 2 1c4 0-3-4-2-1m245 0c3 2 41-2 31 7-2 3-12 0-15 0-12 0-54-6-52-7l31 1c3 1 2-4 5-1m-41 2c1 1-15 0-13-1 1-1 12-1 13 1m1 3c5 1 64 3 64 7 0 2-103-2-103-4 0-6 35-3 39-3m412 3q-3 5-4 0c0-3 9-4 4 0m-118-1c0 3 23 2 23 1l-9-1zm30 1 16 1 14-1-15-1zm-127 4c0 2-10 1-5 0zm-211 1c57 1 86 4 75 8l-20-1-111-4q27-6 56-3m199 0h-4c-1-1 8-2 4 0m28 4h-6c-1-2 8-2 6 0m14-1q-1 2-4 1c-1-1 4-1 4-1m6 0h-3zm46 1c-2 1-10-1-3-1q4 0 3 1m9 0h-6c-1-2 8-2 6 0m39 1c-9-4 3 1 0 0m254 3c0 1-24 9-26 19 0 5-8-4-5-7 4-5 27-22 31-12m-390-1 76 1a232 232 0 0 1-75 6c-49-1-50-1-48-5 4-6 37-2 47-2m593 2q1 2-1 4c-6 4 0-8 1-4m-238 1c-5 9-85 42-86 41-15-16 37-25 58-32 9-3 33-18 28-9m-810 15q17 28 30 57c3 6-17 32-19 38l-13 37q-12 47 8 89 2 3 1 5c-4 4-43-54-44-55-2-4-23-57-8-57 10 0 6-129 35-128zm218-8c0 1-17 2-40 2-47 1 40-6 40-2m192 0c8-8 82 2 78 3-5 1-88 2-90 0-5-3 12-3 12-3m714 2c2-3-2 4 0 0m-510 0-4 1c-2-1 6-1 4-1m-219 3c7 6 79-3 79 2 0 9-43 7-47 7l-40-3c3-1 4-10 8-6m659 0 30 4q33 5 30 3l-3-1c-8 0-57-8-57-6m-748 1c-3 3 3 7 4 3q0-5-4-3m564 2c3 3 24 3 24 8 0 4-15 6-17 6-23 0-16-22-7-14m-394 2-3 1c-1-1 8-4 3-1m334 2c0 3-9 1-9 5-1 4 18 11 7 14-3 1-6 16-9 15l-35-5c0 51 154-40 154 11q2 15 9 29c10 21-52 1-62 10-15 15 43-4 63 1q4 1 5 12c4 33-114-20-97 8l35 1 63 1c0 4 2 19-2 21-17 11-67 4-89 0l-48-7c6-3-5-18-2-21 2-1 21 5 21 2 0-4-16-1-19-3-1-2 43-4 43-4 0-4-47 3-54-6-10-14 19-1 19-5 0-2-8-1-9-2-5-9 35 7 30-1-6-11-40 4-49-5-8-6 7-2 6-6-1-3 28 2 30-1 9-14-34 5-48-3-10-6 24-5 37-5h10c-7-12-54 7-43-4 1-1 17 0 17-2 0-5-77-11-47-5 18 5-24 3-23 5 1 3 25 10 29 13 21 12 57 32 38 61-8 12-31 15-44 20l-19 4c0 2 20-3 21 0 1 4-22 3-22 5 0 7 51-11 63-9h17c-1-1-16-2-14-4s27-1 27 0c0 2-6 0-6 2 0 3 122-1 122 3 0 42-102 20-122 19h-5c-3 3 3 3 58 3l56 1c0 8-19 16-27 16h-11c0 2 23 0 23 1l-6 8c-16 20-54 41-80 25-21-13-70 14-88-4-8-8-41-37-38-41 1-2-4-1-4-3 1-4 15 2 18-1 4-4-15-2-18-2-16-18-28-40-43-58-8-8 9-19 15-21 12-3 0-18 0-20 0-8 66-35 73-33 2 1 6-6 9-5 16 5 42-19 56-26 1 0 18-13 18-4m-210-1 5 1c2-1-5-3-5-1m661 5 2 6c7 29-10-12-2-6m-1113-2c8 7 45-10 50-1 1 1-4 1-26 3l-25 1c-17 2-3-7 1-3m-309 4q-3 5-4 3c0-4 6-9 4-3m1203-4h3zm-184 5c7 5 28 14 18 17q-10 4-7 15c-8 0-53 2-53-3 0-4 16-35 22-29 3 2-2 11-4 12-3 2-1 15 2 4s11-24 22-16m193-4h3zm7 1c-1-2 3 4 0 0m-635 1 29 1c3 3-27 4-28 4-2 0-45 4-45-1 0-10 40-4 44-4m396 2c5-3-5 2 0 0m279-1c5 2 23 2 18 1zm-414 1c-5 0-41-1-41 6l58-6c0-2-16 0-17 0m225 1-5 2c-44 9-3-9 5-2m28 2 14 1c7 2-34 17-45 8-6-5 28-8 31-9m-25 2c-3 1-11 4-15 4-9 0 20-7 15-4m-381 3c1 1-2 2-19 3-28 2-35 2-38 0s-21 0-17-4l37-1zm491-1c0 4 29 0 37 0 21 1 59 10 78 4 4-1-1 4 2 5l2-2c3-1 21 9 2 9-47 0-93-6-140-7q-25 0-17-3c3 0 36-11 36-6m-639 0c-11-4 5 2 0 0m-4 7c9-1 61-1 61 1 0 5-55 4-63 5-19 2-7-4 2-6m510-2c0 1-7 3-3 0q3-2 3 0m-412 4c-3 1-11 0-12 3s-26 15-21 6c6-9 42-15 33-9m-45 6c0 32-50 13-76 21-4 2 4-4 3-5-2-8 50-3 50-5 0-6-56 6-47-8q3-2 27-4c5-1 43-3 43 1m481-1h-3c-4-2 5-2 3 0m505 7c1 3 11 18 4 18-3 0-3 6-4 1-1-3-4-29 0-19m-685 0c2-3-2 4 0 0m-299 5c1 2-3 6-4 6-2-2 3-10 4-6m-356 3c-7-4 1 1 0 0m8 0c5 4-8 1-4-1zm219 1h-3zm74 1h7c5-1-6-2-7 0m763 0h3c1-2-6-2-3 0m-169 4c0 2 167 8 184 10l-20-3c-24-2-164-10-164-7M89 416q-1 3-3 2c-1-1 4-7 3-2m605-1c13 12-67-5-52 5 2 2 30 1 17 2l-51 4q-12 2-8 5 5 4 27 2h26c-4 1-50 3-50 8 0 2-46 1-48 1l-140 4c-22 0-43 4-65 3-37-1-44 127 0 179l5 8c-1 1-31-14-33-16-33-28-37-31-51-68-7-19 10-119 43-128 24-6 65-4 90-4 46 1 92-2 139 1 20 1 41-4 61 0 9 2 19-3 29-1 5 2-10-3 4-5 14-1 49-8 57 0m328 2c-16 0 3 0 0 0m675 4q2 8 0 11c-4 5-6-25 0-11m-493 0c-1-8 3 12 0 0M86 424c-1 5-8 37-14 37-4 0 6-22 6-25 0-4 10-22 8-12m601 3c2 8-52 3-56 3l-21-1c-2-2 15-1 16-2 11-18 59-21 61 0m684-3c0 3 26 5 26 3l-11-2zm-483 3q11 3 6 6c-1 2-27-11-6-6m294-1h3zm-337 2c5-3-6 5 0 0m411 0 17 1 163 8c0-5-135-9-148-9zm-383 1q7 3-6 3c-20 0-2-7 6-3m-773 7c6-11-6 12 0 0m756 0c3 3 14 7 20 7 8-1 2-9 7-10 6-1 18 11 16 14-13 16-80-1-61-8 7-2 13-10 18-3m-189 1c7 11 15-9 15 7q2 0 3 2s-30 5-10 3c11-1 13 7 21 13-10 2-30-8-30 2 0 6 32-2 36 3 11 11-29 7-29 8 1 4 13 2 1 5-15 5 47-14 47 2l-37 2c-4 1-28 2-26 7 3 4 29 3 34 1 7-5-26 7-26-2s69-1 74 4q2 2-9 2-24 0-50 4c-19 3 23 7 23 3 0-2-34 0-2-3q23-2 46-1 7 6 16 9c11 3-48 4-48 7s15 5 20 3c4-2-7-2 0-4q18-2 38-2c25-1 145 53 159 30 2-3-13-4-13-7h13c4 1 40 43 38 45-7 6-29-3-39-1l-30-2c-6 0-132-5-132-7 0-3 9 0 11-3 19-30-80-12-96-43-9-16-37-30-50-45-16-20 32-2 39-10 6-7-30 5-26-2 1-2 15 0 15-2 0-5-33 2-38 0-2 0-2-5 0-6l17-1c0-4-20 1-21-3-1-5 39-1 41-5 2-3-21-2-39 1-4 1-4-5-1-6q13-2 28-2h-12c-51-4 26-11 29-6m254 0c10 0-5 16-12 16-2 0 8-11 6-15-2-3 4-1 6-1m-218 8c6 15-4 0-4-8zm203-4c0-5 0 3 0 0m-807 6c-6 6-3-4 0-5q5 0 0 5m1400-3c1 2 6 3 6 6l-16 21c-9 3 6-40 10-27m-839 0c0 1 14-1 4-1zm455 0 8 1c2-1-9-3-8-1m-523 4-4 1c-8 0 1-3 4-1m102 7c-9-15 7 12 0 0m-594-2-7 5c-4 0 10-11 7-5m1318-1 15 1c2-1-15-3-15-1m294 9c2 21-6 0-3-8q2-6 3 8m-986 7c-37-30 6 5 0 0m969-1c0 8 0 4-2 4s-2 25-3 28c-1 4 0-21-2-25-1-4 5-25 7-7M99 465c-1 3-8 8-9 8-4-4 13-16 9-8m1417-1c7-7-7 8 0 0M88 464c0 6-12 9-5 1q4-3 5-1m1724 0q-1 2-3 1c-2-1 3-3 3-1m-104 9c5 34-14-7-3-7zm-464 1q-3 0-2-3c1-2 3 2 2 3m-654-1c22 39 66 79 109 95 26 11-12 2-12 12 0 13 50-1 38-1s-30 0-37 10c-9 13-21 24-27 39q-2 4-3 3c-5-9 24-41 21-44-24-28-44 94-11 110 15 7-5 19 0 36 1 4 14 2 13 0-3-7 24-34 28-39l8-10-4-4 35 4c83 11 98 13 120 13 23 0 50-1 72 3 34 6 124-17 145 4 10 10 15 34 29 39 7 2 20 7 6 8-141 16-271 6-410-8-38-3-74-16-111-22a847 847 0 0 1-218-73c-16 0 59 22 43 23-19 0-50-19-66-29-11-6 11-1 0-11l-11-19c-28-40-16-80-15-123a2229 2229 0 0 1 258-16m516-1c1 1 21 3 22 2l-14-3zm402 2c6-7-14 16 0 0m-1076 1c1-1-2 3 0 0m-96 3q-1 4-2 0 0-4 2 0m312-2c-24 3 28 3 15 3q-7-1 2-2c6-1-11-1-17-1m93 1c-5-3 6 5 0 0m161 2 7 12c-4-3-12-9-12-14q1-2 5 2m-829 0c5-5-7 6 0 0m795-1c11 5-9 2-5 0zm-768 2c4-1 5 7 4 10-2 4-54 46-51 49 11 14 42-44 52-44 5 0 0 10-2 12-10 8 7-2 7 5 0 13-73 59-59 64 10 4 41-36 45-32 2 1-34 32-38 35-7 6-12 10-19 2-4-5 7-1 7-7 1-25 24-32 42-50l9-10c-10 0-18 16-27 20l-19 14c-3 4-3-20 2-20 2 0 33-27 32-28s-5 5-6 4 18-21 15-21c-8 0-36 41-40 37-4-3 39-44 42-41q1 2 4 1m1615 4c-2-17 3 21 0 0m-1359-1h-8c0-2 9-1 8 0m-288 1q-1 2-3 1c-1-1 3-4 3-1m1175-1c3 3-9 2-9 1 1-1 8-2 9-1m-141 4h-38zm683 0h-12c-9-2 9-2 12 0m-99 4q-1 5-3 3c-3-2 3-11 3-3m-251-2c-1-2 3 4 0 0m277 13c0 10 0 11-2 11-7 0 0-43 2-11m-510-8-5 10-146-3 9-10c18 0 142 1 142 3m311-1c3-5-2 3 0 0m186 10c-1-29 1 29 0 0m18-8c0-5 0 24 0 0m-1487 1q-3 0 1 4c3 3-2 26 4 26 8-1 11-36-5-30m1315 1c0 7 8 4 12 6 4 3-16 5-13 10 1 3 5-6 11-3 3 1-14 18-14 23 0 11 15-17 25-20 6-2-4 7 2 7 20 0 43 7 63 12-5 12-35 55-31 57 25 16 64-72 36-81-4-2-91-12-91-11m-206 0c-3 1 6 3 4 0zM99 502c8-3-5 3 0 0m547 2c5 4-7 1-4 0zm1040 2c0-4 0 5 0 0m-614 3c0-3 0 3 0 0m620 6v11c0 13-5-18 0-18zm-1474-2c-3-11 2 5 0 0m-128-2c5-6-5 5 0 0m1671 3c2 0-8 4-3 9 5 6 41-4 37 11-2 5-40 3-40-1 0-8-12-27 6-19m-732 1c-4 3 25 11 29 7 1-1-16-3-18-3-11-3 23-2 35-1h4c-3-3-46-5-50-3m192-1h-3zm-476 5h4zm211 1h7c0-2-12-2-7 0m-185 1h3zm111 1h16l-9-1q-9 0-7 1m20 0c0 1 20-1 7-1zm-256 3-2-2q2-1 2 2m133-3c-1 1 2 7 4 8 4 2-14 4-14 8 0 1 7 6 9 6 4 0-3-2-2-3 6-20 62 5 72 5 11 0-12-6-1-5 13 2 44 4 45 3 2-2-100-4-100-17 1-3-11-6-13-5m923 4c0-11 0 13 0 0m-1477 0q-1 3-3 0c-2-5 3-2 3 0m1409 0-3 1c-4-2 6-6 3-1m-415 2c2 1-7 2-5-1q2-2 5 1m6-1c-7-4 3 2 0 0m-223 0c-4 2 40 6 39 5-2-2-35-6-39-5m-344 6c9 5-6 0-6-3zm564-1c0 5-7 10-11 9-12-2 2-2 2-3 0-4-22 1-22-3l5-1c3 0 26-4 26-2m-1115 3c4-3-6 7 0 0m11 0c14 17-55 49-62 61-2 3 4 3 5 2 9-6 22-12 28-21l9-7c4 0-36 30-36 34 0 3 63-49 66-47 5 5-61 62-68 56q-7-9-9-20c10-5 35-20 25-20-2 0-8 6-8 3 0-22 36-57 50-41m791-1h-3zm8 1q2 3-3 0c-5-2 2-1 3 0m442 0q2 2 17 2c4 0 30 2 26 0-4-1-42-3-43-2m48 3 30 2c35 2-26-8-30-2m295 0c2 25-9 2-5 0zm-893 4 3 1c3-2-7-4-3-1m382 2h-6c1-2 9-1 6 0m8-1-4 1c-2-1 6-1 4-1m10 1h-4c0-2 6-2 4 0m-354 2q-2 2 9 3c33 2-9-3-9-3m917 1c4 1 17 0 20 3 2 3-33 7-33 1 0-9 3-5 13-4M85 547c0 1-8 7-9 6-2-1 9-9 9-6m1125 1c-1 1-10 2-11 1-1-2 13-4 11-1m-100 0h3c10-1-2-2-3 0m28 0c-1-2 3 4 0 0m-254 3c0 9 25 3 25 3q0-3-8-3c-2 0-17-2-17 0m348-1c3 3 16 3 13 1zm30 2 2 1c4 0-2-3-2-1m-370 1h-4c-1-2 8-2 4 0m406 0c4 4 22 3 17 1zm-594 5c-7-5 4 4 0 0m689 2q20 3 21 1c0-2-48-5-21-1m373 3c3 5 37-1 18 8-11 5-12 11-2 10q8-1 3 2c-7 3-12-1-18-1-5 0-10-29-1-19M82 567q-5 3-2 5c2 0 10-10 2-5m50 1-8 4c1-3 9-5 8-4m593 0c-6-4 3 2 0 0m981 3c2-7-2 10 0 0m-1570 0c0 8-67 49-64 51 15 10 52-51 66-46 16 6-4 14-2 16 3 2 7-2 10-2 2 0-4 6-8 8q-26 16-51 34c-13 9-9 1 1-5q23-13 44-30c7-4-3-2-7 1q-9 8-22 15c-11 6-58 20-30 0 16-12 32-28 50-37 1-1 13-8 13-5m893 0h3zm180 4h4zm-397 2c2 1-35 4-35 0zm433 0h5zm431 0c0-4 0 5 0 0m-885 4c9 1 160 6 160 3 0-4 8 4 13 3 8-2 19 3 22 11 1 1-19 1-40-1l-90-5h-21c-3 3 21 1 22 3 2 2-10 2-22 0-12-1-99-1-99-5s22 1 22-1q-1-2-15-2c-2 0-30-2-30 0s8 0 8 2c0 4-40 5-21-3 26-11 62-6 91-5m125 1h-5zm759 3q-11 26-28 45l-4 6c8 7 36-62 32-51m-626 2c5 3-15 0-15 0zm15 1h-11zm-333 0c2 3-4 3-3 1zm338 1h-2c-3-2 1-1 2 0m-302 1h12zm-42 1h-4c1-1 6-2 4 0m300 2 45 3c13 1 46 3 37 12-6 6-85 1-94-10-10-11 5-6 12-5m-26 3c8 8-3 2-5-2q-2-5 5 2m248-2h4zm-556 4c-2 5 10 6 14 6-5 6-13 10-16 17-4 9-11 27-4 35 14 14 49-29 23-29-10 0-3-10 2-9 4 1 10 4 12-1s3-11-6-12c-48-10 98-4 148-2 5 0 129 11 129 6 0-1-6-4-4-4 11 0 39 39 35 45-3 4-11 8-6 8 6-1 0 13 6 16 5 3 20 13 20-2 0-3-27 0-16-17 3-6 22 10 22 11-5 16 10-1 10 6 0 5 13 9 13 15l-90-1c-8-2 18 2 18-4 0-7-20-8-22-3-1 1 0 6-2 6-3 0 0-13 0-15 0-11 17-2 22-7 3-3-23-12-27-3q-4 11-5 24c-28-2-300 3-300-42 0-17 29-60 24-44m574-2h3c2-2-4-2-3 0m-1112 4c3 5-4 12-9 12-2 0 4-5 1-5-16 0-30 24-45 29-4 1-10 10-14 8-26-8 54-67 67-44m715-3c-2 1-11-1-3-1q6 0 3 1m423 0h3zm409 9c-6 18-28 38-39 52-6 8-36 45-19 26 21-21 35-41 53-63 3-4 13-15 8-16zm-688 6c18 20-8-4-7-6q0-2 7 6m136-4c0 4 71 5 78 6q12 2 10-1l-34-3c-6 0-54-4-54-2m-82 3c12 1 32-3 42 3 15 8 12 48 8 60-1 5-25 2-21 7 3 5 17-3 18 2 1 2-13 5-15 4-29-7-29-75-59-63q-1 3-9-7c-15-15 26-7 36-6m-176 0c-13 3 27 16 13 16-3 0-5 14 1 14 12 0 9-25 3-28zm-46 2c-4 4-12-1-12 6 0 10 18 9 23 5 6-5-7-16-11-11m-703 2c-2 2-10 8-12 8-3 0 17-14 12-8m1101 0h5c0-2-10-2-5 0m-508 3q-11 16-12 35l4 3c25 22 7-18 8-24 2-11 9 1 11-5s-6-15-11-9m-720 0c1 3-9 15-11 18a296 296 0 0 0 3 105c9 12 14 23 25 33 13 13 6 19 11 38 8 34 39 67 65 88 19 15-10-11 5-3 17 9 3 0 7-4q26-29 54-54 9-5 4-5l-29 24q-15 13-29 28c-15 20-53-47-60-57-9-11-13-28-12-42l2 3c8 13 20 2 26-2 10-5 10-19 10-29 2-25 15-51 2-76-7-13-21-20-33-28-11-8-25-24-31-37-1-2-10-4-9 0m1250-1 9 1c-2-2-9-1-9-1m-1099 2c1 1-6 4-7 3-2-1 5-6 7-3m1122 0 9 1c-2-2-9-2-9-1m-225 2c0 8 18 7 15 15-1 3 4 27 7 27 2 0 12 14 13 12 2-3 10 2 10-3 0-2-16-11-11-13 3-1 16-2 16-4 2-3-1-26-7-25-5 1-9-14-15-7-5 6-28-8-28-2m-204 1c0 6-8 11-5 17 2 7 18-11 14-16-1-2-9-3-9-1m461 0 3 1c5 0-4-3-3-1m-1152 0c2 1-43 32-49 36l-10 7c-1 0-6-5-5-6q23-18 50-31c3-2 10-7 14-6m1167 1 7 1-14-2zm-1209 3c-26 16 0-3 2-2zm857 0c-7 4-19 26-7 26 6 0 3-16 10-18 7-3 12 7 21 0 6-4-19-11-24-8m-160 2c-10 29 12 2 9 0-2-2-8-1-9 0m265 2c0 4-10-1-7-2 1-1 7 1 7 2m-914-1c0 1-6 5-8 5-3 0 8-8 8-5m1331 0c-50-2 51 2 0 0M22 638c17 16 52 33 46 54q-8 30-8 62l1 31c9 22-37-31-49-52-5-9-9-100 3-100zm88-2-3 2c-3 0 5-7 3-2m946-1c-3-5 2 3 0 0m-395 14q4 8 12 12 5 2 4 3c-5 6-19-11-20-14q-3-8 1-16zm-496-10c0 6-50 34-51 32-4-4 34-25 42-30q10-5 9-2m835 3q-4 12 3 14c12 0 3-28-3-14m-637-1 7 4c10 2-7-8-7-4m519 2c-8 1-11 15-16 20-3 2 10 1 9 8-1 2 29 4 19-5-4-4-12-2-18-2l1-11c0-4 32 13 25-7-1-5-15-4-20-3m-38 2c-1 3-4 10-1 12 6 4 9-5 11-9-3-2-7-8-10-3m-666 0-11 7c-10 4-38 35-45 27-4-5 34-24 38-26 2-1 18-10 18-8m602 1c-8 12 20 11 10 0-2-3-8-3-10 0m-699 7c5 7-8-2-8-7zm1154-6h40zm48-1h3zm-186 5c3 2-6 3-6-1zm-904 2c7 5-6 5-5 7 3 2 10-4 7 2-8 15-36 28-49 38l-9 5c-6 0-3-9-1-11 6-5 53-44 57-41m1374 3c1 7-8-1-5-2q4-3 5 2m-475-1c0-3 0 3 0 0m-929 6c2-4-3 4 0 0m502 8q19 8 40 9c-5 5-14 17-21 17-7-1-24-10-27-17-3-12-2-12 8-9m-463 0c-15 9-39 25-51 39-2 2-16 11-15 7q0-3 8-8c18-15 78-50 58-38m10 2c1 2-11 8-13 8-4-2 12-12 13-8m779 1q1 3 3 2c4-2-4-7-3-2m-215 6c15 4 35 3 50 3 71 0 142 15 214 13 16-1 39 0 39 1 0 13-284-14-313-16l-13-2c-1-1 19-1 23 1m-564 0c0 2-11 8-13 9q-27 22-56 41c-19 14-1-9 7-14 13-10 30-25 46-30 3-1 16-9 16-6m1358 8v-3zM83 686q0 2-2-1 1-3 2 1m146 0c2 2-28 22-34 22q0-2 10-9c6-3 18-18 24-13m1503 2c-3 3-6 5-42 15q-3 1 1-4c3-3 13-1 14-5s33-14 27-6m20-2c0 4-4 1-3-1q2-2 3 1m-1542 5c-21 17-43 38-67 50-3 1-14 13-14 7q-2-2 7-7c24-17 96-69 74-50m31 5c1 1 2 6 0 6-34 0-64 66-98 66-3 0 26-24 26-24-1-2-7 3-8 3l16-14 8-7c0-2-47 35-50 32q-2-3 36-29l46-31c13 0-40 25-28 25 18 0 35-44 52-27m1333-2c-1-7 0 2 0 0m-26 2q-2 13-12 35c-20 41 13-51 12-35m78 1c6-6-5 6 0 0m118 2c11 57-14 84-42 125-11 16-113 112-128 98l-6-3c-5-1-12-51-8-53q7-6 16-10c5-1 6 8 1 8-2 0-11 4-14 7-2 3 3 5 6 4 5-1-3-2-3-3 0-11 26-4 13 4-21 13-4 8 4 16 1 1-5 8-5 10q1 8 5 9c6-1 1-21 7-18 6 4-5-18-2-18 7 0 11 36 8 7-1-15-11-36-3-49 8-16 29-30 43-41 31-23 64-53 91-82 15-17 16-18 17-11m-23-1c0 5-12 12-16 13-15 5 0 2 0 4s-37 12-38 11l15-16c7-9 5 3 9-3 2-3 30-11 30-9M217 711c-22 13-46 29-44 30 16 17 47-17 59-37q3-4-15 7m37-5c1 1-49 33-54 36l-14 9c3-4 59-51 68-45m5 6c0 11-60 39-68 48l-27 19c-6 0 0-7 1-9a432 432 0 0 1 94-58m1303 6c0 9 0 23-14 23l3-8c2-5 10-28 11-15m-44-3c-9 14-8 35-20 48-10 10 13-25 13-39 0-21-20 37-29 56l-28 60c4-30 21-58 35-85 6-14 9-30 22-38q8-5 7-2m8 2-7 14c0-4 11-22 7-14m161-1c11-2-6 2 0 0m-1429 6-51 39s58-50 70-40c14 12-97 78-100 74-3-6 41-27 41-32 0-7-48 26-50 24-4-4 66-52 70-55 6-5 17-14 23-14zm1438 0c0 14-37 18-45 23-6 3 0 6-4 8-4 1-19 5-9-2 5-3 27-23 27-21q1 5 5 3c4-1-2-1-2-3s28-11 28-8M294 734c4 4 23 14 23 18 0 1-28 22-42 31q-22 14-43 30c-1 1-16 11-16 4q0-2 20-18l64-54-16 12-66 50-10 6c-10-4 25-31 15-28a420 420 0 0 1 61-46q0-3-12 5-37 24-70 52s-15 13-15 5c0-27 84-47 94-74 1-2 9 3 13 7m1209-7c2-5-1 4 0 0m-6 1c0 3-10 24-18 38l-11 19c-4-12 12-49 23-55zm-1292 4c0-3 0 3 0 0m1275 6-9 20-50 104c-7 14-10 43-30 45l18-32c26-45 71-188 71-137m-1283-1-8 6-30 21c11-11 38-42 38-27m1338 8c5-12-6 15 0 0m-26 7-14 33q-11 24-11 21c-3-3 12-30 15-37l11-22q1 2-1 5m11-4q-5 14-9 14c-4-5 11-20 9-14m48 1c0 1-6 3-3 0q2-2 3 0m-112 4c-17 43-44 83-59 127-4 14-8 28-21 34-14 5 28-87 44-115 8-13 18-49 36-50zm207 1c-8 8-26 9-37 12 9-8 24-14 36-14q4 0 1 2m-1439 2c8-9-7 7 0 0m100 0c5 2 11 9 17 9q4 0-8 8c-11 8-70 75-86 63-11-9 47-25 33-30-3-1-7 6-7 3q-2 0 37-28 27-20 21-18c-1 0-39 27-58 42l-34 25c-2-1-10-4-10-6s10-10 21-18c17-12 56-56 74-50m-150 5-3 1c-2-1 7-6 3-1m1261 1c-4 17-21 31-25 49-12 44-85 159-74 115l15-36c23-46 97-178 84-128m-1316 0q-2 1-2-1c1-2 3 1 2 1m1533 2c0 5-26 11-25 13s10-4 8 0c-3 5-38 15-38 13 0-7 23-7 27-11q2-3-11 0l-33 17c0-10 40-26 49-28 21-5 23-6 23-4m-156 4c4-4-2 1 0 0m-1343 1-2 1c-2-1 6-4 2-1m202 3 6 3q-43 38-85 78c-4-2-19-7-12-12 2-2 12-7 12-10s-18 10-12 5c16-17 65-76 91-64m1052 2q-15 26-28 53-21 39-38 80c-4 8-5 21-13 25-18 11-43 13-63 21-4 2 22-52 29-66q19-37 40-73c3-5 24-20 23-18l-44 86-25 58c0 10 4-4 5-5 7-28 79-168 93-154 1 1-6 13-7 15-10 42-68 157-52 117 14-37 30-79 53-111 7-9 8-23 20-28 4-1 14-8 7 0m81 8-19 45c-5 14-15 27-17 41-1 3-11 24-17 18-2-2 8-17 7-21-1-8-5 15-10 21q-4 6-5 2c0-2 17-52 25-58 12-10-19 33-9 44 4 3 4-21 5-21 3-7 2 1 3 1l5-10c9-23 19-51 33-72q6-6-1 10M71 778c2 4-3 5-3 0q0-4 3 0m1396 0-17 47c-7 22-28 46-28 68 0 2-13 7-14 7-7-7 27-62 33-74 7-17 32-66 26-48m-1095 3 8 3-65 54c-10 8-19 15-19 17 0 5 36-21 39-23l12-9c0-11-27 27-27 16l10-9c6-5 65-52 65-40 0 1-60 50-82 66-1 2-9 8-4 8 8 0 14-8 19-12q12-8 11-9c-2 0-19 13-10 5l64-51c3-3 26-3 26 5l-36 28-55 41c-10 9-36-10-46-15l14-12c0-2 11-16 23-24 14-9 35-20 44-34 3-4-2-3-6 1-7 7-27 23-27 21s32-31 34-31zm-7-1q1 3 2 0 0-3-2 0m1153 6c6-4-7 6 0 0m226 3c3-13-3 10 0 0m-1528 2c8-6-9 7 0 0m1401 0c-14 13-35 9-51 19-11 7 48-15 37-8-12 8-22 10-36 16-10 4 26-29 53-29zm-1326 7c3-5-2 3 0 0m31 4-32 28q-10 8-7 8 1 1 22-18c1-1 25-20 24-21s0-2-7 3m98 10c-21 21-48 38-68 60-4 5-23 13-23 5 0-4 13-11 17-14q30-25 63-48c13-10 15-12 17-11q4 0-6 8m-280 2c-11 13-46 38-46 53 0 6 26-27 27-28 18-19 29-34 26-34zm1194-8-17 32c-15 26-51 127-76 123-1-1 2-7 17-34q23-38 44-78c9-15 32-60 32-43m-899 2c0 3 6 0 6 4 0 7-19 19-23 23l-37 32c-10 7-32 30-32 17 0-4 22-14 21-16-2-1-10 8-12 6-23-22 105-62 73-62-2 0-15 11-15 9 0-4 19-17 19-13m1048 3c3-5-2 4 0 0m-163 1c0 5-8 9-8 13 0 14-19 34-26 46l-48 87c-3 5-23 16-27 12-2-2 21-40 60-102 11-16 22-47 41-55q8-3 8-1m-965 4c14-11-14 11 0 0m98-2c9 4-45 51-58 59-8 5-22 23-32 21-10-1 32-23 22-23-5 0-11 7-15 9 3-2 18-12 18-14 0-3 56-55 65-52m1136 1c0 5-8 31-33 31-4 0 4-8 1-10-2-2 18-7 19-10s-19 7-20 5c-4-3 33-25 33-16m-290 3-36 58c-30 48-56 92-56 95 0 1-12 4-13 3l21-38c22-34 92-135 66-103q-25 34-48 71c-1 2-81 115-88 81-2-7 7-14 9-20 7-22 35-38 40-59l4-5c0-10 25-35 31-45 14-19-19 13-11 6 32-29-53 70-72 110l-5 13c1 4-36 12-43 10-2-1 11-19 26-36l50-61c20 19-61 74-34 74 2 0 12-28 13-31l37-63c1-2 10-13 7-13-2 0-8 10-10 12-31 29-57 68-83 102-14 19-19 24-39 10-39-27 62-72 91-109 4-5 12-17 18-19 6-1-11 21-12 24q-30 40-63 78c-3 4-27 30-13 31 9 0 18-18 22-25 6-14 19-26 29-38q31-37 60-76c12-3 69-23 60-13-24 26-98 117-83 132 4 3 16-13 11-13-4 0-2 8-7 8-2 0 7-16 8-18 15-28 36-53 54-80 7-13 20-35 33-41l23-11zm-829 3 7 2c1 2-39 33-40 34l-45 36c-33 27 4-13 17-23q5-4-2-4c8-5 49-50 63-45m-306 2c-5 2-37 28-48 37q-21 19-8 19l3-2c1-4-4 1-5-1-6-6 63-49 63-54q1-3-5 1m116 3c7-5-5 4 0 0m207 0 4 2c0 6-20 9-15 12l5-2c2 2-98 78-115 83-32 11 100-31 82-60 0-1-52 38-59 41-12 4 21-17 31-26 7-8 55-54 67-50m993 5c-1 9 5-4 7-4 4 0-7 52-25 46-4-2 19-59 18-42m-974 0c11 4-9 14-13 17l-79 57q-12 10-15 9c-9 0 7-10 9-12q24-14 44-32c9-10 39-44 54-39m1198 1c-2 2-8 9-10 9-1 0 13-15 10-9m-1493 7c1 1 8 3 8 5s-41 35-42 34c-5-6 34-35 33-36-6-7-36 36-43 32-11-6 27-47 44-35m310-2q3-1-4 6-42 35-87 65-10 8-12 6-6-1-1-3l80-62c7-4 15-16 24-12m14 4c2 3-28 17-28 21 0 13 37-32 33-20l-89 66c-7 6-26 18-23 11 4-12 28-19 37-27l32-23c16-13-6 5-8 2-9-16 37-46 46-30m932 2c4-4-2 1 0 0m225 2q-4 4-6 4c-1-1 8-9 6-4m-1141 0c-2 9-24 15-31 22q-4 3-6 2c0-5 19-13 24-19 3-4 15-9 13-5m915 2c0 4-11 32-14 32-6 0 9-12 4-13-3-1 10-25 10-19m-896 1c27 4-27 24-27 27 0 2 11-5 4 0-6 5-69 43-71 40l34-25q19-13 37-28c8-6 12-16 23-14m-339 3c4 4-45 37-47 37-4 0 22-17 20-18l-18 9q5-7 11-10 14-7 14-10l-4 1c0-5 11-1 11-3 0-3-5-1-2-4q8-8 15-2m324-1-13 10-35 28c-15 12-36 22-50 35-5 5-16 1-4-8 11-8 40-22 40-31s22-10 28-16c6-5 34-19 34-18m938 2c2-7-2 6 0 0m-898 3 8 2c0 1-67 49-87 62-8 5-19 18-30 16q-8-2-8-4c1-1-5 1-5-1s42-31 52-36c17-10 49-43 70-39m597 2a550 550 0 0 1-51 60q18-19 31-41c2-2 20-22 20-19m-573 2c16 3-9 5-7 6 1 1 8-2 9-2-22 22-53 41-80 57-6 4-27 26-35 21-2-1-5 1 36-27 28-18 31-21 30-22-7-7-57 47-74 47-11-1 18-14 26-21 20-18 67-64 95-59m-239 2c13-8-12 9 0 0m265 3c21 7-77 63-90 72-4 2-10 11-15 10-7-1-16-6-21-4-30 13 51-39 78-57 15-10 29-27 48-21m-386 2c15 7-50 40-55 35-1-1 25-19 28-22 9-5 17-17 27-13m903-1c-22 37-62 71-91 102q-16 16-18 16c-19 0 4-12 4-16 0-2-20 14-20 12s19-23 45-52c23-24 98-91 80-62m-495 4c2 1-5 10-7 12-23 19-77 78-108 68l7-5 35-23c29-19 32-20 32-22h-3c-22 15-89 56-68 40l84-58c8-5 18-15 28-12m-69 5-20 15c0 3 44-30 20-15m-330-2c3 1-28 16-9 3 7-5 7-5 9-3m1395-1-3 2zm-1179 4c11-10-14 14 0 0m205-2c23 2-20 18-26 23-1 1 39-23 43-19s-88 63-94 69c-9 10 6 6 11 2l40-26q21-13 16-12c-9 0-36 30-45 27l12-9 60-44c4-4 29-10 29-3q1 2-29 21l-66 47-16 10c-12 4-28-4-40-5-19-2 46-32 44-35-1-2-39 23-45 26l-8 4q1-5 50-39c17-12 42-39 64-37m438 1-96 105c0 2-12-2-14-2q-5 3 4-7l69-74q12-12 8-11-2-1-54 56c-13 15-37 53-48 36-8-13 69-73 78-96 2-5 39-7 45-8 10-2 10-2 8 1m-894 0c0 1-18 12-20 12-5 0 20-13 20-12m123 1-9 6c-3 0 9-8 9-6m149 2c9-7-7 6 0 0m-229 0c-1 3-48 31-58 31-18 0 30-20 46-28q13-6 12-3m792 6c-7 9-78 121-105 97-6-5 34-10 26-18-3-3-11 11-14 11l5-9c19-27 88-101 63-78a459 459 0 0 0-73 82c-2-2 52-80 52-81q0-5-8 9l-52 76c-7 11-2 10-50 9-22 0-42-1-42-2-2-1 30-17 30-20 0-13-34 30-34 17 0-2 13-14 32-28 29-24 41-34 53-46 15-15 18-16 28-16 4 1 21-3 16 3-3 6-49 50-48 51 4 4 46-49 56-54l15-2q24 0 47-4 8-2 3 3m-888 0c4-2-8 4 0 0m1405 1c5 11-20 3-10-2q8-5 10 2m65-3q-4 5-5 2c1-1 7-5 5-2m-1175 2c1-1-13 8 0 0m284 0c34 34-78 96-124 79-3-2 6-3 6-5 0-3-10 4-11 2l60-43c7-4 54-49 69-33m30 2 8 2c0 5-110 91-121 77-2-2 13-11 12-11-4 0-18 12-20 10l20-16q40-29 75-63zm-491 2c4 3-47 28-56 31-5 2 10-10 12-11 11-6 33-29 44-20m227-1c7-5-4 4 0 0m119 0c12-4-9 4 0 0m173 2 9 2s10-2 11 0c2 2-11 10-5 10 10 0 31-19 31-8a1046 1046 0 0 1-83 72c0 6 26-13 23-13-2-1-10 7-11 5l60-51c14-13 15-13 23-14 3 0 20 0 17 3-18 20-92 54-92 78 0 8 26-12 25-12-5-1-13 9-19 10l5-6c9-8 88-92 109-71 2 2-70 73-78 73-9 0-8 14 4 5 5-4 37-26 35-27-3-3-35 29-38 26l20-18c15-12 66-84 98-65 1 1-20 22-33 32l-57 47c-3 3-9 15-11 15-5 0-102-4-102-9 0-2 9-6 7-8l-14 8c-3 0 4-6 32-28 25-20 28-24 27-25s-58 44-64 51c-1 2-2 2-12 1-36-4 88-62 89-77q1-4-12 7l-77 50c-9 7-21 17-33 16l-7-1c32-26 84-83 123-78m-608 2-11 7c-2-3 16-12 11-7m255 0q-4 3-4 1c0-1 9-6 4-1m462 0c0 4-25-1-6-2q8 0 6 2m-602 0c-12-5 11 5 0 0m-187 5q-16 14-9 15c4 2 19-9 18-10s-18 10-16 4c2-4 24-23 7-9m1042-2-3 2c-1 0 5-7 3-2m-697 0c0-3 0 3 0 0m152 0c7-5-3 2 0 0m-116 2-53 33c0-6 29-20 33-22 2-2 25-15 20-11m-207 0c0 1-14 6-18 6-1 0 18-10 18-6m26 0-3 1c-4 0 5-3 3-1m-187 6c-5 4-17 15-5 19 2 1-18 109-22 129q-5 29-5 59c-2 77 3 154 5 231 4 100 29 202 55 298a462 462 0 0 0 73 137c-54-78-78-167-94-260q-24-127-31-256c-2-50 1-102 1-153 0-37 11-72 13-109q4-40 15-79c1-7 6-23-5-16m30-1q1 2-3-1c-3-2 3-1 3 1m509 2c-12 9 8 1 8-3q1-3-8 3m-33-2c-2 3 4 2 4 0q-1-2-4 0m-327 2c-1 1-9 6-10 5-2-2 11-7 10-5m254 1c6-4-5 3 0 0m238 5c-15 15 8 0 8-5q1-3-8 5m-177 0c-23 14 9 0 9-4 0-2 0-2-9 4m-308-2c-3 6-36 14-16 5q18-9 16-5m-131 2c-1 7-10 2-8 0 1-1 8-2 8 0m359 6-36 25c1 1 35-22 38-24l8-5c0-2 0-2-10 4m-205-3c17 6-1 2-4 6-4 7-39 23-42 20-1 0 4-2 3-3-10-10 41-11 37-17l-15 3c6-5 13-12 21-9m-134 10c1 4-17-3-11-6 1-1 11 4 11 6m1389-3q-5 5-10 6c-2 0 17-13 10-6m-1280-1-30 15c-9 0 15-9 23-13q10-5 7-2m766 4c9-9-9 9 0 0m-611 2c-19 13 7 1 8-3q0-3-8 3m-227 0c6-4-8 6 0 0m17 0c0 2-10 5-11 4-7-2 11-6 11-4m81 0c0 2-15 5-5 1zm1330 3-4 2c-5 0 9-5 4-2m-555 4-10 9c-3 0 15-16 10-9m-883 1q-3 2-4 1c-1-1 10-6 4-1m9 2c6-3-8 5 0 0m824 3c14-12-13 13 0 0m-453 3-3 2c-3 0 6-5 3-2m1065 0c-3 3-15 3-4 0q8-2 4 0m-1407 0c0 1-6 4-9 4-5 0 9-7 9-4m1037 3h-4c0-1 7-2 4 0m341 0h-4c1-1 7-2 4 0m-1045 2-3 3c-2-1 10-9 3-3m188 1c12-11-11 8 0 0m122 5c-22 20-25 23-26 27-1 6 19-17 22-20l15-14q2-4-11 7m188-5c2-4-3 4 0 0m560-2c-1 1-7 4-4 1zm-613 10c29-25-28 26 0 0m46 1c3-7-4 7 0 0m-284 2c2-3-2 4 0 0m358 1c-1 2 3 2 3 0q-1-2-3 0m-589 5c-24-3 11 2 0 0m644 6-8 1c1-1 9-3 8-1m-143 3q-1 3-5 5c-1 0 5-8 5-5m647 2a1052 1052 0 0 1 24 332 955 955 0 0 0-16-306c-1-2-4-29-8-29zm-59 0q-10 1-9 3c-1 5 29-5 21-5zm-459 0-19 5s21-7 19-5m-553 4a612 612 0 0 0 96 7c10 6-25 0-37 0-25-2-102-9-76-9zm583 1c1-2-3 4 0 0m-256 3c6 1-8 3-10 0zm704 11q2 54 2 109c-1 22-72 20-86 22a2148 2148 0 0 0-151 24c23-4 234-43 238-28 1 2 5-4 10-4 7 0 25-1 30-6 6-5-34-1-37-2-5-2 3-70 1-82zm-725 5c8-6-11 10 0 0m114 7h-3zm555 6 4 2c5 0-9-5-4-2m-251 3c-7 7 11 14 9 18-1 1 7 22 9 27 1 2 3 18 6 14 4-5-1-20-3-26-2-4-13-41-21-33m-28 9c1 2-8 5-12 5-2 0 11-8 12-5m-21 8c13-4-17 5 0 0m-16 4c-2 1-10 1-4-1q7-2 4 1m43 15q-48 76-77 163c-50 145-90 293-94 447q-3 120 25 236c2 10 19 60 20 60l-5-19c-25-78-33-163-35-244-2-102 22-202 42-301 10-49 25-101 44-148 19-45 32-91 54-134l10-22c3-18 30-34 30-53q1-6-14 15m152-1-8 5c-4 0 8-8 8-5m-660 30c-88 16-174 83-262 108-16 5-190 55-185 72 1 2-3 9-5 11-4 5-4 5-5 19-4 69-19 147-1 215l8 70c4 54 10 113 29 164q10 23 18 48c18 80 107 112 176 134 23 8 50 0 74 4 41 8 87 10 127 7-4 4-24 15-24 19l19-9c19 0 44-47 46-61 1-6-1-74-3-82-2-11 1-23 0-35q-12-175-3-351c3-56 10-115 10-171 0-16 6-32 6-48l9-43c15-24-1-76-34-71m16 10c22 11 10 56 6 72-53 212-12 445-17 660-1 19 4 38 2 57q-3 23-21 41c-10 10-9 4-18 7-32 12-72-3-106-3q-20 0-41-7c-32-9-70-9-98-31-4-3 13 0 13-2l-11-2c-15-2-22-14-31-25-31-31-43-65-46-108-6-92-23-186-12-278 1-15 8-44 30-52 64-22 125-48 194-55 22-3 45-15 69-15 2 0 5-5 2-6-5-4-20 4-23-2-6-10 7 0 8-1 3-1-6-9-2-13 3-3 7 7 11 7 5 0-11-16-6-16 60 0 22 118 22 177 0 122 10 243 17 364 1 11-1 24-11 31-2 2-13 9-13 12s14-6 17-7c29-15 13-61 12-86-5-88-13-176-14-264q-1-119 8-238c1-21 9-45-1-65-7-14-58-27-58-18 2 17-96 32-115 46-47 33-172 38-182 107v206c1 71 5 141 20 211 1 4 18 48 16 50-4 4-47-101-50-109q-22-63-27-129c-3-34-2-69-10-102-16-67-2-142-3-208 0-9 13-14 10-23 0-1 7-22 2-16q-3 3-4 1c0-14 159-57 188-66 59-17 114-44 171-66 28-10 72-50 102-36m835 22c-1 1-7 2-8 1-3-3 9-3 8-1m-331 88c-2 5-3 24 6 25q3 1-1-6c-5-6 2-33-5-19m340 31c-7 1-32 2-33 1-2-3-6 2-10 2-12 0-291 10-291 30q-2 3 13-1c25-6 334-29 334-30q-1-5-13-2m-929 10c-2-6 2 6 0 0m-3 8c12 23-16-5-9-6q5-1 9 6m16 0q4 6 5 12c0 3-14-24-5-12m-37 7c0 3-4 8-6 7-7-3 6-24 6-7m35 5c-7-19 5 14 0 0m-27 6q7 9 5 15c-5 15-18-33-5-15m22-1c7 11-6 10-4 0q1-4 4 0m-38 1c2 2 3 9 0 7-2-2-6-13 0-7m-54 5c2 9-11 2-4-1q4-2 4 1m26 4c3 5 8 9 5 15-3 9-5-3-8-3-5 0 5 13 1 18-27 34 0-34 2-30m23-2c3 3 3 10 1 12-5 4-8-20-1-12m49 6c1 4-4 2-3-1q2-3 3 1m-33 5c12 16-8 1-6-5q1-3 6 5m-81-1c5 8 9 11 2 20-1 1-13-12-11-17q3-10 9-3m60 3c2 2 4 8 2 8-6 0-9-17-2-8m-79 3q1 7-3 6c-6-2 3-17 3-6m129 1c0 6-5-2-4-4q3-2 4 4m10 2v3c-3-6 1-9 0-3m-153-2c3 4-7 3-5 0q3-3 5 0m-6 6c10 11-14 9-8-1q2-5 8 1m28-1c5 6 3 8 8 12 4 3 1 6-1 9-2-2-16-18-11-19 2-1 0-5 4-2m116 5c2 4 1 10 0 10-9 0-4-22 0-10m-130-1c-9-9 10 12 0 0m95 0c2 3-2 8-4 4q-1-7 4-4m48 4c4 10-4 7-4 0q1-7 4 0m-43 3q3 6 0 9c-4 1-8-17 0-9m-152 1-4 8c-11 0 4-14 4-8m30 1c-5-6 5 5 0 0m96 0q-2 1 1 4c16 12-20 7-4-4q5-3 3 0m-62 6c2 0 7 7 7 8 0 3-10-8-11-9-8-8 4 1 4 1m78-3c0-8 0 10 0 0m23-2q1 4-2 5c-2 0-2-9 2-5m14 6c8 18-10 1-7-6q2-2 7 6m-73 11-3 5c-5-6-11-10-6-18 3-4 9 5 11 7zm88-4c3 16-11-3-6-9 2-1 5 5 6 9m-48-7 2 3c9 9-12 8-6-2q4-3 4-1m-169 3c8 9-10 11-6-1q1-3 6 1m84 5q8 6 4 13c-4-3-16-11-14-15 4-6 4-5 10 2m100-4c0 2-6 6-3 1q2-3 3-1m561 5c2 15 3 58 8 44 4-9-1-36-5-47q-3-8-3 3m-600-1q4 8 1 9c-11 0-8-21-1-9m-158 0q-2 9-6 11c-10 0 7-22 6-11m171 0c4-9-3 10 0 0m-185 3c4-4-2 1 0 0m-2 5c1 4-6 0-6-3s6-1 6 3m74 0c6 5-10 8-7-3 1-3 0-3 7 3m-35-2q4 2 2 7c-4 9-12-17-2-7m94 4c2 8-8-3-7-5s7 3 7 5m18 2q1 6-2 8c-8 0-7-12-5-17zm16-6c14 14-61 46-48 31 5-6 24-17 25-16q2 5 7 8c3 1 16-4 12-10-3-3-1-19 4-13m950-1c0 4 14 4-5 5q-128 6-255 17c-12 2-41-4-49 1-3 3 4 5 6 5q42-2 83-6 93-7 187-11c4 0 52 2 53-7q2-3-8-3c-1 0-12-3-12-1m78 2q0 3 3 3c2-1-1-7-3-3m-1212 5q0 5-4 1c-3-3 4-7 4-1m26 2c4 6-5 3-4-1q1-3 4 1m118 1c-11-12 11 12 0 0m58-1c0 4 5 6 5 9 0 1-11-2-9-8q4-3 4-1m-133 4c11 11-17 8-6-3q2-2 6 3m32 1q4 4 2 6c-3 4-11-16-2-6m160-2c-2-5 1 4 0 0m-275 7-3-2q3-1 3 2m50-1-2 4c-4 0 2-8 2-4m61 3c6 5 1 6 3 12 1 4-4-7-8-7s0-10 5-5m-109 3q7 5 4 8c-3 5-19-18-4-8m18 1c9 9-8 7-6-1q2-5 6 1m104-2c0-5 0 7 0 0m-43 3-5 10c-11 0 5-19 5-10m-36 0c1 2-2 13-4 13-6 0 0-19 4-13m1180 1c0-4 0 4 0 0m-1093 3c1 1 6 3 6 5q-1 3-14 5c-9 2-63 21-66 15-4-9-14-7-10-17 4-15 12 11 19 8 4-2-1-8 3-10 6-2 2 12 9 12 4 0 6-6 5-10-3-12 12 4 15 4 5 0 28-15 33-12m-102 3q3 3 0 7c-4 4-7-9 0-7m1194 4c0-5 0 5 0 0m-1185 7q3 6 0 8c-6 0-5-15 0-8m-31 3c-1 1 6 5 6 7 0 3-3 11-4 11-10 0-2-19-2-18m-16 7q7 8 4 10c-7 4-17-24-4-10m1229-2v3c2 1 2-7 0-3m-1168 3c6 6-18 10-23 13q1-7 5-13c2-2 9 10 11 4l-2-2c-5-2 6-5 9-2m-67 8q7 6 9 14c0 4-14 13-15 11-4-3 4-9 5-14q0-5-2 1c-5 12-4-19 3-12m34 2c-1 5-4 2-3-1q2-3 3 1m-14 2q3 7-2 8c-4 0-3-15 2-8m19 2q-1 2-4 1c-2-1 4-4 4-1m1044 58c-19 4-42 1-60 1l-60 2c-17 1-31 3-29 4h20c51-2 104 3 154-4 4 0 41 11 41 0 0-6-58-5-66-3m-177 7 10 1c26 0-10-4-10-1m-21 1c3 4 18 4 15 0zM292 1587c-9 11 23 86 28 102q15 53 35 105c12 34 36 62 52 94q3 6 4 3l-17-32c-10-18-30-56-35-70-23-59-36-121-56-180-7-22-9-25-11-22m1097 28c0-4 0 4 0 0m-325 60c0-9 0 4 0 0m17 104 1 3c1 2 1-9-1-3" clip-rule="evenodd"/>
</svg>
