<svg xmlns="http://www.w3.org/2000/svg" fill="none" viewBox="0 0 250 444">
  <g id="wallClock">
    <path id="bgLayer" fill="color(display-p3 .8471 .5429 .2941)" fill-opacity="1" d="M125 0q1 0 2 .4 1 .6 2.5 2c2.6 2.8 4.9 6.1 6 9.8 1.1 3 1.8 6.4.6 9.4q-.4 1.3-1.3 2.5l-.9 1.6q.1.2 1.3.6 3.3 1 5.8 3.5l1.8 2c.3.5.3.5 2.4-.5q1.8-1 3.8-1.6c1.5-.4 2.3-.5 5.1-.5 2.5 0 3.7.1 4.8.4 10 2.8 16.4 13 24 19.2 1 .8 6.3 5.4 7.2 4.1q2-3 5.3-4.4c2.7-1 6-1 8.7 0a11 11 0 0 1 6.8 8q.8 3 0 6l-1.3 2.5c-1.8 2.6-5.2 3.7-6.7 6.6-.9 1.7-1 3.9-1.1 5.8-.1 1.3-.3 2.7-.5 3.2a5 5 0 0 1-3 2.8 9 9 0 0 0-3.7 2.7c-1 1.2-1 3.2 0 4.3q.7.7 1.5 1h1.5l2-1.5c2.5-2.5 7.1-2.8 10.5-3.3l5-.5c2.8-.1 2.8-.1 4.6-2.6a11 11 0 0 1 2.8-3.1q2.1-1 4.5-.2 1 .3 2.3 1c2.2 1.2 4.3 3.4 5.5 5.7q1.5 2.6 1.8 5.7l.5 2c1 2.2 4.8 2.3 6.8 2.5q2.8.1 3.6.5 1.3.7 2.1 2.3c.6 1.2.5 3-.1 4.2a5 5 0 0 1-1.5 1.7c-.8.5-1.2.6-2.8.7-1.8.1-1.8.1-4.5 4.1l-11 16c-2.1 3.2-2.1 3.2-2.2 6.6-.1 2.8-.2 3.6-.6 4.2-.2.4-1.7 2.5-3.3 4.5l-8.3 10.9c-1 1.4-1 1.4-1 114l.1 114.3q.2 2.4 1.8 4c1 .8 2.6.5 3.7 1.5q.7.6 1 1.4c2.7 5.2-3.6 28.4 3.6 28.7q2.9 0 3.5.5a5 5 0 0 1 2.3 2.7q.3.7.2 11c0 10 0 10-.7 11a6 6 0 0 1-1.7 1.5c-1 .5-1 .5-102.9.5-82.4 0-102 0-102.7-.2a5 5 0 0 1-2.7-3 47 47 0 0 1-.3-10.8c0-3.7-1.7-11.3 3.2-13l3.3-.2c2.5 0 2.5 0 2.5-13.8 0-3.8-2-13.3 1.8-16.3 1-.8 2.3-.8 3.4-1.4 1-.6 1.6-2.2 1.8-3.3 7.3-35 .3-79 .3-114.5 0-113.4 0-113.4-2.6-116.8l-10-13c-.4-.9-.5-1.2-.5-4.2 0-3.3 0-3.3-4.4-9.8l-7-10.3c-1.4-2-3.3-6.8-6.1-6.8q-1.4 0-2.3-.3a5 5 0 0 1-2.5-2.4 5 5 0 0 1 2-6c.8-.5 1.4-.6 3.8-.8 2-.1 5.1-.2 6.6-2q.3-.6.5-2 .4-3 1.8-5.8t3.7-4.7c2-1.5 5-3.2 7.6-2.6 3.4.7 4 6.1 7.4 6.1l4.4.4c3.8.4 9.3.6 12.3 3.4q1.3 1.2 2.2 1.5c1 .3 2.5-.2 3-1.3q.4-.5.4-1.2c.3-1.2-.4-2.5-1.2-3.4a9 9 0 0 0-3-2c-1.6-.7-2.1-1-2.6-1.8s-.6-1.2-.9-4c-.2-2.4-.4-5-1.8-7l-2.1-1.9c-1.6-1.2-3.5-2.6-4.5-4.4-.3-.6-.7-1.7-.8-2.4a11 11 0 0 1 0-5.3q.8-3 2.7-5.2a11 11 0 0 1 4.5-3c2.6-1 6-1 8.5.3q2.7 1.1 4.5 3.5C62 55.8 73.8 42.5 75 41.3c4.6-4.4 9.3-9.5 15.6-11.4a14 14 0 0 1 5.3-.7c2.5 0 3.6.1 4.8.4 1.3.4 5.8 3.2 6.8 1.8a16 16 0 0 1 7.6-5.2q.9-.2 1-.5c0-.1-.4-1-1-1.8l-1.4-2.8c-2-6.8 3-15 7.8-19.6l1.7-1.2Q124 0 125 0"/>
    <g id="outlineLayer">
      <path id="innerVector" fill="#000" fill-opacity="1" fill-rule="evenodd" d="m123.1.3-1.7 1.2a28 28 0 0 0-6.1 8.6c-.6 1.3-1.3 3.1-1.5 4.2-.2 1-.4 2.8-.4 3.8s.1 2.4.3 3 .8 1.9 1.4 2.8l1 1.8q-.1.3-1 .5a22 22 0 0 0-5.9 3.3l-1.7 1.9c-.7.9-.7.9-3-.3l-3.8-1.5a18 18 0 0 0-4.9-.4c-3 0-3.5.1-5.3.7a23 23 0 0 0-7.3 4c-1.4 1-4.7 4-8.2 7.4-3.2 3.2-6.8 6.5-7.9 7.5a53 53 0 0 1-5.7 4c-1.2.6-1.2.6-2-.6a13 13 0 0 0-4.5-3.6 12 12 0 0 0-6.2-.7c-.8 0-1.9.3-2.4.5l-2.1 1q-1.2.8-2.3 2a13 13 0 0 0-2.8 5.2l-.3 2.7.3 2.6c.2.7.6 1.8 1 2.4q.5 1.1 1.7 2.2l2.6 2.2 2.2 2q.6.8 1 2.3.6 1.5.8 4.5c.2 2.9.3 3.3.8 4s1 1.2 2.7 2q2 1 3 2t1.1 1.8.1 1.5q-.1.8-.5 1.2-.3.7-1.2 1.1c-.8.4-1 .5-1.8.2q-.9-.3-2.2-1.5a6 6 0 0 0-3.1-1.7 74 74 0 0 0-13.5-2c-1.6 0-1.6 0-2.9-1.9l-2.4-3q-1-1.1-2.1-1.3h-2.2a9 9 0 0 0-2.7 1q-1.5.7-2.7 1.6a14 14 0 0 0-3.7 4.7L14 89.8l-.7 3.1q0 1.5-.6 2-.5.7-1.2 1l-1.7.7-3.7.4c-2.3.2-3 .3-3.7.7a6 6 0 0 0-1.6 1.5c-.6.8-.7 1.2-.8 2.3 0 1.1 0 1.6.4 2.3q.4.8 1 1.5l1.5.9c.4.2 1.5.3 2.2.3 1.4 0 1.4 0 2.5 1.5l10.6 15.6c4.5 6.5 4.5 6.5 4.5 9.8 0 3 0 3.3.5 4.1l9.9 13.1c2.6 3.4 2.6 3.4 2.6 116.8 0 81.5 0 113.6-.2 114.5-.2.6-.5 1.6-.8 2q-.6 1-1 1.3l-1.6.6q-1 .3-1.8.8-.7.6-1.3 1.5c-.5 1-.5 1-.5 14.8s0 13.8-2.6 13.8l-3.2.2-1.5.8q-.7.6-1.2 1.5c-.5.9-.5 1-.6 10.7 0 8.4 0 10 .3 10.8q.4 1 1.2 1.9.7.7 1.6 1c.6.3 20.3.3 102.7.3 101.9 0 101.9 0 102.9-.5a6 6 0 0 0 1.6-1.5c.7-1 .7-1 .8-11 0-7 0-10.4-.2-11a5 5 0 0 0-2.3-2.7q-.6-.4-3.6-.5c-2.8-.1-2.8-.1-3-14 0-13 0-14-.5-14.7q-.4-.9-1-1.4a5 5 0 0 0-2.7-1q-.3 0-1-.6t-1.2-1.4q-.4-1-.6-2.5c-.1-1-.2-45.3-.2-114.2 0-112.7 0-112.7 1-114.1l11.7-15.4c.3-.6.4-1.4.5-4.2.1-3.4.1-3.4 2.3-6.6l3.4-5 7.5-11c2.7-4 2.7-4 4.6-4 1.6-.2 2-.3 2.8-.8a5 5 0 0 0 1.4-1.7q.6-1 .5-2.3t-.3-2l-1-1.3q-.5-.6-1.2-1-.7-.2-3.5-.4c-1.6-.2-3.4-.4-4-.6q-1-.3-1.8-.8-.7-.5-1-1.2l-.5-2-.6-2.6c-.2-.8-.8-2.1-1.2-3a14 14 0 0 0-2.5-3.3 15 15 0 0 0-5.4-3.4l-2.2-.4q-1.3 0-2.2.6a11 11 0 0 0-2.8 3c-1.8 2.6-1.8 2.6-4.5 2.7a65 65 0 0 0-13 2.2c-1.2.3-1.7.6-2.7 1.6q-1.2 1-2 1.4-.7.3-1.5 0l-1.3-.9q-.8-.5-.8-2c0-1.3 0-1.5.6-2.3a8 8 0 0 1 3.8-2.7q1.2-.5 2-1.2.6-.7 1-1.6l.4-3.2c0-1.3.3-2.9.4-3.6q.3-1.3.8-2.2t1.4-1.8l2.6-2.2q1.8-1.2 2.6-2.6c.5-.7 1-1.8 1.3-2.4q.4-1.2.4-2.8 0-1.4-.3-3.2c-.3-1-.8-2.4-1.2-3.1s-1.2-1.8-1.7-2.3l-1.8-1.6-2.1-1a12 12 0 0 0-6-.7l-2.7.6-2 1.1a14 14 0 0 0-3.3 3.3c-.4.5-.4.5-1.7-.2a38 38 0 0 1-5.5-3.9c-.8-.6-4-3.8-7.2-6.9l-7.8-7.3a42 42 0 0 0-6.6-4.1l-2.5-.9c-1-.3-2.2-.4-4.7-.4a15 15 0 0 0-5.1.5c-1 .3-2.7 1-3.8 1.6-2.1 1-2.1 1-2.4.5a18 18 0 0 0-4.8-4.3l-2.8-1.2q-1.2-.4-1.3-.6l.8-1.6 1.4-2.5.6-2.5c0-.8 0-2.2-.2-3.3l-1-3.6A27 27 0 0 0 127 .4q-1-.4-2-.4-1.2 0-1.9.3m3.2 6.7a45 45 0 0 1 3 7.9 21 21 0 0 1-.4 7.3c-.3.9-.3.9-2.3 1.1l-4.1.6 2.3.5 2.4.3V27c0 2.4 0 2.4-1.9 2.6-1 0-2.1.2-2.4.3q-.3.1 3.5.5c3.5.3 4.1.4 5 1q.9.4 1.5 1.3l.8 1 .4 1.5v3q-.1 2-1.2 5a38 38 0 0 0-1.4 6.5q-.1.2-2.5.3l-10.7.9 12.9.7q.3 0 .3 2.5c0 2.4 0 2.4-3.3 2.7l-7.3.7 4.6.4 5 .4c1.1 0 1.1 0 1.8 2q.6 2 .5 2.3l-6.7.4-7.8.4q-1.5.3 0 .2l8.5.4c7.5.4 7.5.4 7.5 1.5l-.1 1.3-8 .4c-4.3.1-7.7.3-7.6.4s3.8.3 8.3.4l9.4.4c1.1.1 1.1.1 1 3.3 0 3 0 3-14.1 3.5-13.2.5-13.9.5-10 .6l21.4.8.2.5c0 .3-.3.4-2.4.5L120 78c-9.7.3-10 .3-6 .4l21.4.6c3.5.1 3.7.2 4 .6l.4 1.8a10 10 0 0 1-.2 4.5c-.2.7-.2.7-19.8.7s-19.6 0-20-.6l-.6-2q-.2-1.4 0-2.3.1-1 .5-1.7.5-.8 1.6-1.3a6 6 0 0 1 3-.5c2 0 2 0 2-1.2s0-1.2-1.6-1.2-1.7 0-1.6-4.2c0-4.1 0-4.1 4-4.2 4 0 4 0 4-2s0-2 1.3-2c1.2 0 1.2 0 1.2-.6l.5-1.7 1.1-1.8q.7-.7 1.6-1.3l1-.7-1-.4q-1.2-.4-2-1.1-1.2-.9-1-1.6 0-1 .7-2.1.7-1.3.6-2.5t-.3-2.6l-.8-2-1.6-2.1-1.5-2.4q-.4-.9-.4-2.8t.4-2.7a7 7 0 0 1 1.4-1.9l2.1-1.4a17 17 0 0 1 5-1.5c.4-.1.5-.4 1.3-3.2.8-3 .8-3-.4-4.4a7 7 0 0 1-1.8-2.4q-.5-1-.5-2a12 12 0 0 1 1.2-5.1 23 23 0 0 1 5.8-8.3zm-1.5.6.4 3.1a98 98 0 0 0 2.3 10.8q.1.6.5-.6.3-1 .2-3.7 0-2.9-.3-4.2a22 22 0 0 0-2.5-5.2q-.6-.8-.6-.2m5.2 25.7.8 2q.4 1.4.4 3c0 1.4-.1 2.3-.7 4.3a14 14 0 0 0-.8 3.9V48q.2 0 .4-1.2l1.2-3.5c.9-2 1-2.3 1-4.4 0-2-.1-2.3-.8-3.6q-.7-1.4-1.3-2-.8-.9-.2 0m-31.2.8a17 17 0 0 1 6.5 3q1.2 1 2.2 2.3c.6.7 1.3 2 1.7 2.7s.8 2 1 3q.3 1.5.2 3a16 16 0 0 1-1.7 5.6 17 17 0 0 1-18.9 7.2 19 19 0 0 1-6.1-3.4c-1.8-1.4-1.8-1.4-1-.4A23 23 0 0 0 89 62c1 .4 2.5 1 3.5 1.2a23 23 0 0 0 8.3 0c2.5-.4 2.5-.4 3.3.4l.9 1-1.6.3-3 .6-2.4 1.1-1.7 1.5a11 11 0 0 0-2.3 4.4l-.3 1.7c0 .4-.2.7-1.5 1.5a64 64 0 0 1-7.5 4.2 168 168 0 0 1-18.5 8h6.2l6 .3-5 1.3L59.6 93l.5-1.3c.6-1 .7-1.4.7-3.5 0-2-.1-2.4-.7-3.5q-.6-1.2-1.5-2.3l-.8-1.1 2.3-1.8a136 136 0 0 0 10.7-9.1 78 78 0 0 0 8-9.6l-1.4.8a62 62 0 0 1-16 7.7s1-1 2.5-2a85 85 0 0 0 7.8-6.2l2.8-2.3a82 82 0 0 0 9.8-8.6c2.2-2.1 4.5-4.2 5.1-4.6q1.2-.8 2.4-1.3t2.6-.5 2.4.5l1.8 1.2 1 1.4.7 1.5q.2 1.3.3.1l-.4-2-1.2-2.1a6 6 0 0 0-2.3-1.9 6 6 0 0 0-3.4-.7 9 9 0 0 0-3.4.6l-2.6 1.3-2.7 2-8.7 7.5a116 116 0 0 1-10.2 7c-1.6 1-4.4 2.5-6.3 3.4a14 14 0 0 1-11 1.7c-.4-.2-1.5-.7-2.3-1.3q-1.5-1-2-2.1c-.4-1-.5-1.4-.5-2.7 0-1.2 0-1.8.6-2.8q.5-1.2 1.7-2.2 1-1 2.1-1.4 1-.3 2.3-.3l2 .2 1.8 1q1 .6 1.8 1.8c.4.7 1 1.9 1.2 2.6q.3 1.1.6 1.2l2-.5a29 29 0 0 0 7.2-3.9c1-.6 2.5-1.8 3.5-2.6l7.3-7 7.5-7 5.4-3.5a19 19 0 0 1 5.2-1c.7 0 2 0 3 .3m59.4.3a19 19 0 0 1 6.6 3.8l7.5 7A175 175 0 0 0 183 55a41 41 0 0 0 7.3 3.8q2.2.8 2.3.5l.4-1.6 1-2.3q.9-1 1.8-1.7t2-1l1.9-.2c.6 0 1.7.2 2.4.5a7 7 0 0 1 4.2 5.9c0 1.2 0 1.7-.4 2.6a6 6 0 0 1-1.3 1.9l-2 1.3q-1 .6-2.9.8c-1 .2-2.5.2-3.3.1q-1.5-.1-2.7-.5c-.6-.1-2.4-1-3.9-1.7A120 120 0 0 1 173.7 53a146 146 0 0 1-9-7.8c-.8-.7-2.2-1.6-3.1-2a14 14 0 0 0-3.2-1.2 6 6 0 0 0-3-.2c-.8.2-1.9.5-2.4.8l-1.7 1.1q-.7.8-1.2 1.8-.5 1.1-.7 2.2-.3 1.6.5 0 .6-1.2 1.3-2c.3-.4 1.2-1 1.8-1.3q1-.7 2.5-.6c1.3 0 1.8.1 3.3 1 1 .4 2.5 1.4 3.4 2.1l3.5 3.5 5 4.8 10.7 9.3 5.5 4.3-2.3-.9a90 90 0 0 1-13.3-7q-.1.1 1 1.6a65 65 0 0 0 12.6 13.2l7.2 5.6-1 1.5c-.6.8-1.3 2-1.5 2.6q-.4 1.1-.4 3c0 .9.1 2 .3 2.3q.3.7-.2.6l-2-.3-15.3-2.8 5-.2c5.3-.1 5.3-.1 2.4-1.2a219 219 0 0 1-19.7-9c-3.3-1.8-3.3-1.8-3.5-3.6l-.6-2.8q-.4-1.2-1.2-2.4c-.4-.6-1.3-1.5-1.9-2q-1-.8-2.3-1.3c-.7-.2-2.1-.6-3.2-.7-2-.3-2-.3-1.2-1.2.9-1 .9-1 3.4-.6a23 23 0 0 0 10.8-.7l2.4-1.3a25 25 0 0 0 5.5-4.8q.1-.4-.8.4a24 24 0 0 1-4.6 3.1c-.8.4-2 .9-2.6 1-.6.3-2 .5-3 .6q-1.7 0-3.8-.3a18 18 0 0 1-7-2.6 17 17 0 0 1-6-7.4 10 10 0 0 1-.4-4c0-2.4.1-3 .6-4l1.2-2.4a16 16 0 0 1 10.1-6.8 18 18 0 0 1 6.6.4m-59.8 3 1.1.7q1.2.7 2.4 1.9c.7.6 1.6 1.9 2 2.7.7 1.2 1 2 1.1 3.4a11 11 0 0 1-1 6.7 15 15 0 0 1-2.5 3.8h.3l1.2-.7 1.7-1.5q1-1.1 1.8-2.8c.8-1.6.8-1.7.8-4.3s0-2.7-.8-4.3a11 11 0 0 0-7.1-5.7zm50.3.4-2.3 1.2c-.5.4-1.4 1.1-1.8 1.6a12 12 0 0 0-2.4 5q-.3 1.3 0 3.1c.2 1 .5 2.3.8 3l1.4 2.2a10 10 0 0 0 3.6 2.8q.1-.1-.7-1.2a16 16 0 0 1-2.7-5.3c-.2-.7-.3-1.8-.3-2.3l.2-2.4a12 12 0 0 1 2.8-5.2 11 11 0 0 1 3.3-2.6q1.2-.5 0-.4-.8 0-2 .5M92.9 47.9l-1.5 1q-.8.8-1.2 1.7t-.4 1.8.2 1.7l1 1.6q.6.8 1.2 1.1t.8.2l-.4-1.4q-.5-1.2-.5-2.7a6 6 0 0 1 .6-2.8l1-1.7q.5-.4.5-.6t-.3-.1zm62.5 0-1.4.8q-.7.5-1.3 1.6-.5 1-.5 2.2 0 1 .3 1.8l.9 1.5 1.3 1 .7.3-.5-1.6q-.5-1.5-.5-2.5a8 8 0 0 1 1.4-4.1l.7-1q0-.3-.2-.2zm-108 8.8-.9 1.1-.2 1.6q0 .7.3 1.5l1 1.4 1.5.8h1.7q.9 0 1.4-.3l1-.7q.3-.4-.3-.3l-1.8-.3q-1-.3-2-1-.6-.7-1-1.5v-1.3q0-.6.2-1t0-.5zm149.2 0-.9 1.2-.3 1.5a5 5 0 0 0 1.5 3l1.6.7c1 .2 1.4.2 2.1 0q.9-.3 1.5-.8c.5-.4.5-.4-1.1-.7q-1.5-.2-2.3-.7l-1-1.4q-.6-1-.4-1.7l.2-1.2v-.4zM86.2 68.2A159 159 0 0 0 70.5 79L67 81.8s.9-.2 1.7-.6a41 41 0 0 0 12.2-7 47 47 0 0 0 6.5-6.7zM162 68l2 2.2a49 49 0 0 0 16.5 11.1l1.8.6-.6-.5a105 105 0 0 0-12-8.8l-7.6-4.8zm-51.8 1.6c-1.5 0-2.8.2-2.8.3l4 .2a307 307 0 0 0 19 0c3.5-.1 4.3-.2 3.6-.4l-11-.2zm1.4 3.7-3.7.4a212 212 0 0 0 22.6 0l-2-.2a202 202 0 0 0-16.9-.2m-.4 6.7c-3 0-6 .2-6.8.3-1.3.2-1.2.2 2.3.4a234 234 0 0 0 22.3-.3l-12-.5zm115.7 2.9a11 11 0 0 1 4.8 3.7q.8 1.3 1.3 2.5c.3.7.7 2.3.9 3.6s.6 2.7.8 3q.3.7.9 1.4a10 10 0 0 0 3.9 2.6c.7.3 2 .8 2.9 1q2.4.5 0 .3a14 14 0 0 1-5.7-1.7l-2-1.6a8 8 0 0 1-1.4-2.3c-.2-.7-.6-2-.7-3l-.8-3.2-1.1-2.2-1.5-1.6-2-1.4-1.4-.4-3.8 4.7q-.4.5-.1 0a41 41 0 0 1 3.8-5.7zM26 85.5l2.7 4q0 .2-.4.3l-6.5.6 6.7.8L43 92.4c3.4.3 3.4.3 4.4 1.2l1.8 1.4.8.6-2 .5a166 166 0 0 1-23 3.7l-8.6.7c-3.3.1-3.3.1-2.5-.4l1.7-1.3q.9-.7 1.5-1.8c.3-.6.7-2 .9-3.1l.7-3.2 1-2.1q.6-1 1.6-1.9a11 11 0 0 1 3.8-2.2zm84.2-.6-4.2.2q-1.6 0-.1.3l13 .3 13.8-.2q2.5-.2 0-.4a285 285 0 0 0-22.5-.2m30.9 6 18.1 1-2 .2-5.4.3a621 621 0 0 1-61-.7l15.3-.8a784 784 0 0 1 35 0m75.9 3.4a102 102 0 0 1 10 1.4q.2.3-1.3.2a94 94 0 0 1-11.5-.7l-6.8-1.1 2.6-.1c1.6 0 4.7.1 7 .3m-190 .6-5.4.8 4 .2a77 77 0 0 0 12-1 112 112 0 0 0-10.6 0m135 3.5 35.3.9-5.2.3-13 .3a3045 3045 0 0 1-110 0l-18.4-.6 9.8-.5a1566 1566 0 0 1 61-.6c13 0 31.2 0 40.4.2m9.8 5.3a3350 3350 0 0 1 59.3 1.5l-14.8.7-18.6.4-28.6.5a4271 4271 0 0 1-152-1.4q-2.6 0 .2-.2l13-.5a3138 3138 0 0 1 141.7-1m-97.4 6.5-10.3.3-36.6 1 26.3.2 130.2 1 32.6.4c5.4.1 5.4.1 4.3 2.9l-3 7.6c-1.8 4.9-1.8 4.9-96.2 5s-94.4 0-95.5-1.6l-11.2-16.6c-.2-.3 3-.3 29.7-.3zm-8.2 7.2c-8.4 0-18.8.2-23.2.3-8 .2-8 .2-3.2.3l26 .4a6458 6458 0 0 0 140.6-.4c4.7-.1 4.7-.1-2.6-.3a2821 2821 0 0 0-84.2-.5c-21 0-45 0-53.4.2m47.5 5.8-19.6.1a3051 3051 0 0 0-53.2.7l9.4.3 25 .3A4817 4817 0 0 0 205 124l-13.6-.3-30.6-.3zm-17.9 12.2a2821 2821 0 0 1-55.3 1.5l172 1.8q2 0 2 .3c0 .1-.6 1.8-1.5 3.7-1.5 3.5-1.5 3.5-89.5 3.5s-88 0-91.3-4.5l-4.7-6.4a2549 2549 0 0 1 68.3.1M70 141.2l-21 .3q-10 .2-.6.4a3280 3280 0 0 0 149.3 0q9.4-.2-.5-.3a3227 3227 0 0 0-78.2-.6zm139.5 103c0 48.5 0 86-.2 83.5l-.3-18.4-1.8-131.3-.8 51.4-1.7 125-.6 31.6c0 .2-1 .3-3.9.2-3.8 0-3.8 0-3.9-79.1-.1-73-.1-79.4-.5-82.2a111 111 0 0 0-4.2-19 88 88 0 0 0-6.5-14.2 71 71 0 0 0-15.2-17.6 84 84 0 0 0-8.6-5.8 80 80 0 0 0-14.9-6.4 122 122 0 0 0-10-2.2 109 109 0 0 0-15.8-.7 104 104 0 0 0-11.5 1.5 156 156 0 0 0-10.8 3.2 86 86 0 0 0-10.7 5.2 76 76 0 0 0-12.5 9.6 78 78 0 0 0-9.3 11.5l-4.2 7.6a98 98 0 0 0-4.5 12 86 86 0 0 0-3.2 16.8c-.4 2.6-.4 10.3-.5 81.4 0 78.5 0 78.5-7 78.5-4 0-7.1-.1-7.2-.2l.5-1.6c.5-1.4.5-1.4.6-114.9V156.2h169.3zM71.3 160.7a110 110 0 0 0 0 11.7q.2 2.4.4 2.4l.5-4.2a54 54 0 0 0-.5-12.4q-.2-.3-.4 2.5m108.3-1.6a83 83 0 0 0 0 13.5q.3 1.5.5-.7a84 84 0 0 0 0-13q-.3-1.5-.5.2M47 162.5a443 443 0 0 0 .3 33 265 265 0 0 0 0-35.2c-.1-1.2-.2-1-.3 2.2m157-1.5-.3 6.5a368 368 0 0 0 0 22.7c.1 3.4.3 6.3.4 6.4s.3-1.2.3-2.8a544 544 0 0 0-.3-32.8m-27.1 2.3a88 88 0 0 0 0 14.4q.3 1 .5-.9a90 90 0 0 0-.1-13.6q-.2-1.5-.4.1M43.8 177l-.4 29.5a7723 7723 0 0 0 .4 152.7c.2 11.8.2 11.8.3 4.5a4931 4931 0 0 0 .7-95.5 8083 8083 0 0 0-.7-95.8c-.1-6.8-.1-6.8-.3 4.6m7.5-.3a246 246 0 0 0 0 23.8c.2 1.3.2 1.3.4-1.3a242 242 0 0 0 0-22.9q-.2-2.8-.4.4m80-1.3a75 75 0 0 1 12.5 3A72 72 0 0 1 155 184a71 71 0 0 1 8.4 6.8 57 57 0 0 1 11.8 16.8 76 76 0 0 1 3.1 9.1 88 88 0 0 1 1.5 9.7 48 48 0 0 1-1.2 15.1 58 58 0 0 1-12.4 24.6 70 70 0 0 1-10 8.9 67 67 0 0 1-12.3 6.4 63 63 0 0 1-15.3 3.3A53 53 0 0 1 93 274.3a74 74 0 0 1-7.4-6.4 65 65 0 0 1-6.7-8.4 63 63 0 0 1-6.7-14.6 63 63 0 0 1-1.9-10.9 65 65 0 0 1 1.3-16.8 86 86 0 0 1 2.8-8.5 65 65 0 0 1 6.7-11.8 88 88 0 0 1 7.2-7.8 78 78 0 0 1 7.5-5.7 63 63 0 0 1 16.4-7 78 78 0 0 1 8-1.3 114 114 0 0 1 11 .2M119 177a74 74 0 0 0-7.6 1.4 71 71 0 0 0-8.4 3 60 60 0 0 0-12 7.5 67 67 0 0 0-9.3 10 64 64 0 0 0-6.7 12.7 56 56 0 0 0-2.6 26.6l1 5a54 54 0 0 0 22.3 31 63 63 0 0 0 12.5 6 68 68 0 0 0 9.7 2.3 57 57 0 0 0 34-7 65 65 0 0 0 10.5-8.1 59 59 0 0 0 9.8-13.4 86 86 0 0 0 3.6-8.8 75 75 0 0 0 2-9.2 64 64 0 0 0-.8-17 69 69 0 0 0-3.1-9.8 64 64 0 0 0-4.6-8.6 67 67 0 0 0-6.4-7.9 61 61 0 0 0-8.8-7.3 61 61 0 0 0-17.4-7.5l-4-.7a67 67 0 0 0-13.7-.2m11.3 1.1a84 84 0 0 1 11.2 2.4 64 64 0 0 1 12 5.9 69 69 0 0 1 8 6.6 59 59 0 0 1 8.2 10.5 57 57 0 0 1 6 15.3 63 63 0 0 1 .8 17.3 61 61 0 0 1-2 9.3 63 63 0 0 1-4.9 11l-3.2 4.7a65 65 0 0 1-14.1 12.9 67 67 0 0 1-10.6 5 54 54 0 0 1-22.7 2.5l-4.7-.8a55 55 0 0 1-16-6.2 61 61 0 0 1-13-11.1l-4.4-5.9a65 65 0 0 1-5.9-13 66 66 0 0 1-1.9-10.1 64 64 0 0 1 .6-13.4 80 80 0 0 1 2.4-9.2 61 61 0 0 1 7.6-13.8 61 61 0 0 1 12.7-11.7 57 57 0 0 1 19.7-7.7 70 70 0 0 1 8.5-.8c1.6 0 4.1.1 5.7.3m68 2.7a223 223 0 0 0 0 24.2c.2.8.3.6.5-2.2a236 236 0 0 0-.1-21.4q-.2-2.8-.4-.6m-76.5 1-.1.9.1.8.7 1.5c.5 1.4.5 1.4.1 2.5q-.4 1.2-.7 1.6-.5.3-.5 1c0 .7 0 .7 1 .7s.9 0 .7-1l.1-1.6q.3-.9.6 0l.3 1.8c0 1 0 1 .5 1l.9-.2q.3 0 .3-.7t-.3-1l-.8-1.6c-.6-1.5-.6-1.5-.2-2.7q.5-1 .9-1.4t.3-1q0-.8-.4-.9l-.7.2q-.6 0-.5 1l-.1 1.6q-.3.6-.4.3-.3-.3-.4-1.6c-.1-1.3-.1-1.4-.7-1.4zm4.4-.1-.1.9q0 .6.2.8c.1 0 .2 1.3.2 2.9q0 2.6-.2 2.7-.2 0-.2 1c0 .8 0 .8.8.8 1 0 1 0 1-.9q0-.8-.3-.9t-.2-2.7.2-2.9l.2-1q.2-1-.7-.9zm2.2 0-.1.9q0 .6.2.8c.1 0 .2 1.3.2 2.9q0 2.6-.2 2.7-.2 0-.2 1c0 .8 0 .8.9.8s.8 0 .8-.9q0-.8-.2-.9t-.2-2.7.2-2.9l.2-1q.2-1-.7-.9zm-16.2 3.4c-.6.4-.7.5-.7 1.4q0 .9.4 1.3l.9.5 1.1-.1q.6-.3.9-.8l.2-1q0-.4-.5-1t-1-.7-1.3.4m23.2-.2q-.5.3-.7.8-.3.7-.1 1.2 0 .6.6 1l1.2.3q.7 0 1.1-.5t.5-1.3q0-1-.6-1.3l-1-.5zm1.4 1.4q0 .5-.3.7l-.7-.2q-.5-.4 0-.7.2-.4.6-.3t.4.5m-23 .2q0 .5-.3.7h-.5l-.4-.6q0-.3.2-.5l.5-.1q.4 0 .4.5m-14.2 1.4q0 .9.2 1l.7 1.4c.5 1.5.5 1.5 0 2.7q-.2 1.2-.6 1.6-.3.3-.3 1-.2.9.8.7c1-.2.8 0 .7-1v-1.6q.3-.9.6-.2t.3 1.6q0 1.1.2 1.3h.9q.8 0 .7-.9l-.2-.8-.8-1.7c-.6-1.5-.6-1.5-.2-2.8q.4-1 .8-1.4.4-.2.3-1c0-.6 0-.6-.8-.6s-.8 0-.8 1.2l-.2 1.6q-.3.2-.5-.4t-.3-1.6c0-1 0-1-.7-1-.8 0-.8 0-.8 1m4.4 0 .2 1q.3 0 .2 2.8t-.2 2.9l-.2.8c0 1 0 1 1 .9q1 .1 1-.8t-.3-1c-.3-.2-.4-.7-.4-3s0-2.7.4-2.8q.3 0 .2-.8c0-.7 0-.7-1-.8-.9 0-.9 0-.9.8m42.1 0q0 .9.3 1l.2 2.7q0 2.6-.2 2.8-.3.3-.3 1c0 1 0 1 1 1 .8 0 .8 0 .8-1l-.2-.9q-.3 0-.3-2.8 0-2.6.3-3l.2-1c0-.6 0-.6-.9-.6s-.9 0-.9.8m-24.4 6.9a47 47 0 0 0-7.1 1.3 56 56 0 0 0-7.2 3.1 38 38 0 0 0-12 11.7 42 42 0 0 0-4.3 10 49 49 0 0 0-1.2 9 38 38 0 0 0 3.7 15.5 43 43 0 0 0 4 6.5 43 43 0 0 0 9.7 8.2c1 .7 2.3 1.4 2.8 1.6q1 .4 1 .9a55 55 0 0 1-1.3 7.3l2.1-3.2a16 16 0 0 1 2.3-3.3l1.7.4a39 39 0 0 0 17.2.3 33 33 0 0 0 10.6-4.4 39 39 0 0 0 10.6-10.2 41 41 0 0 0 5.1-11.8 44 44 0 0 0 .8-9.4c-.1-2-.3-4.3-.5-5.2-.3-1.5-.3-1.5 0-1.9q.7-.3 0-.5c-.5-.2-.7-.6-1.3-2.4a44 44 0 0 0-4.2-8.2 49 49 0 0 0-4.9-5.9 40 40 0 0 0-6.3-4.7 44 44 0 0 0-8.9-3.7 40 40 0 0 0-12.2-1m33.5 2q-.7.5-.7 1.2t.6 1q.5.7 1.3.6t1.2-.4q.5-.4.5-1.3t-.6-1.3-1.2-.5-1.1.6m-62.8-.2-.7.6-.3 1q0 .7.5 1.2t1.4.4 1.2-.4.5-1.2-.4-1.2l-1-.6zm37.3.7a36 36 0 0 1 11.2 3.9l3.6 2.2a44 44 0 0 1 7.6 8 48 48 0 0 1 3.4 6.6l.8 2.2-.6.1c-.5 0-.7-.3-1.3-1.8a44 44 0 0 0-2.9-5.7 35 35 0 0 0-7.5-8 41 41 0 0 0-7.5-4.4 40 40 0 0 0-9-2 24 24 0 0 0-5.1 0 47 47 0 0 0-7.8 1.6 35 35 0 0 0-8.3 4.3 37 37 0 0 0-7 7 41 41 0 0 0-4 7.7 35 35 0 0 0-1.1 17.8 44 44 0 0 0 2.8 8l2.4 3.7a35 35 0 0 0 11.9 10l-.3.5c-.3.4-.4.4-1.9-.4l-3.2-2a39 39 0 0 1-10.3-12 41 41 0 0 1-2.7-7.3 45 45 0 0 1-.7-8.7c0-1.7.2-4 .4-5a33 33 0 0 1 13.1-20.4 42 42 0 0 1 8.9-4.5 44 44 0 0 1 6.6-1.6 64 64 0 0 1 8.5.2m27.2.6q.1.7-.5.6t-.6-.3v-.7q.3-.3.7-.2t.4.6m-63.3-.1q.3.2.2.6-.2.3-.6.3t-.6-.3q0-.4.2-.6l.4-.4zm38.2 2.4a50 50 0 0 1 8 3.1l3.4 2.2a39 39 0 0 1 7 7.4 40 40 0 0 1 3.3 6.7q.1.8-.4.6H152c-.8 0-.9-.1-1.2-1a28 28 0 0 0-21.1-16.5q-.4 0 1.2.5a35 35 0 0 1 5.9 2.1l4.4 2.8a34 34 0 0 1 5.7 6 31 31 0 0 1 3 5.3q.2.6-.5.5t-1.8-.5c-1-.5-1.4-.6-2.2-.5l-1.5.2q-.4.4-1.3-1a25 25 0 0 0-5.8-5.8 25 25 0 0 0-8.8-3.2l1.3.5 3 1a21 21 0 0 1 8.8 6.7q1.4 1.7 1.5 2.4.2.5-.4 1.5c-.6 1-.6 1-3.2 2l-2.8 1q-.4-.2-1.4-1.6a12 12 0 0 0-4.7-3.9l-3.1-.9a10 10 0 0 0-3.4 0q-1.7 0-2.9.6c-.6.2-1.7.7-2.3 1.1a16 16 0 0 0-4.4 5l-.9 2.5-.2 3a12 12 0 0 0 5.2 9.8l1 .8-2.5 6.6c-.4 1-.4 1-1.8.2a24 24 0 0 1-5.4-4.3l-2.9-4.2-1.2-3-.6-1.2a20 20 0 0 0 6 10.7 23 23 0 0 0 5.1 3.7l-.8 2.3-1 2.4c-.2.5-.2.5-1.6-.2a33 33 0 0 1-6-4.2 33 33 0 0 1-5.7-7.3 32 32 0 0 1-2.8-7.4l.6 2.5a33 33 0 0 0 3.6 8.2A35 35 0 0 0 113 255c.6.2.6.2.2 1.2l-.6 1.2a6 6 0 0 1-2-.9 40 40 0 0 1-7.1-5.3 36 36 0 0 1-5.8-8 41 41 0 0 1-2.6-7.4c-.3-1.4-.4-2.8-.4-6 0-3 .1-4.5.4-6a34 34 0 0 1 4.1-10.1 51 51 0 0 1 4.7-5.8 40 40 0 0 1 7-5 35 35 0 0 1 10.5-3.4 61 61 0 0 1 10.5.7m-47.4 1.7q0 .7.3 1l.7 1.6c.5 1.3.5 1.3 0 2.6q-.4 1.3-.7 1.5t-.3 1c0 .8 0 .8.7.8.8 0 .8 0 .8-1.2l.2-1.7q.2-.8.5 0l.3 1.7c0 1.1 0 1.1.8 1.2q.7 0 .9-.2v-.9q0-.5-.3-.7l-.7-1.7c-.6-1.4-.6-1.4 0-2.7q.3-1.2.7-1.3.3 0 .3-.8c0-1 0-1-.8-1s-.8 0-.8 1.1l-.1 1.6q0 .4-.3.5l-.4-.7q-.3-.7-.3-1.6c0-.8 0-.8-.8-.8q-.9-.2-.7.7m43.8.7h.6zm32.5 1.1.2.9c.1 0 .2 1.3.2 2.9s0 2.7-.2 2.8l-.2 1c0 .9 0 .9.9.9s.9 0 .9-.9q0-.7-.3-1s-.2-1.3-.2-2.8q0-2.6.2-3 .3-.1.3-.8c0-.7 0-.8-1-.8-.8 0-.8 0-.8.8m2.2 0 .2.9c.2 0 .2 1.3.2 2.9s0 2.7-.2 2.8l-.2 1c0 .9 0 .9.9.9s.9 0 .9-.9q0-.7-.3-1s-.2-1.3-.2-2.8q0-2.6.2-3 .3-.1.3-.8c0-.7 0-.8-1-.8-.8 0-.8 0-.8.8m-44.9 2.1v.7q0 .3.6.4.3 0 .5-.4v-.7l-.5-.2q-.5 0-.6.2m12.6 0-.1.5q0 .3.3.5.5 0 .7-.2.3-.4.2-.7t-.5-.3zm55.2 1a.1.1 0 0 1-.2 0 .1.1 0 0 1 .2 0m2 5.4a99 99 0 0 1 4.3 22c.3 3 .3 3 .4 1.2a62 62 0 0 0-.6-15.3 111 111 0 0 0-1.8-10.5 49 49 0 0 1 2.1 8.8c.4 2 1 5.2 1.2 7.1.5 3.6.5 3.6.6 74.8 0 40 0 71.2-.2 71.2 0 0-.3-2.5-.4-5.6l-1.3-19.8v2l-.3 5.6-.7 12.6c-.5 9-.5 9-.6-63.2-.1-54.4-.2-72.8-.4-74.6l-1.6-11a97 97 0 0 0-2.2-9.3c.3.6 1 2.4 1.4 4m-124.8-2a101 101 0 0 0-3.4 18c-.2 1.9-.3 20.9-.4 66.2 0 35-.1 62.5-.2 61.3L57.5 300a2187 2187 0 0 1-1.5 56.5 13098 13098 0 0 1 0-126.8l1.5-11.3a75 75 0 0 1 2-7.7l-.6 3a86 86 0 0 0-1.6 21.1q.3 1.7.2 0l.5-4.1a175 175 0 0 1 2.7-14 98 98 0 0 1 3-8.8zm78.5 1.8q-.5.1 0 .6.2.3.6.4.4 0 .4-.6 0-.4-.3-.6zm-34.4.5q0 .5.7.5t.5-.5-.6-.5q-.7-.1-.6.5m59.7 4.2q-.6.5-.6 1.2t.4 1.1 1.2.6 1.4-.4.5-1.3-.5-1.2-1.2-.5-1.2.5m-86.3.2q-.6.6-.5 1.3t.5 1.2 1.3.5 1.2-.5.5-1.2q0-.6-.4-1.1t-1.2-.6q-.9-.2-1.4.4m88.1 1q0 .5-.3.6t-.7-.2-.2-.7.6-.3q.6 0 .6.6m-86.4 0q.2.2.1.6 0 .3-.6.3-.4 0-.6-.3l.2-.7q.2-.4.4-.3zm45.5 1.3q1.2.3 2.3.8a13 13 0 0 1 4.1 3.8q.6.9.1 1l-.5.2q-.3 0-.8-.9t-1.7-1.8l-2.2-1.4a9 9 0 0 0-5.6-.7q-1.5.1-2.7.7l-2 1.4-1.8 1.8a10 10 0 0 0-1.7 4.8q-.1 1.2.1 2.9.3 1.5 1 2.7a11 11 0 0 0 3 3.4q.8.4.4 1c-.3.4-.3.4-1 0a12 12 0 0 1-4.9-8.1l.1-2.4.8-2.8a12 12 0 0 1 5.4-5.8 11 11 0 0 1 4.8-1zm19.6 2.2c1.5.4 2.2.5 4.5.5 1.5 0 2.7 0 2.7.2l-1.5.5-5.4 1.4-18.6 4.7q.1-.2 2.5-1.1l8.2-3.1c3-1.1 3.3-1.3 4.4-2.5l1.4-1.2zm-18.7.6a9 9 0 0 1 3.6 3.3l-1 .6c-1 .3-1 .3-1.8-.5q-.7-.7-1.8-1.3-1-.6-2.6-.5c-1.4 0-1.9 0-3 .6q-1.2.6-1.9 1.4-.7.9-1 1.9-.5.9-.5 2.1t.3 2.3q.4 1 1.3 2c.8 1 .8 1 .6 2q-.3 1-.6 1l-1.3-.9a9 9 0 0 1-2.7-7l.6-2.2q.5-1.3 1.7-2.7l2.1-1.8 1.8-.8 3-.2a6 6 0 0 1 3.2.7m-27.6 1q-.3.4 0 .7.5.3.8.2t.3-.6-.4-.6q-.3 0-.7.3m56.5 1.5a42 42 0 0 1 .2 8.5 44 44 0 0 1-2 8.4 47 47 0 0 1-4.3 7.9 42 42 0 0 1-7.4 7.2 39 39 0 0 1-8.9 4.5 39 39 0 0 1-8.6 1.5 35 35 0 0 1-8.7-.7c-1.5-.4-1.7-.4-1.7-1q0-.6.2-.6l2.4.5c1.7.4 2.7.5 6.3.5s4.5 0 6.4-.5a45 45 0 0 0 8.1-3 35 35 0 0 0 9.5-7.4 47 47 0 0 0 4.9-7.8 36 36 0 0 0 2.4-8.7 38 38 0 0 0 0-10.6l.7-.3zm-79.6 0q0 .7.2.8v.4l-.1 3.8c-.1 3.3-.1 3.3 1.6 3.3s1.8 0 1.8-.5v-1l.2-1.2q.3-1 .5-.2l.3 1.6c0 1.2 0 1.2.7 1.3q.7 0 1-.2v-.9q0-.5-.3-.7l-.7-1.7c-.6-1.4-.6-1.4-.1-2.7q.5-1.2.8-1.3.2 0 .2-.8c0-1 0-1-.7-1-.8 0-.8 0-.8 1.1l-.2 1.6q0 .4-.3.5l-.4-.9-.2-1.5c0-.7 0-.7-.8-.7q-1-.2-.8.7 0 .7.3 1l.8 1.6c.5 1.3.5 1.3 0 2.7q-.6 1.6-1 1.4c-.6 0-.6 0-.7-3q0-2.9.2-2.9t.2-.8c0-.7 0-.7-.9-.7s-.8 0-.8.9m87.9-.3-.1.8q0 .8.3.8c.3 0 .3.4.3 2.7s0 2.8-.3 3q-.3 0-.3 1c0 .8 0 .8 1 .8s1 0 1-.9q0-.8-.3-.9t-.2-2.9.2-2.8.2-.9c0-.9 0-.9-.8-.9q-.9 0-1 .2m2.4 0-.1.8q0 .7.2.8.2 0 .2 2.7 0 2.6-.2 3-.2 0-.2 1c0 .8 0 .8.9.8s.8 0 .8-.9q0-.8-.2-.9t-.2-2.9.2-2.8.2-.9c0-.9 0-.9-.7-.9q-.7 0-.9.2m2.2 0-.1.8q0 .7.2.8.2 0 .2 2.8t-.2 3-.2.8c0 .9 0 .9.9.9s.8 0 .8-.9q0-.8-.2-.9t-.2-2.9.2-2.8.2-.9c0-.9 0-.9-.7-.9q-.7 0-.9.2m-43.5.6q1 .4 1.7 1 .5.7.2.7-.2.2-1.1-.4a4 4 0 0 0-2.3-.7q-1.3-.1-2.3.4t-1.7 1.5c-.5.7-.6 1.2-.7 2.4 0 1.3 0 1.5.6 2.5l.5 1.2-.3.1-.7-.6-1-1.6-.2-1.9a6 6 0 0 1 1.4-3.5q.7-.6 1.7-1.1 1.2-.5 2.1-.6t2.1.6m28.4 1.6a33 33 0 0 1-.1 7.2 42 42 0 0 1-1.7 6.9 35 35 0 0 1-6.5 10.2 35 35 0 0 1-10.7 7.3 46 46 0 0 1-7.3 1.9l-4 .3a35 35 0 0 1-9-1.5q-.1-.3.2-1.2.3-1.2.8-1l2 .5a32 32 0 0 0 18-2 32 32 0 0 0 6.2-4 30 30 0 0 0 8-11.6l1.2-4.4q.5-2.3.5-5c0-1.5 0-3.1-.2-3.6 0-.7 0-.8 1-1.5q.8-.5 1.2-.5zm-3.4 1.8-.1 3.9-.6 3.6A28 28 0 0 1 134 255a23 23 0 0 1-9.2 1.5 24 24 0 0 1-7.6-1q-.1-.2.3-1.4.3-1.4.7-.8l.7.3q.3 0 .5-.4l-.1-.6q-.2-.3-.8-.2c-.5.1-.5.1 0-1l.5-1.1 2 .3c1.3.3 2.5.4 5 .3a19 19 0 0 0 14-5.9c.7-.8 1.9-2 2.4-2.9a24 24 0 0 0 3.2-6.6l.6-3.6c.1-1.8.1-2 .6-2q.6 0 1.4-.4a5 5 0 0 0 1.6-1.4l1-1.3.6-.4q.3 0 .5 1.8m-7.6.8c.8.6.8.6.8 2.2a16 16 0 0 1-1.8 7.1 26 26 0 0 1-4.2 6 32 32 0 0 1-5.5 3.7 22 22 0 0 1-7.8 2 17 17 0 0 1-6.3-.8s.5-1.8 1.3-3.8c1.4-3.6 1.4-3.6 3.6-3.6q2.3 0 3.6-.2l2.6-1c.7-.4 2-1.4 2.8-2.1a11 11 0 0 0 3.5-5.8l.3-2.3c0-1 0-1 .7-1.2l4.8-.8q.7 0 1.6.6m-8.3.9-.1 1.8a14 14 0 0 1-2.7 5.4 11 11 0 0 1-5.4 3.3l-2.8.4-1.7-.2q-.7 0-.4-.6c.1-.5.3-.5 2.4-.6a7 7 0 0 0 3.8-.8q1.6-.6 2.8-2 1.2-1.2 2-2.7.6-1.6.8-2.8 0-1.4.5-1.4l.5-.1zm-2.5 1.2a8 8 0 0 1-4.8 6.4q-1.3.7-3 .8H124q-.5 0 0-1.2c.4-1 .4-1 1.6-1l2.1-.6q1-.5 2-1.4a5 5 0 0 0 1.3-2.3q.4-1.4.9-1.5l.9-.2h.6q.2.1.2 1m-29.2 2.2q0 .2.2.1v-.3q-.2 0-.2.2m-6.6.3a.1.1 0 1 0 .2 0 .1.1 0 0 0-.2 0m50.3 1.6-.2.6q0 .5.6.5t.7-.5-.2-.6l-.5-.1zm-46.8.2-.2.6q0 .3.4.5.4.1.6-.2.4-.4 0-.7-.1-.3-.4-.3zm20.3 3.3h-.2a.1.1 0 0 1 .2 0m45.7.7-.6.7-.2 1.2q.2.6.7 1 .6.5 1 .5.6 0 1.2-.5.6-.3.5-1.3t-.4-1.3q-.4-.5-1.2-.4zm-86.2.3q-.5.2-.7.9-.3.6-.1 1.1 0 .7.6 1a2 2 0 0 0 2.1 0q.3-.1.7-1 .3-.7 0-1.1t-.7-.8-1-.3-.9.2m39.2 2.4-8.6 22.4q-.3.6-.1-.2l.2-2.7c.2-1.8.2-2 .9-2.7q.7-.9 1.5-2.7l4.8-11.6 1.4-3.4.7-1.5zm48.5-.8-.5.4q-.3 0-.6-.5t.2-.8q.3-.5.8.1t.1.8m-86.3-.1q0 .5-.2.6l-.7-.1q-.3-.3-.1-.7t.6-.4.4.6m25 5.2q-.2.2 0 .7.1.3.5.3t.5-.7q0-.5-.3-.6t-.7.3m34.2.2q.1.4.5.5t.6-.2v-.5q0-.3-.6-.3-.6-.1-.5.5m-60.7 0q-.4.2-.4.7 0 .6.3 1c.2.3.6 2 1 3.8q.5 3.3.8 3.2h.3l1.6-7.8c0-.7 0-.8-.8-.8q-1-.1-.8.7l.2.8q.3.2 0 1.8l-.5 1.7-.3-1.4-.2-2.6c0-1 0-1-.4-1.1zm3.8 1q0 .7.3.7c.3 0 .4.4.4 2.6q0 2.4-.3 2.8l-.2.9q0 .6.3.8h.8q.8 0 .7-.9 0-.7-.3-.8-.4 0-.4-2.6c0-2 0-2.6.3-2.8q.3-.3.4-1c0-.5 0-.6-1-.6s-1 0-1 .8m2.2-.2.2.8c.1 0 .2 1.3.2 2.9q0 2.6-.2 2.7-.2 0-.2.8c0 .8 0 .8 1 .7q1 .2.8-.8 0-.8-.2-.9t-.3-2.7.2-2.6.3-.8c0-.7 0-.8-1-.8q-1-.2-.8.7m2.2 0 .2.8a9 9 0 0 1 .2 2.7 9 9 0 0 1-.2 2.8l-.2.9q-.1.8.6.8h1l.2-.8q0-.7-.3-1s-.2-1.2-.2-2.7a9 9 0 0 1 .2-2.7q.3-.2.3-.8c0-.6 0-.7-1-.7q-1-.2-.8.7m71.3 1.2q0 .7.2.9c.1 0 .2 1.3.2 2.9s0 2.8-.2 2.8l-.2 1c0 .9 0 .9.8.9 1 0 1 0 1-.8q0-.8-.3-1.1t-.2-3c0-2.5.1-2.7.5-2.7q.4 0 .6.3l.8 3.8c.3 1.9.7 3.4.9 3.4q.2.2.4-.4l.7-3.8c.3-1.8.7-3.3.8-3.3q.3-.1.3-.9c0-.7 0-.8-.9-.8s-.9 0-.7 1.3l-.1 2.6-.4 1.3-.4-1.6-.1-2.5c0-1 0-1-1.8-1-2 0-2 0-2 .7m-29.5 4v.7q.1.3.5.2.3 0 .4-.6 0-.5-.4-.6-.3 0-.5.3m24.5 7.1-.5 1.1q-.1.7.6 1.4t1.2.6 1-.4q.7-.5.7-1.3t-.5-1.3-1.3-.5-1.2.4m-63.2.3a2 2 0 0 0-.4 1.2q0 .8.3 1.2l1.2.6q1 .1 1.4-.5.6-.5.6-1.3t-.5-1.2a2 2 0 0 0-1.3-.5q-.8 0-1.3.5m65.1.7q.1.4-.1.7-.4.5-.7.2-.4-.2-.5-.5l.3-.5.6-.3zm-63.2.5q0 .4-.3.6-.4.1-.7-.1t-.2-.7.7-.3q.5 0 .5.5m3.8 3 .2 1 1.8 8h.3q.3 0 .9-3.6l1-4.3q.2 0 .2-1c0-.8 0-.8-.8-.8q-1.2-.2-1 .7 0 .7.3 1 .1.2-.2 2.2-.3 2.8-.6.7c-.2-.6-.3-2-.3-2.9 0-1.7 0-1.7-.9-1.7q-1-.2-.9.7m4.7.2q0 .9.3.9c.3 0 .3.4.3 3q0 2.9-.2 3-.2 0-.2 1c0 1 0 1 .9 1s.8 0 .8-1q0-1-.2-1-.2-.1-.2-3 0-3 .2-3t.2-1c0-.8 0-.8-1-.8s-1 0-1 .9m2.4 0q0 .8.3.9c.2 0 .2.7.2 2.9a14 14 0 0 1-.5 4.2c0 .8 0 .8 1 .8s1 0 1-1l-.2-1q-.3 0-.3-3 0-2.9.3-3l.2-.8c0-.9 0-.9-1-.9s-1 0-1 .9m40.4-.3q-.3.3-.2 1l2 8 .7-2.6.6-3.5q.2-1 .5-1.3t.3-.9c0-.6 0-.6-.8-.6s-.9 0-.9 1.8l-.1 2.7-.3.7-.4-1.7-.2-2.7c.1-1 .1-1-.4-1zm-23.9 5 .3 1c.2.2.6 1.9 1 3.8.2 1.9.6 3.5.7 3.6q.2.2.4 0l.7-3.6q.6-3.7 1-3.9.3-.3.3-1 .2-.7-.8-.6c-.9 0-.9 0-.9 1.8v2.6l-.4.8-.4-1.7c-.2-.8-.2-2-.2-2.5.2-1 .2-1-.8-1q-1-.2-.9.7m4.7 0q0 .8.2.8.2.1.2 2.9t-.2 2.8l-.2 1c0 1 0 1 .8 1 1 0 1 0 1-1q0-.9-.3-1t-.3-2.8q0-2.8.3-2.9l.2-.8c0-.7 0-.7-.9-.7q-1-.2-.8.7m-13.8 2.4q-.6.4-.6 1.2t.6 1.3 1.2.5 1.2-.5.6-1.2-.5-1.2-1.2-.6q-.7 0-1.3.5m23 0q-.4.5-.4 1.2t.3 1l.7.6q.6.2 1 .1.7-.1 1-.7.5-.6.5-1 0-.6-.4-1.1-.4-.7-1.5-.6-1 0-1.3.5m1.8.7q.2.4.1.7 0 .3-.7.3-.5 0-.5-.4t.3-.6q.2-.3.4-.3zm-23 .3-.2.7q-.4.4-.8 0-.3-.4-.2-.7 0-.4.6-.4.4 0 .6.4m-39.8 18a694 694 0 0 1 .6 61L74 371s-.3-3-.4-6.5a929 929 0 0 1 .4-79.7c0 .1.3 2.7.4 5.9m100.2.7a758 758 0 0 1-.5 79.7l-.4-7.4a1670 1670 0 0 1-.1-69.6l.6-9.2zm-82.2 11.8a747 747 0 0 1-.4 58q-.2 2.3-.3-.8l-.4-7.6a1089 1089 0 0 1 .4-57.2c.1-2.2.1-2.2.3-.8zm64.5.1a781 781 0 0 1-.5 57.8c-.2 1.3-.2 1.3-.3-1a432 432 0 0 1-.6-32 1037 1037 0 0 1 .6-32.4c.1-2.3.1-2.3.3-1zm-22.2 87.1-45 .8-38.4.9a14307 14307 0 0 1 120 1.6l36.4.5c3.2.1 3.2.1 3.2 9.1s0 9-4.8 9.2l-17.5.2a22250 22250 0 0 0-143.6 2l121.9 1.9c0 .1-28.3.2-66.8.1-67 0-67 0-67-13v-13.1a5926 5926 0 0 1 101.6-.2M44 397.1c-2.5 0-4.5.2-4.6.3l2.3.2a329 329 0 0 0 27.1 0c2.6-.2 2.6-.2 1.1-.3a321 321 0 0 0-25.9-.2m133.1 2c-2 0-3.7.2-3.8.2l2.7.3a311 311 0 0 0 25.6 0c2.9-.2 2.9-.2 1.3-.4a306 306 0 0 0-25.8-.1m-70.1 3.7-9 .2c-2 0-2 0-1.2.3.6.2 6.4.2 18.5.2 10.6 0 18.2 0 19-.2 1.1-.2.1-.2-5.5-.3l-11-.3zm13.1 4c-3.2 0-6.4.2-7 .3q-2.1.2.7.4a351 351 0 0 0 27.4-.3l-5.6-.3-7.4-.2zm-69.3 3-4.2.5a125 125 0 0 0 22 0q1 0-1-.2a189 189 0 0 0-16.8-.2m103.9 11.6-58.1 1-55.6.9 127.6 1.6 45.2.5c3.6.2 3.6.2 3.6 4.9s0 4.7-1.7 4.7l-182 2.4a11529 11529 0 0 0 102.4 1.3c14.5.1 26.5.3 26.5.4H93.4c-69.3 0-69.3 0-69.3-8.4v-8.9c.2-.5.2-.5 65.4-.5 35.8 0 65.1 0 65 .1m4.7 6c-1.7 0-3.1.2-3.2.3s1.9.3 4.4.4a375 375 0 0 0 28.3-.4l-4.7-.3a472 472 0 0 0-24.8 0m-97.4 3.2c-2.6 0-4.8.2-4.9.3l4 .3a600 600 0 0 0 37.3-.4l-16.4-.3zM52 433l-4 .2q-1.5 0-.2.3.8.3 14.4.3c7.7 0 14-.1 14.8-.2q2-.2-.5-.4A321 321 0 0 0 52 433" clip-rule="evenodd"/>
      <g id="pendulum">
        <path id="vTop" fill="color(display-p3 .8471 .5429 .2941)" fill-opacity="1" d="m123.8 298.2-.7-12.4c0-.8 0-.8-1.3-.8s-1.3 0-1.2 1a714 714 0 0 1 1.3 25.4l.5 10.1c.1 2.4.1 2.4 2.3 2.5 2 0 2.1 0 2.2-.4l.2-2.3.9-17.7.8-17.2c0-1.4 0-1.4-1.1-1.4s-1.2 0-1.4 1.7l-.3 6.9-.8 13.2c-.5 7.8-.5 8-.6 5.6z"/>
        <g id="oval">
          <mask id="path-4-inside-1_1323_723" fill="#fff">
            <path fill-rule="evenodd" d="M129.4 324.6q1.5.4 2.8 1a19 19 0 0 1 4.4 2.8l2 2.1a20 20 0 0 1 3.2 5.9c.4 1.3.6 2.3.7 4.2 0 1.3 0 3.1-.2 4l-1 3.4c-.3 1-1 2.5-1.7 3.4s-1.8 2.3-2.8 3.2c-1.4 1.4-2.2 2-4 2.8l-3.7 1.5q-1.4.4-4.3.4t-4.3-.4a24 24 0 0 1-6.1-2.9 20 20 0 0 1-4.8-5.2 20 20 0 0 1-2.3-6l-.3-3a20 20 0 0 1 2.5-9l2.3-3.2a21 21 0 0 1 6.2-4.3l3.1-1c1.5-.3 2.5-.3 4.3-.3 1.4 0 3.1.3 4 .6m2.8 2.4-2.4-1q-1.7-.7-.4-.4.9.1 2.4.8c.8.3 2 1 2.7 1.4a21 21 0 0 1 5.2 5.7c.5.7 1 2.1 1.4 3.1.6 1.7.6 2 .6 5.2 0 3.1 0 3.6-.6 5.2a17 17 0 0 1-7.7 9.5l-3 1.4a22 22 0 0 1-6.9.8 20 20 0 0 1-7-2.1 20 20 0 0 1-6-5.8 19 19 0 0 1-1.8-4.8q-.2-.6.6 1l1.3 2.8a20 20 0 0 0 3.6 4.2 20 20 0 0 0 5.8 3.1l3 .6h3.5l3.4-.8a18 18 0 0 0 6.3-4 19 19 0 0 0 3.7-5.6 20 20 0 0 0 .9-7.5l-.7-3.3a18 18 0 0 0-5.7-8c-.7-.6-1.7-1.2-2.2-1.5m-12.4 1.4c.7-.3 2-.6 2.7-.7a18 18 0 0 1 6 .3 17 17 0 0 1 6 3.4 14 14 0 0 1 3.7 5.8 15 15 0 0 1 .5 7.2l-1 3.2c-.5.8-1.2 2.1-1.8 2.8l-2 2.2a17 17 0 0 1-6.3 3 13 13 0 0 1-5.6 0l-3.5-1.3a14 14 0 0 1-7.1-8.1q-.5-1.4-.6-3.9c0-2 0-2.7.4-4.3a14 14 0 0 1 8.6-9.6" clip-rule="evenodd"/>
            <path fill-rule="evenodd" d="M122.5 327.7a14 14 0 0 0-7.8 4.1 14 14 0 0 0-3.9 10.5q0 2.5.6 3.9a16 16 0 0 0 3.8 5.9 14 14 0 0 0 6.8 3.5l3 .3c.6 0 1.8-.1 2.6-.3a18 18 0 0 0 6.2-3q1.2-1 2.1-2.2a17 17 0 0 0 2.8-6q.3-1.5.2-3.5a15 15 0 0 0-2.2-6.9l-2.1-2.6a16 16 0 0 0-6-3.4 19 19 0 0 0-6.1-.3m11.6 9a11 11 0 0 0-3.3-3.7q-.4-.3.6 1a7 7 0 0 1 2.5 5.6c0 1.8 0 1.8-.3 1l-.6-1.6-1.2-1.6a11 11 0 0 0-3.8-2.8l-2-.4q-1-.1-2.4.2c-.8.2-2 .7-2.5 1q-1.2.8-1.8 1.5c-.4.4-.9 1.3-1.2 1.9-.6 1-.6 1.4-.6 3.3 0 2 0 2.4.6 3.6a11 11 0 0 0 3.7 4l1.9.7q1.7.5-.8.4c-1.6 0-2.1-.2-3.4-.8-.8-.4-1.9-1.2-2.5-1.7l-1-.8q.1.4 1 1.2c.4.6 1.4 1.4 2 1.8s1.7 1 2.3 1.2l2.6.6 2.9-.2c.8-.2 2-.6 2.7-1a13 13 0 0 0 4.6-4.5q.7-1.2 1-2.5c.2-.6.4-1.7.4-2.4a11 11 0 0 0-1.4-5" clip-rule="evenodd"/>
          </mask>
          <path fill-rule="evenodd" stroke="color(display-p3 .8471 .5429 .2941)" stroke-width="2" d="M129.4 324.6q1.5.4 2.8 1a19 19 0 0 1 4.4 2.8l2 2.1a20 20 0 0 1 3.2 5.9c.4 1.3.6 2.3.7 4.2 0 1.3 0 3.1-.2 4l-1 3.4c-.3 1-1 2.5-1.7 3.4s-1.8 2.3-2.8 3.2c-1.4 1.4-2.2 2-4 2.8l-3.7 1.5q-1.4.4-4.3.4t-4.3-.4a24 24 0 0 1-6.1-2.9 20 20 0 0 1-4.8-5.2 20 20 0 0 1-2.3-6l-.3-3a20 20 0 0 1 2.5-9l2.3-3.2a21 21 0 0 1 6.2-4.3l3.1-1c1.5-.3 2.5-.3 4.3-.3 1.4 0 3.1.3 4 .6Zm2.8 2.4-2.4-1q-1.7-.7-.4-.4.9.1 2.4.8c.8.3 2 1 2.7 1.4a21 21 0 0 1 5.2 5.7c.5.7 1 2.1 1.4 3.1.6 1.7.6 2 .6 5.2 0 3.1 0 3.6-.6 5.2a17 17 0 0 1-7.7 9.5l-3 1.4a22 22 0 0 1-6.9.8 20 20 0 0 1-7-2.1 20 20 0 0 1-6-5.8 19 19 0 0 1-1.8-4.8q-.2-.6.6 1l1.3 2.8a20 20 0 0 0 3.6 4.2 20 20 0 0 0 5.8 3.1l3 .6h3.5l3.4-.8a18 18 0 0 0 6.3-4 19 19 0 0 0 3.7-5.6 20 20 0 0 0 .9-7.5l-.7-3.3a18 18 0 0 0-5.7-8c-.7-.6-1.7-1.2-2.2-1.5Zm-12.4 1.4c.7-.3 2-.6 2.7-.7a18 18 0 0 1 6 .3 17 17 0 0 1 6 3.4 14 14 0 0 1 3.7 5.8 15 15 0 0 1 .5 7.2l-1 3.2c-.5.8-1.2 2.1-1.8 2.8l-2 2.2a17 17 0 0 1-6.3 3 13 13 0 0 1-5.6 0l-3.5-1.3a14 14 0 0 1-7.1-8.1q-.5-1.4-.6-3.9c0-2 0-2.7.4-4.3a14 14 0 0 1 8.6-9.6Z" clip-rule="evenodd" mask="url(#path-4-inside-1_1323_723)"/>
          <path fill-rule="evenodd" stroke="color(display-p3 .8471 .5429 .2941)" stroke-width="2" d="M122.5 327.7a14 14 0 0 0-7.8 4.1 14 14 0 0 0-3.9 10.5q0 2.5.6 3.9a16 16 0 0 0 3.8 5.9 14 14 0 0 0 6.8 3.5l3 .3c.6 0 1.8-.1 2.6-.3a18 18 0 0 0 6.2-3q1.2-1 2.1-2.2a17 17 0 0 0 2.8-6q.3-1.5.2-3.5a15 15 0 0 0-2.2-6.9l-2.1-2.6a16 16 0 0 0-6-3.4 19 19 0 0 0-6.1-.3Zm11.6 9a11 11 0 0 0-3.3-3.7q-.4-.3.6 1a7 7 0 0 1 2.5 5.6c0 1.8 0 1.8-.3 1l-.6-1.6-1.2-1.6a11 11 0 0 0-3.8-2.8l-2-.4q-1-.1-2.4.2c-.8.2-2 .7-2.5 1q-1.2.8-1.8 1.5c-.4.4-.9 1.3-1.2 1.9-.6 1-.6 1.4-.6 3.3 0 2 0 2.4.6 3.6a11 11 0 0 0 3.7 4l1.9.7q1.7.5-.8.4c-1.6 0-2.1-.2-3.4-.8-.8-.4-1.9-1.2-2.5-1.7l-1-.8q.1.4 1 1.2c.4.6 1.4 1.4 2 1.8s1.7 1 2.3 1.2l2.6.6 2.9-.2c.8-.2 2-.6 2.7-1a13 13 0 0 0 4.6-4.5q.7-1.2 1-2.5c.2-.6.4-1.7.4-2.4a11 11 0 0 0-1.4-5Z" clip-rule="evenodd" mask="url(#path-4-inside-1_1323_723)"/>
        </g>
      </g>
    </g>
  </g>
</svg>
