<svg width="57" height="52" viewBox="0 0 57 52" fill="none" xmlns="http://www.w3.org/2000/svg">
<ellipse cx="33.215" cy="31.6856" rx="23.1764" ry="19.7813" fill="#101010" style="fill:#101010;fill:color(display-p3 0.0625 0.0625 0.0625);fill-opacity:1;"/>
<path d="M21.5825 18.5234H31.4302V27.9935H34.9995V18.5234H44.8472V44.8496H34.9995V37.2617H31.4302V44.8496H21.5825V18.5234Z" fill="white" style="fill:white;fill-opacity:1;"/>
<rect x="32.3247" y="12.9062" width="1.96209" height="3.83552" fill="white" style="fill:white;fill-opacity:1;"/>
<rect x="55.1494" y="30.8418" width="1.67466" height="4.49382" transform="rotate(90 55.1494 30.8418)" fill="white" style="fill:white;fill-opacity:1;"/>
<rect x="34.1968" y="50.459" width="1.96209" height="3.83552" transform="rotate(-180 34.1968 50.459)" fill="white" style="fill:white;fill-opacity:1;"/>
<rect x="11.2827" y="32.5176" width="1.67466" height="4.49382" transform="rotate(-90 11.2827 32.5176)" fill="white" style="fill:white;fill-opacity:1;"/>
<path d="M7.32528 7.08594L32.936 31.049H33.3779L49.8597 14.5722H50.2038L38.1326 35.2208L26.7478 35.2228L6.85889 7.08594H7.32528Z" fill="#E4982D" style="fill:#E4982D;fill:color(display-p3 0.8942 0.5951 0.1763);fill-opacity:1;"/>
<path d="M2.65708 1.81392L14.2885 11.7052C14.2885 11.7052 11.8323 10.8927 10.8712 11.4365C9.9101 11.9803 10.2992 14.373 10.2992 14.373L2.65708 1.81392Z" fill="#E4982D" style="fill:#E4982D;fill:color(display-p3 0.8942 0.5951 0.1763);fill-opacity:1;"/>
<path d="M54.0779 8.98908L48.6417 19.6692C48.6417 19.6692 48.6973 17.7309 47.9226 17.2596C47.1479 16.7883 45.1221 17.7559 45.1221 17.7559L54.0779 8.98908Z" fill="#E4982D" style="fill:#E4982D;fill:color(display-p3 0.8942 0.5951 0.1763);fill-opacity:1;"/>
</svg>
