<svg xmlns="http://www.w3.org/2000/svg" fill="none" viewBox="0 0 800 398">
  <path id="cardDecorCenterDense" fill="#000" fill-opacity="1" fill-rule="evenodd" d="M345 1c-1 2-1 7-4 7q-3-3-4-7c-3-1-2 14-7 4 0 0-2-4-3-3-2 1 1 7-1 8-4 3-5-5-9-5-1 0 2 6 1 7q-2 3-5 1c0-1-5-6-5-3s4 6 2 8c-4 2-6-3-9-3s3 7 3 8c0 4-14-3-12 1l6 5c4 6-17 0-10 5 3 1 8 2 5 6-1 2-10-2-10 1s6 2 8 4c3 6-10 3-10 5 0 3 9 2 9 4 0 5-9 3-9 6 0 2 8 1 9 2 3 4-6 4-7 6-2 3 7 2 8 2 3 1-6 6-6 7 0 3 7-1 9-1 3 1-5 6-5 7 0 3 10-4 10 2 0 1-7 2-5 5 1 2 10-4 10 1 0 0-6 7-2 7 3 0 5-6 8-3 2 2-2 4-1 7 0 3 8-8 10-1l-2 7c1 2 5-5 6-6 7-3 3 9 5 9 3 1 4-11 9-6 1 1 0 7 2 7l2-4c2-10 6 4 8 4 3 0 0-7 2-8q3-2 5 2c1 0 3 5 4 3 2-2-2-7 0-8 4-3 7 5 10 3 2-1-4-5-2-7 5-4 6 3 10 3 2 0-1-5-1-5-5-8 7-3 8-5 1-3-6-3-2-7q1-3 4 0c10 6-5-9 3-6 10 3-3-5 0-8 1-1 8 3 9 0 0-2-12-5-8-7l7-1c3-2-7-4-7-5 0-3 7-3 8-4 4-2-6-2-8-3q-2-1 0-3l5-2c6-3-10 0-8-5 1-2 7-3 7-6s-9 2-10 1c-4-5 5-4 5-8s-8 2-11 0c-1-3 5-9 3-9-4 0-7 6-10 2-1-2 4-6 3-8-1-3-6 4-8 4-6-2 2-7-1-9-1-2-5 5-6 5-6 1-2-15-7-6 0 1-4 5-5 2 0 0-1-9-3-6m2 1v4c1 9 7-2 8-3l1 4q0 6 4 5l5-5-1 6 3 3q4-1 7-4l-3 6 4 3c2 0 4-4 7-4 1 0-7 11-1 11 1 0 7-5 8-3l-6 6c-2 7 11 2 11 2 0 2-6 3-7 5-3 7 8 3 10 4 1 1-7 3-7 4-5 5 8 4 9 5 0 0-11 2-9 5l5 3c8 1-9 1-5 6 1 2 8 2 8 4l-8-1-2 5 5 3-5-1q-2 1-2 3l4 5-5-2c-2-1-4 3-5 4 0 2 4 3 4 5l-3-1q-3-2-5 1c-3 3 1 4 2 8 1 2-6-4-7-4l-5 3c-1 1 4 6 3 6l-6-4c-4-1-4 5-4 7l1 3-4-6h-6l-1 8c-2-2-1-7-5-7q-4 0-4 5l-1 2-1-3v-4h-6l-4 6c-2 2 2-6 0-7-8-6-9 10-9-2q-1-3-4-3c-3 0-3 4-5 4-3 0 2-6 0-8q-4-2-6 2c-5 4 1-4 1-5 0-6-8-1-10-1l5-5-2-4-7 2 4-5c2-5-6-1-8-1l6-5c1-4-8-3-9-3l6-3v-4q-3-2-7-2c-4 0 8-2 8-6 0-3-6-3-8-3-2-1 7-1 8-2l1-4-8-4c1-1 6 0 7 1q4 0 4-4c0-4-7-3-8-6 0-2 8 1 9 1q3 0 3-4c0-1-7-5-6-6l4 1q5 3 8-1c1-2-4-5-4-7l7 4c6 0 1-7 1-9-1-3 4 5 7 4l3-4-1-5c1-1 4 5 5 5q2 1 4-1l1-7 3 6c5 3 4-6 6-7l1 5q2 3 5 1l3-7zm-10 8-12 3q-14 4-22 15-13 16-10 36 3 18 17 29 13 8 27 9a49 49 0 0 0 51-36q3-21-8-37c-9-12-28-22-43-19m11 1q12 3 22 10 21 16 18 43-3 17-19 29-8 6-18 8c-13 3-29 0-40-8q-14-12-18-30a45 45 0 0 1 28-48q13-6 27-4m-195 2c-3 2 2 4 2 1q0-2-2-1m610 0q-7 2-11 9-4 10 3 17 5 6 11 7 13 0 18-10 3-7 0-14l-8-8q-7-3-13-1m-602 0c-1 3 4 3 4 1q-1-2-4-1m-7 1q-1 1-1-1zm16 0q1 3 3 1 0-3-3-1m602 0q8 2 11 8 3 8-1 15-3 5-9 7-7 2-13-1-8-4-9-12c-1-8 5-17 13-18zm-628 0q0 4 2 0zm19 0q0-3 1-1m174 0q-14 2-23 9-12 9-17 24v20q7 18 22 27 14 7 30 5 9-2 17-7 12-9 17-23 6-19-6-36-8-12-22-17-9-3-18-2m-165 0q1 1-1 1zm593 0-4 2c-2 2 9 11 10 13l9 8c3-1 3-8 3-10q-1-5-3-7-7-7-15-6m-577 1q-1 2 1 3c3 0 2-5-1-3m161 0a44 44 0 0 1 32 26q3 9 3 19a42 42 0 0 1-35 38q-21 3-36-9-10-9-15-22V47a44 44 0 0 1 51-32m-36 1v-1zm460 0q5 1 7 6a14 14 0 0 1 0 14c-1 1-13-13-14-14l-4-5c1-3 9-2 11-1m-583 0c-1 2-2-1-1-1zm141 1a46 46 0 0 0-26 17l4 3 10 5q6 4 7 2 3-5 8-6l3-1 1-10c0-2 1-11-2-11zm8 9c0 11 0 11 2 11 5 0 4-21 0-21-2 0-2 0-2 10m6 1c0 10 0 10 2 11l8 5c3 2 20-7 19-10l-2-4c-7-6-17-13-27-13zM127 17q-1 2-1 0zm210 2c0 4 2 17-3 18l-9 6c-3 3-12-5-16-7-7-4 8-13 13-15q6-3 14-4zm6-1c0 3 1 18-2 18s-3-19 0-19zm-145 0v-1zm152 0q8 2 13 6c2 1 13 8 10 10l-16 9-2-1-7-5c-5-1-3-20-2-20zm-234 1q0 2 2 2 1-3-2-2m90 0q-2 1 1 2c2 0 2-4-1-2m561 9 10 11-8-7-9-10-2-3zm-553-7q0 5 3 2 0-2-3-2m540 2q-3 7 0 12 2 5 7 7 7 3 13 0c6-1-19-22-20-19m-645-1q-1 2 0 0m107 1c1 2-2-2 0-1zm549 9 9 9c0 3-12 1-13 0q-4-2-6-7c-1-1-2-12 0-12zM99 24q-1 2 1 3c3 0 2-4-1-3m124 1c-2 2 3 3 3 1q-1-2-3-1m-122 0-1 1q-1-1 1-1m124 1h-1zM91 28q-2 2 1 3c2 0 1-5-1-3m140 1 2 2c2 0-1-5-2-2m-83 0c-4 1 0 11-2 13-1 1-6 2-7 1-2-3-1-10-4-12-7-4-3 22-11 15-2-2-4-10-8-10l-3 1q-1 2 1 5l1 6-7 4c-2-2-5-11-8-11l-4 2c0 4 4 9 4 13 0 1-5 4-6 3-3-3-8-13-13-7-1 1 2 6 3 7 7 15-13 0-17 3-3 2 6 9 6 12l-6 5c-2-1-9-9-11-7-8 4 7 11 4 15-4 9-13-6-18 2-1 2 10 8 10 10 0 12-17-3-18 5-2 5 9 6 9 10 0 8-9 4-14 4q-3 1-3 4c-1 3 10 4 12 7 0 1-2 7-3 6-2 0-12-2-13 2v3c3 3 9 2 12 5l-1 7c-3 3-10 0-13 2v4l6 2c2 0 12 8 6 9l-11 3c-5 2 3 5 5 5l6 1q3 2 2 5 1 2-5 4l-6 3c-8 3 13 5 14 7q0 6-6 8l-5 3c0 6 11 3 14 2 2-1 4 5 4 6l-4 3c-13 10 2 3 9 6l4 6c-2 2-10 7-9 10 2 8 11-2 15-2 10 0-3 15-3 16 0 8 12-4 14-4l5 4c0 4-7 9-6 12 2 7 10-3 13-5 5-3 7 5 6 9l-3 5q1 4 3 3s16-14 16-5l-2 12q0 2 3 2c3 0 4-9 7-10 13-5 3 15 9 15 5 0 4-11 8-11l4 1c6 1-1 13 4 14 5 0 4-8 7-11 7-7 6 11 9 13 5 2 4-11 6-13h4c5 0 5 17 10 12 2-2 0-9 2-12 5-9 9 8 11 9l3 1 1-3c0-5-1-11 6-11l3 5c1 2 4 8 7 5v-5l-1-7q1-3 5-3c3-1 5 10 8 10 7 0 0-10 1-14l5-2c3 0 5 6 7 8q3 1 5-1c2-2-3-9-4-11-1-1 4-3 4-3q4 1 7 4l4 3c7 0-4-12-3-14l3-2c4-3 10 7 12 5l2-3 3 5c0 5-7 1-10 1q-3 1-3 3 2 4 6 6c2 5-10 3-11 3-4 3 7 7 6 10s-7 1-9 2c-6 5 9 6 7 10-1 3-8 1-9 4-3 4 7 4 8 6 3 3-8 5-8 8 0 6 10 0 11 4 1 3-6 4-7 7-2 7 11 0 12 5 1 3-9 4-6 8 2 4 11-3 11 2l-2 3c-7 9 4 3 8 3 3 0 0 5 0 6q-2 5 2 6c3 0 5-4 8-4s-1 8 1 10 5-2 6-3c8-7 5 6 6 8 4 5 8-4 10-6 4-2 4 7 6 9 3 4 6-6 7-7 5-3 6 5 8 7 4 4 5-6 6-7 3-6 8 7 11 4 2-2-2-7 2-9 3-2 5 2 7 4q2 3 4 0c2-2-2-7 0-9 1-3 6 2 7 2q4 1 5-2c0-2-5-9-1-9l8 3 3-3c0-2-5-4-5-7 0-4 8 0 10 0 6 0-5-9-3-11 2-3 7 1 9 0 5-2-6-8-6-10 1-5 8 0 10-3 3-4-6-5-8-7-2-5 8-3 9-5 4-6-12-2-9-9l3-1q4-1 6-5 0-6-3-2-3 2-7 1c-6-2 5-8 6-8l-1-2q-2-3-7-2c-11 1 6-12 0-12-3 0-14 4-9-2q4-3 2-7c-3-3-7 3-10 3s2-9 2-10c-2-6-10 6-12 1l1-7c0-7-7 2-9 3-4 3-3-8-4-9-3-7-7 9-10 4l-3-8c-3-3-6 6-7 7-5 2-5-5-6-7-4-4-6 8-8 8s-9-11-10-4c0 2 0 7-3 7-2 0-3-5-5-6-7-1-2 11-5 10-3 0-7-5-10-4-6 3-8-11-3-11l4 2c15 6 1-5 1-9l2-5 11 3 2-3c1-3-9-5-9-8l3-6 10 2q4-1 1-4c-2-2-8-5-7-8v-3c1-3 11 2 13-1 4-5-11-6-10-11v-4h11q3-2 2-5c-4-4-12 0-12-7v-3c3-3 9-1 12-4 7-6-12-5-13-6v-3c0-7 11-3 12-9l-1-3-13-1c-7-8 15-10 9-16h-6l-7 1-2-4c0-4 7-7 10-9l-3-4c-3-1-10 5-13 3-6-6 6-9 7-14l-1-4c-3 0-11 7-13 5-6-5 2-9 5-13 2-4-5-3-7-3l-6 4c-10 6 0-11 1-14q0-2-3-3 1-2-5 3l-6 4-4-3c-2-2 4-9 5-11 3-5-6-2-8 0l-6 4-4-3c-3-3 5-9 3-12l-4-2-4 4q-1 4-6 5l-4-2 3-12-4-2-4 5-3 6c-1 1-7-1-7-3l1-10q-1-4-4-3-4 5-5 11h-7l-1-6v-7l-5-2c-2 3 0 11-3 13h-4c-7 1-2-9-5-13-2-3-5 1-6 3v6q-1 4-6 4c-2 0-4-11-5-13zm85 1q0-2 1 0m-81 3q0 9 7 9c3 0 5-17 8-12 3 4-2 13 6 13h5c2-3 0-13 4-13 5 0 1 12 3 15h8l4-10c3-4 3 4 3 4v7q1 3 6 4c5 0 5-13 11-11 3 2-2 11-2 14l5 2c1 0 17-14 13-5l-4 8c0 13 24-9 19 1-2 3-8 8-4 11l3 3c4 0 9-10 13-7 4 4-8 11-6 13s4 6 8 3l9-5 2 4c-3 4-10 8-6 13 4 4 10-3 14-4q3 1 1 3c-1 1-15 15-5 15l11-3q3 1 3 3-6 3-10 8c-4 11 13 3 15 5v2c0 4-8 3-9 6l-2 1c-5 9 16 6 16 10 0 5-12 1-12 9l1 4c2 2 11-1 13 2 3 5-12 4-13 7-1 1-1 7 1 7l11 3v3c-3 3-10-1-13 1-8 9 14 11 11 16h-7c-2 0-12 2-7 6l9 7c1 3-12 0-13 1l-3 6c1 3 10 6 9 8-1 6-9-2-12 0-10 3 6 12 4 15-1 1-7-2-8-2-2-1-10 1-8 4 4 7 9 7 15 10 8 5 2-6 5-8 3-3 5 3 8 4 4 2 3-6 4-8h1l-1 8-5 2-5-5s-1 9-3 10c-3 1-7-4-10-4-2 0 2 7 2 8 0 7-11 0-12 0-2 1 3 7 3 8 0 8-8 2-11 3s5 6 4 8l-2 4h-6l-5-1c1-2 12 3 12-4-1-2-8-4-6-7s7 1 10 1c8 0-3-13 0-13 2-1 12 6 12 1 0-9-9-7-15-11-1-1-5 4-5 5 0 2 4 8 6 8 1 0-17-5-17 2 0 2 8 12 4 12l-4-3q-3-3-7-4-2 0-3 2c-5 3 3 8 2 12-1 5-9-6-10-6-1-1-8 1-7 2 1 2 4 11 2 13-4 3-6-11-10-10l-5 2c-2 2 0 9 0 12q-1 3-3 2c-2-3-3-11-6-11q-4 0-7 2c0 2 1 14-2 12-4-1-3-9-5-12-1-1-6 1-7 2-4 2-1 9-3 12l-3-1c0-2-1-10-4-11h-4c-5 0-4 9-6 12-1 2-4-12-8-12h-4c-2 3-2 11-6 11-6-1-6-18-10-14-2 2-3 12-7 10-2 0 0-10 0-12s-5-3-7-3c-5 0-5 9-9 10-4 0 1-10 1-12 1-2-5-4-7-5-5-2-6 9-10 9-5 0 2-12 2-14l-7-4c-4 0-7 8-11 8s0-7 1-8c2-3 4-11-3-11-4 0-8 6-11 7l-3-2c0-4 8-8 8-12l-5-5c-3 0-10 6-12 5-6-3 5-9 7-12l-4-6c-4-3-10 2-13 2q-4-1-1-3l9-7c1-1-2-7-4-8s-12 4-13 0c-1-2 8-5 9-7 9-7-14-8-14-10-2-4 13-3 12-8q1-4-2-7l-11-1q-2-1-1-4c5-2 13 0 13-7l-1-4c-2-3-13-1-13-5 0-3 10-3 12-3 3 0 4-6 3-8-2-5-14-1-12-9h10c4 0 8-6 5-8-2-2-12-4-11-8 2-4 11 2 15 0 11-6-13-13-6-18 3-3 17 10 17-3 0-3-10-6-10-10 0-5 12 3 14 3 10 0-3-16-3-16 0-7 11 4 13 4l7-6c0-2-9-10-7-11 5-4 9 6 13 6l7-4c0-3-9-14-2-14l4 4 4 5c2 1 8-2 8-4 0-4-4-8-4-13h4l4 6 3 4 8-4c0-3-4-9-2-11 3-5 8 7 9 8 8 7 8-14 10-14 4-1 3 12 6 12l4-1c4 0 6-21 9-10m480 0-1 5-4 3c-3 0-4-7-6-8h-4c-1 3 3 7 2 10-3 7-9-6-11-6-8 0 2 11 1 12l-4 3c-3 0-6-6-9-6-7 0 3 9 3 11 0 5-8 2-10 1-9-4 4 9 4 9 0 7-10 1-13 3-4 4 8 6 8 8v3q1 2-5 2c-2 0-8 1-5 4l5 1c3 1 7 5 3 8l-8 3v2l-9 3-4-5c0-4 9-9 6-13-4-3-11 7-14 5q-3 0-4-4l3-6 2-6c-3-6-12 8-14 8l-5-3c-2-2 3-10 3-13l-3-3c-3 0-6 6-8 8q-3 4-7 0c-5-2 0-10 0-13l-4-2c-3 2-4 9-8 10-5 3-6-4-6-8 0-2-2-12-5-6l-4 10h-8l-1-6-1-6c-2-5-8 15-15 12l-2-5-2-7q-2-3-5-1c-2 3 1 12-2 14l-7 1c-4-1-11-10-10-6v6c0 3-5 4-7 4-4 0-5-9-8-11l-4 2c-1 4 4 9 1 13-6 7-16-11-19-5-1 4 8 10 4 13q-4 5-8 3l-7-5-2-1-3 3 4 5c3 5 3 5 1 8-4 3-9-1-13-2q-3-1-4 2l5 7 2 3c0 2-5 5-7 5q-5-2-11-2c-6 1 6 9 6 10l-3 7c-2 3-8-2-11 0-6 2 6 8 7 9 7 8-17 6-16 12 1 3 10 2 12 5 4 13-15 5-15 13 0 2 5 2 7 2q6 2 5 6l-1 5-5 1-5 1q-2 3 0 4c2 3 9 0 11 2 2 1 3 7 2 8l-4 2-6 2c-3 1-1 6 0 6 6-2 14-1 14 6 0 4-8 4-10 8-3 5 13 1 14 2 2 0 2 5 3 6 1 3-8 5-8 8l1 4c1 1 13-5 13-3l3 6c-1 3-11 8-6 11h2q6-5 12-2 2 1 2 4c-1 2-6 7-6 10 0 6 12-4 14-4l5 5c0 3-5 9-4 12 2 5 12-8 16-6l4 2c1 2-4 10-4 13l4 2 9-10c10 0 3 16 8 16 6 0 4-8 8-10 1-1 6 1 7 1q2-1 2 4-1 5 1 9c4 4 6-10 7-11 6-4 9 5 10 8 3 14 7-7 8-7q7-3 9 4c0 1 5 11 6 5q-1-6 1-10 1-2 2 0c3 2 3 10 7 10 7-1-1-10 2-13l6-3q4 3 1 7-3 8-1 16 0 4-5 7l-22 22c-7 7-7 7-10 7q-5 0-8 3l-5 10-15 19-1 4 3-2q11-9 24-13c4-2 11-5 11-11q2-6 8-9l27-22 5-3 9 2c9 1 23-6 23-16 0-3 7-3 8-2 5 4-7 6-5 9 1 2 8-2 9 1 2 4-6 5-6 8 1 2 7-1 8-1q2 0 3 3 0 2-4 4l-2 4c2 1 7-4 10-4l1 4c-1 2-6 5-5 7 1 3 9-5 11-2 2 2-6 9-3 10 2 1 5-5 8-5 6 0-1 9-1 11 0 1 9-8 11-4 1 2-4 8-2 10 2 1 5-7 7-7 7 0-1 11 3 11l5-5q2-2 4 0c1 2-3 10 0 9 3 0 4-6 6-7 4-1 2 7 3 9 2 2 4-5 5-6 5-4 3 7 5 8 0 0 3-9 7-7l1 8c3 2 4-6 5-7q0-2 3-1 2 3 2 8c3 2 3-9 6-8 2 0 4 10 6 8 2-3-1-10 4-10 3 0 1 8 6 8 3 0-2-7 0-9 5-6 6 6 9 6 2 0 0-8 0-9l3-2c3 0 4 8 7 7 2-1-1-7-1-9l3-2c3 0 4 7 7 6s-3-8-2-9c6-5 6 5 10 4 3-1-3-9-3-10 3-7 11 5 12 2 2-2-4-6-4-9 0-6 8 2 10 2 4 0-4-7-4-8 0-7 10 2 11-1l-2-3c-1-1-7-7-2-7 2-1 9 3 9 1 2-3-7-4-7-7 0-5 11-1 11-4-1-3-8-2-7-6 0-4 8 0 10-2s-8-5-8-6c0-5 6-2 9-4 3-3-6-4-7-4l-1-3c1-2 12-2 9-5-2-1-9 1-8-3 0-4 6-2 8-5 2-1-9-3-9-3-3-4-3-12 1-14 0 0 6-2 5-3-3-2-12 2-12-4 0-1 9-3 7-6-2-2-7 1-9 1l-2-3c1-2 7-4 6-7 0-2-7 2-9 2q-2-1-1-4c1-1 6-4 5-6s-8 3-9 3c-7 0 3-9 3-11s-6 2-7 3c-8 6-1-8-1-9 0-3-12 8-12 2l2-3c0-1 3-7 0-6l-6 5q-3 1-4-2l3-7q0-2-2-1c-3 1-5 9-9 5-1-2 4-9 1-9l-4 3q-1 4-6 2v-6q1-4-2-2c-1 2-2 7-5 7-9-2 2-12 5-15l43-39q3-5 5-3c8 4 27-22 31-27l26-29-12 9-47 34-4 4-1 6-64 51c-3 3-1-2-3-3-3 0-1 7-3 8-6 4-5-8-8-7q-2 3-1 8c-2 5-8-6-8-6-2 0 0 7-2 8-4 2-4-4-7-5-2-1-1 7-2 8-7 5-7-14-7 2l-3 3c-2 1-5-4-7-4-3-1 0 4 0 5 3 4-11 3-14 1-6-5 15-9 14-12l-6-2q-7-2-6-6l1-4c1-1 12-2 12-4l-1-4-9-1q-4-1-3-7c1-5 12-2 12-7q1-4-4-3l-9-1-2-5 4-3c2-2 7-3 6-7l-7-1c-3 0-9-1-7-6 1-4 7-5 9-8q1-3-2-4h-4l3-1h4l2 5-5 6 3 3c3 0 5-5 8-5 4 0 4 6 2 8l-2 4 4 3c3 0 4-7 7-7l5 3q-3 5-1 9c3 3 6-5 7-7l5 1c2 0 2 6 2 8 1 2 7-9 13-8l4 8 3-1c2-2-1-7 1-9q3-2 6-1 1 4 4 7l4-2-2-8 5-4c2 0 6 7 8 6 5-3 0-6-2-10q0-2 4-5c3-1 7 3 10 3q2-1 1-4l-4-3c-12-7 10-6 10-7 4-5-8-4-8-7l1-3c0-3 15-4 10-8-2-2-7 0-9-2-3-3 2-7 4-7l4-2c3-5-8-3-10-4-5-2 4-7 6-9 4-5-5-3-7-2q-4 2-6-2c-1-3 7-6 7-9 0-6-10 2-12 2l-4-3 2-4c1-2 4-8-1-7l-6 6c-7 4-1-13-6-13-2 0-4 5-5 7-4 3-6-2-6-5 1-13-7 4-8 4q-4 1-6-3 2-6-3-7-2-1-2 3m4 1 1 5 4 2c6 0 3-10 8-9q2 1 1 6 1 6 7 4c1-1 4-8 5-7 5 1-1 7 0 10l6 3c2-1 6-8 8-6s-4 8-4 10c0 9 15-3 15 1 0 3-8 7-6 9l4 4c1 0 10-5 10-2l-2 2q-4 3-6 7c0 5 12 2 12 4s-5 3-6 3q-5 3-3 8 4 3 8 2l1 2q1 3-5 2-6 0-6 7c1 4 10 2 9 6-1 3-9-1-11 1l-3 4 5 5c9 5-8 1-9 2q-3 1-4 5c0 3 6 6 4 8s-5-2-6-3q-4-3-8 2c-3 3 4 8-1 10-1 1-4-7-6-7l-6 2c-2 2 2 8-1 9h-2l-3-8h-5c-7 0-2 5-6 9-3 3-2-8-4-9l-6-1c-2 0-2 8-5 8-5 0 2-8-1-11l-5-2q-4 2-6 6-3 2-4-1l2-4q5-4 0-6l-3-3c-1 0-10 9-10 4l5-7q0-3-3-6c-3-2-8 3-10 2s6-7 6-8l-2-6c-4-5-16 10-13 14l2 3h4c2-1 11-5 11 0l-4 4q-4 2-5 6c0 9 13 2 14 7 1 4-10 4-10 8q0 5 4 7c2 1 11-1 11 3s-8 3-11 5l-1 8c1 2 9 2 11 3 8 1-8 5-9 6-2 1-2 6-2 7 0 5 10 3 12 6 2 2-12 3-12 4q-2 3-2 8l2 1q7 3 13 1l2-2-3-5s7 4 9 3l3-2c1-2-2-5-1-7l1 1q2 4 6 4c2-1 2-8 2-8l4 5h4l1-7 4 5c6 4 4-8 6-8l1 3c4 12 8-4 9-4l1 3c2 3 11-7 13-8l54-44v-5l3-3 21-15 40-29c1 4-24 25-27 28l-28 27-5-1-9 8-36 33c-3 3-12 10-10 15 0 1 5 4 6 3l2-4c0-1 3-6 3-3l-1 7c2 7 11-5 11-4 1 1-2 6-2 7l4 3 7-6-3 8 4 2c3 0 5-5 7-5s-3 7-3 8c0 4 6 2 7 1l4-3c3-1-3 7-2 9 2 6 7-2 10-2l-3 3q-3 5 1 8l8-4c3 0-4 5-4 6v3c3 5 8-3 10-1 1 1-5 5-6 7l2 4 9-1c2 0-6 4-7 5q0 3 3 4h8c2 1-7 3-7 4q-1 3 1 5l9 1-8 3c-5 6 10 5 10 7l-8 2q-3 3 0 6l7 1c4 1-7 2-8 3-4 6 8 5 8 7l-8 1q-4 2-1 5l6 3c2 2-7 1-8 2-5 4 6 8 6 8-1 2-7 0-9 1-6 3 4 7 5 9 1 1-8-2-9-1q-4 5 2 8l2 2s-11-5-11 2q1 3 5 5l1 1c0 1-8-4-10-2q-3 5 2 9c1 3-5-2-6-3q-5 0-6 3l4 9c-2 0-4-6-6-6-16 0 11 15-8 5l-4 2c-2 1 1 9 0 9l-2-2c-1-3-6-7-8-3-1 2 3 8 1 9-1 1-4-7-5-7l-5 1h-2c-2 0 5 7 3 9-1 1-4-6-4-7q-4-2-5 2l-2 7-3-7q-2-2-4 0c-2 1-1 6-3 7-1 1-1-6-2-7q-2-2-5 0s-2 8-3 7v-4q-1-5-3-4h-3l-3 7-1-8h-4l-4 6v-7l-4-2-6 7 1-7q-1-3-5-3c-2 0-3 7-5 7-1 0 2-9 1-10l-4-1c-2 1-4 6-6 6-1 0 3-8 2-9l-4-2c-1-1-7 6-7 6-2-2 6-7 3-10l-4-2-6 5c-2 1 3-6 3-7q1-2-2-4c-2-1-8 5-9 4s5-6 5-8l-2-4-9 4s7-5 7-7l-4-4-8 2c-1-1 6-6 6-7 1-6-8-1-10-3l7-4-1-5c-1-1-8 0-9 1l-1 2q-3 11-14 14-8 2-16 0-6-1-10 5l-26 22-5 4-1 6q-4 6-11 7-13 5-25 14c-8 7 14-16 18-26l3-4q3-4 8-3 1 2 7-6l24-23c2-2 7-5 6-8q-3-8 1-17l1-2q-1-4-3-5-6 1-7 5c0 2 2 10 0 11-3 2-5-11-9-11-5 0-1 13-4 13-2 0-3-7-4-8q0-5-5-3h-5c-3 2 0 12-5 12-2 0-2-6-2-7q-1-8-8-6c-6 0-3 11-7 11-5 0 0-12-3-13l-9-1-3 5q-1 5-5 6c-2 0 0-10 0-12q1-2-4-3l-5-2c-2 2-7 11-10 10-3-2 3-10 3-13q-2-3-5-4c-6-3-10 10-14 7-2-1 3-10 3-12 1-5-8-6-11-4-1 1-6 5-7 4-3-3 8-9 4-13l-2-4q-4-2-8 1l-4 2c-4 3 0-5 1-6l3-4c1-2-2-7-4-7l-11 3c-5-6 7-6 7-10l-3-8c-2-1-20 3-12-2q4-2 7-6c7-11-15-4-15-11 0-2 10-4 11-4 3-1 0-9-1-10q-5-2-11-2l-1-2c-1-4 11-1 11-5 0-1 4-5 1-7v-1c-1-3-12-2-12-4 0-5 9-3 12-5 2 0 3-6 2-8 0-3-11-4-11-5 0-6 12-2 15-5q2-4 0-7l-7-5c-5-5 11-2 12-3l3-8-4-3c-1-1-6-8-1-7l10 3q5-1 6-5c3-4-8-8-5-12q4-1 8 2t7-1c5-5-2-8-4-13l3-2 8 6c2 2 10-2 10-5 0-2-8-13-3-13 4 0 7 10 10 10l7-4q2-5-1-12l2-2 4 5 3 6c2 1 9-1 10-3 1-3-3-12 0-13 6-4 5 10 8 12l9-1c3-2-1-12 1-14 6-4 6 10 8 13h9l2-13h2c6 0 1 10 4 13l9 1c3-2 2-14 7-13l1 7q-1 9 6 9c5 0 6-10 9-10 6 0 1 8 1 12 0 2 6 5 8 5l4-4c1-1 6-9 8-5 1 3-5 12-3 14 1 0 5 4 7 3 3-1 8-10 11-8q2 0-1 5l-3 8 5 4q1 1 6-2l5-3q3-1 3 2c0 3-7 6-7 10l5 6 10-3v-3l8-3c2-1 2-6 0-7l-8-3c-4-3 9-2 10-4l-1-5-7-4v-2c3-2 13 4 13-4l-6-6q-2-1-2-3c3-2 8 4 11 3 8-3-5-11-2-13 3-3 7 6 12 3l3-2-5-9 3-2c2 2 5 8 7 8l5-3q1-4-2-9l3-1 4 8c6 6 7-11 9-11q3-1 2 4m-143-3q-1 2 2 3c2-1 0-5-2-3m-328 0c-2 3 0 12-3 13-2 1-8 1-9-2l-3-10c-1-1-2 10-2 12s-6 2-8 2c-5 1-4-10-7-12-1-1-1 7-1 7 1 7 1 7-4 8l-4 1c-3-1-6-12-8-11s2 10 2 12c-1 2-9 5-11 4l-2-4-3-5c-1 0-2-3-3-1-1 3 3 9 3 12 0 2-6 5-8 5l-3-3c-1-1-4-6-6-6s3 11 3 13q-1 3-6 4c-4 3-8-8-12-6-2 0 6 10 5 12l-7 5c-4 0-7-6-11-6-2 0 6 10 6 11 1 1-4 8-5 8l-3-1-6-3s-4-2-4 0l5 5c4 4 4 4 2 8l-3 4c-3 2-9-5-12-3-2 2 9 8 9 10-1 2-2 7-4 7-2 1-12-2-12 0 0 3 8 4 10 7q2 8-7 9h-6q-3 0-2 2l10 4c2 0 1 9 0 10-2 3-9 0-11 3-1 1 5 2 6 3q7 1 4 10c0 4-12 1-12 5 0 2 11 1 13 3l1 9c0 2-11 2-9 6 0 2 8 0 9 0 3 1 5 9 3 11-1 1-8 3-8 6l11-2 5 10c0 2-11 6-9 8s10-5 12-3l5 9c0 3-7 5-7 8 0 2 6-1 6-1q8-3 11 5 0 4-4 7s-3 4-1 4c4 0 7-6 10-6l8 7-3 5-3 5c0 4 9-4 10-5 2-2 10 4 10 6-1 1-5 9-3 9 2 1 5-5 7-6s9 3 10 4c2 2-4 9-2 12 2 2 6-10 8-10q8 0 9 8v6c2 2 4-8 5-9 2-1 10 1 11 3 0 1-1 10 1 10 3 0 2-10 5-9h8c1 1 1 11 4 10l2-8c1-5 10-2 12 3l1 5c2 3 2-8 3-9q3-4 8-3c4 0 3 8 5 11 2 1 2-11 2-12l9-2c2 0 4 11 6 10 3-3-2-9 0-11q3-3 8-3c3 0 5 10 8 10 2 0-3-11-2-12l8-4c1 1 7 9 8 8 3-1-4-9-4-11 0-9 16 1 17 1 2 0-4-8-5-9s6-6 7-6c2 0 6 4 7 3q1-3-2-5c-2-2 3-9 6-8 2 0 8 5 9 4 2-1-5-7-6-9 0-1 4-7 6-7s9 5 10 3c0-3-7-6-7-8q1-4 4-6c2-2 10 2 10 0s-6-4-7-6c-1-1 2-9 4-9s8 2 10 1c1-1-7-5-7-6-2-2 0-9 3-9 1 0 9 2 9-1 0-2-10-2-10-5l1-5c1-7 8-1 11-5 2-1-8-4-9-4-5-1 0-10 4-11l6-2c2-2-10-2-11-3q-2-4-2-9c0-3 11-2 11-5 1-2-6-1-7-1-4-1-9-5-6-10 1-2 8-3 8-6h-10c-2 0-4-7-3-8l5-4 4-4c0-1-12 4-13 2l-3-4c-3-6 7-7 7-12 0-1-11 5-13 4l-4-7 3-4 4-4c2-3-10 3-11 3-2-1-8-5-6-7l6-9c0-2-10 5-12 5q-3-1-5-4l-2-2 2-3 3-5v-3c-2 0-8 9-10 8-1-1-8-4-7-6l2-7c2-7-8 5-9 5l-8-4 3-10c0-2-7 8-8 8q-4 1-9-2c-2-2 2-11 0-12-2 0-4 8-5 10-1 1-8 0-10-1-1-1 0-13-2-13l-2 7q0 5-6 4h-6l-2-12zm301 1c-1 0 0-3 1-1m19 0q-1 2-1-1zm-31 0v1c0 7 4-5 0-1m41 1h-1zM81 33c-2 2 3 3 3 1q-1-2-3-1m86 5 1 7c1 1 11 1 12-1l2-9c3 2-1 9 1 11s11 3 12 1l3-8v10q5 4 11 3l3-5 3-4c2 2-4 9-3 11 7 10 13-4 17-4 1 0-4 9-2 11l9 5 9-8c1 1-5 9-5 10 0 3 6 7 8 7l10-6c0 1-7 8-7 10s6 6 7 7l5-2 6-3c3-1-5 6-7 9-3 4 9 7 9 13l5 7c2 1 10-4 11-2l-3 2c-1 2-6 4-5 7q0 7 8 7h5l-8 5c-6 9 10 9 13 11l-1 1q-6 0-9 4c-2 1 0 7 1 9 1 3 9 1 11 2l-7 3q-5-2-4 6l1 6 9 3c-2 2-8-1-10 1l-2 10c1 2 7 3 9 4h-5q-6-1-6 4l-1 5 7 6-8-1-3 5-3 5 8 6c1 2-7-3-9-1-1 1-6 6-4 8l6 6c-1 1-8-3-9-3-3 0-8 7-6 9l6 7c-1 1-8-4-9-4-5 0-9 6-6 10l2 3-2-1q-3-3-6-2c-1 1-8 7-6 8l4 7c2 3-7-7-10-5-1 0-7 3-7 5l4 9c2 4-6-8-8-7q-6 1-8 6l1 6 2 4c-3 0-5-10-7-10s-10 2-10 4c-1 2 2 9 1 10-2 2-3-6-5-9-4-4-11 3-11 7v5c-3 2-1-10-4-10l-9 1q-4 3-3 8c0 6-1 0-2-3q0-5-7-4l-6 1-1 8c-1 2-2-7-3-8-1-2-7-1-9-1l-3 4c-4 9-1-3-3-5-1-2-10-4-11-2l-4 8-1-5q3-7-5-7l-5-2-5 9c-3 3 3-8 1-11l-5-2-5-3-4 4-4 3 4-9-5-4-5-3c-3 0-7 6-9 8-1 0 6-10 3-13l-7-6c-3 0-6 6-9 6l1-3q3-2 4-7c0-10-12-4-16-4s6-4 6-8l-3-5-3-5c-2-2-9 4-11 3l9-7-5-10c-3-1-10 3-11 1l2-1c2-1 7-3 7-5l-3-9c-1-3-13 1-11-2 2-1 10-2 10-5 0-2 0-8-2-10l-7-2c-9 0 6-2 7-4q4-12-8-13c-6-2 6-2 8-3q2-3 2-7v-4c-1-2-11-3-11-5h9c5 0 6-6 6-9 0-4-13-7-10-8 3 0 10 3 12 0q3-2 3-6c2-4-8-10-8-10l10 3q3-1 5-6l2-3c0-3-9-6-9-9l3 1c2 1 8 5 10 3l4-4c3-5-7-13-6-14s9 6 11 6 8-5 8-7l-5-10 5 3c5 4 5 4 8 3q4-2 5-6c0-1-5-10-4-11s8 8 9 9c2 1 9-4 9-6l-2-6-1-5 1 1 6 9c2 2 8-3 10-3 5 0-2-11-1-13l3 4 3 5q3 3 7 0 5 0 4-7c0-12 2 4 5 5h5l5-1c2-2 1-8 1-10 0-6 3 6 4 8q3 2 7 1l4-1 1-6v-6zm72-5q0 4 3 1 0-3-3-1m217 0c1 3-4-1-1-1zm47 0c-2 1 1 4 3 1q-1-2-3-1M83 34h-1zm158 0c0 2-2-1 0-1zm263-1q2 2 0 2zm-60 1c-2 2 3 5 3 1q-1-2-3-1m189 2-1 6-7 1-3-4v3q-1 4-6 5c-4 2-4-5-7-5-2 0 1 4 1 5q2 4-3 6l-3 1-3-1v3q0 3-2 5c-2 2-7 0-7 1-1 2 3 3 3 5 0 10-11 2-5 9l-1 8c0 2-5 0-5 2l4 1c3 1 1 9-1 11-5 2 2 1 3 3 7 9-5 11 5 11l5 7c1 1-6 5-4 7 1 1 5-5 7-4l6 4c2 2-2 5 0 6l2-1q5-4 9 2c3 2-2 6 0 7q2 0 3-3 2-3 8-1c1 0 2 4 4 4l1-2c0-3 10-4 11-1l3 4v-3q1-5 7-5c2-1 6 4 6 3v-4c0-4 7-7 10-5l3 2-2-6c0-14 12 4 7-9l4-8 4-1c6 0-2-1-2-3l1-8q3 0 5-2l-2-1q-2 0-2-5v-5c1-1 5-1 4-3h-2q-6-1-5-6c-1-2 5-5 4-6l-5 1q-5-1-6-6c0-2 4-4 4-6l-5 2c-2 1-8-4-7-6l2-5c-1-1-4 3-5 3-1 2-6-2-7-4v-5l-2 2c-3 5-10 1-10-3l-1-4-2 4c-1 4-10 4-10 0 0-2-2-6-3-3m-119 0q0-3 1-1m-80 0 1 3c4 0 1-6-1-3m-65 3-8 5c-7 4 13 0 17-4q1-4-2-4zm266 0c0 5 11 5 12 0l1-3v6c1 2 10 4 10 3 1-1 3-5 2-2-1 9 11 4 10 8 0 2 5 7 7 7q3 0 5-2l-4 5c0 1 4 7 6 7l3-1c4-1-3 3-2 5l2 6c1 1 6 0 3 1s-4 10-2 12l4 1q-3 0-4 2-3 4-2 8c0 2 4 3 1 3s-7 6-7 9c0 1 8 5 2 2-3-1-9 4-9 7 0 2 4 5 2 5l-2-2c-4-3-13 4-11 9 1 1-2-3-4-3-3 0-9 1-9 5 0 5-1-1-3-2s-11-1-11 2c-1 4-1-1-3-2q-3-2-8-1l-3 5c-2 2 2-4 1-6l-9-5c-1 0-3 5-3 3l1-4c-13-16-11 6-10-8l-3-4-3-4h-2c-4 2 1-1 1-3-1-3-2-9-6-9q-1-1 2-3 2-6-2-9c-5-2 1-1 2-2q3-6-1-10l4-2 3-6c0-2-5-4-1-4q8-1 6-8h3c3 0 10-4 8-7l-2-4q1 3 4 4c3 2 8-3 8-6 0-4 1 2 3 2 1 1 7 0 8-2 1-1 0-7 1-6zm-331-2-2 3 8 4 9 5q4 1 4-3l-4-2c-2-1-13-9-15-7m132 0-1 1c-1 0 0-3 1-1m-188 0q-2 2 1 3c3 0 1-5-1-3m129 1c2 3-17 11-18 9 0-2 16-12 18-9m145-1c-2 3 3 5 3 2q-1-3-3-2m-211 3 11 6-1 2c-3 0-18-7-18-8 1-5 6-1 8 0m213-1c0 3-3-2-1-1zm-99-1q-1 5 2 2 1-2-2-2m-90 2q-7 2-12 9-3 9 1 17 5 6 13 8 6 2 12-1c9-4 14-15 9-24q-8-13-23-9m10 0q8 2 12 8t1 14-12 11q-7 3-15-2-12-8-7-21 3-6 8-8 7-3 13-2m-89 2q-1 2 2 2 0-3-2-2m113 4-8 5v13l6 3 12 5 2-2 2-12c0-3 0-17-4-17zm165-4-2 1q0-2 2-1m-119 0c-2 1 2 4 2 2q1-2-2-2m-78 1q-7 2-11 9-3 12 8 18 12 3 20-7 3-5 1-11c-2-7-11-11-18-9m43 1q5 14 0 26c-2 4-16-4-18-6-6-5 5-16 8-18l9-4zM66 43l1 2 1-2zm235 1q-6 15 1 29l2 3 1-1 14-8 3-2-1-3-1-7c0-5-17-16-19-11m45 0q6 2 8 9v9c-3 7-13 10-20 7q-10-6-6-18 6-10 18-7m71-1h-1zM67 44q0-1 0 0m240 1c4 2 13 4 12 10l2 8c1 4-11 8-14 10l-3 2-2-3q-3-6-3-14c0-1 0-16 4-15zm31 0q-2 0-2 2l15 15c3 0 3-7 2-9-1-6-9-10-15-8m8 1c7 3 6 16 5 15-2-1-15-14-14-15 1-2 7-1 9 0m196 0c0 2-2-1 0-1zm-135 2q-1 1-1-1zm-75 0c-4 2 11 14 13 16 1 0 4 3 5 1l-2-3c-2-3-13-17-16-14M58 49c-1 2 3 2 3 0q-1-2-3 0m284 8 7 7q-1 2-3 0c-2-2-16-14-14-16 3-1 9 7 10 9m-77-8h-2zm372 0c-4 0-16 0-17 4-2 6 10 13 10 18q0 2-2 1c-5-3-7-15-13-15q-5 1-8 5-10 12-10 28c1 10 23-5 23 4 0 2-15 2-18 2-14 3 17 32 26 32 4 0 4-19 6-22l4 2-3 19c0 6 19-1 21-2 3-1 23-12 16-17l-16-9q-1-2 1-3l17 9c9 3 7-21 6-26-1-4-5-15-10-15-6 0-11 10-16 12q-3 1-2-3 7-5 13-12c5-5-13-11-16-12zM59 49c2 2-2 0 0 0m591 1q8 2 15 8c2 2-10 12-12 14l-3 2 4 3 6-5 10-8c4 0 8 13 9 16 2 6 3 21-3 24-3 2-22-15-22-6 0 6 16 7 19 12l-3 5a42 42 0 0 1-34 13l1-10 2-11q-3-2-6-1c-2 3-1 20-5 20-12 0-25-13-28-23v-5c2-3 21 1 21-4-1-10-19 2-23-2v-6c0-8 7-31 17-28l4 4 9 11q2 1 3-1c2-5-15-17-9-19 8-4 20-5 28-3m-19 1-8 3c-4 3 10 17 14 17l9 1c3 2 3 2 8-3l11-10-4-3q-14-8-30-5m-476 0-30 5Q90 67 66 95c-19 23-28 57-23 87q5 27 22 49a122 122 0 0 0 93 46q34 2 64-15 20-12 36-31 17-22 22-50v-36q-2-13-8-25-11-28-36-45a121 121 0 0 0-81-24m493 1c1 0 17 5 15 8l-13 12c-2 1-9-2-12-2-4 0-18-13-14-16l4-1q9-3 20-1m-320 1c-3 5 2 13 7 15 2 1 10 2 10-1 1-2-14-18-17-14m-155-1a119 119 0 0 1 66 26q21 18 32 41a109 109 0 0 1-9 104 124 124 0 0 1-82 52q-34 4-65-8-30-11-49-36-16-21-22-47l-1-15q-1-12 2-24 3-21 14-38a121 121 0 0 1 114-55m310 0-1 7q-1 9-7 7c-6 0-6-5-8-11-3-7-3 10-4 11l-8 2c-5 0-6-14-9-13v8c0 6 0 6-5 8q-6 3-6 1c-1-2-5-11-7-10s1 9 1 11c0 3-5 5-7 6-4 1-7-9-11-9-2 0 3 10 3 11 0 2-6 6-8 7-3 1-9-10-11-7-2 1 4 9 5 10 1 2-3 6-4 7-4 4-8-4-13-4-3 0 4 8 5 9q2 0-2 5l-3 4c-2 1-13-5-14-2 0 2 8 5 8 8 1 2-4 9-6 9s-9-3-10-1c-1 1 8 6 9 7 1 2-2 9-5 10-1 0-10-1-10 1-1 1 8 3 10 4 3 1 0 9-2 11-1 3-12 1-12 3s9 3 11 4l1 5v6c-2 2-10 0-10 3s8 2 9 3c3 2 3 11 0 12-1 0-9 2-9 4l6 1q9-1 9 9c1 3-8 4-7 7 0 2 8-1 9-1 6 1-6 15-1 18l8-3c4-1 8 8 5 11 0 1-4 4-3 5 1 2 5-1 6-1q5-2 9 5c3 3-6 8-4 10s8-5 10-5l8 6c0 2-5 11-3 11l5-3c3-4 3-4 8-2l5 3c0 2-4 13-2 13l2-2 4-5c5-6 11 2 11 8l1 6c3 0 3-11 6-11l9 2c4 1 1 12 4 12 2 0 2-9 4-10 1-2 10-1 11 1q0 6 2 10c2 2 3-9 4-10l10-1c3 1 2 8 5 8 2 0 0-7 1-8 5-7 8 9 10 9l1-6c0-3 6-14 9-9l3 3q5 0 5-4l5-4c9-5 10 7 10-5 0-2 7-6 8-6 3 0 7 7 9 6q1-3-2-6-2-6 5-10l3-1c2 0 8 5 9 4l-5-10c0-2 4-7 6-7l8 2c1-1-4-6-5-7-2-2 3-7 4-9 2-2 9 3 11 1 1-2-6-6-7-7-2-1 1-9 3-9h14c-1 2-7 1-8 1q-7-2-7 5 0 5 5 7 2 2 5-1 15-14 34-19c3-1 19-4 18-9-1-3-22 3-24 4l-22 11c-2 1-11-5-13-6s1-9 3-9c1-1 9-1 9-3l-7-2q-3 0-2-6l1-6 9-3c3-1-9-3-9-3l-1-9q2-4 7-4s4-1 3-2c-2-2-8-1-10-3q-4-3-3-8c0-2 11-5 10-7h-6q-8 1-9-8c-1-2 5-5 6-6q3-2 1-3c-3-2-8 3-11 1q-6-6-1-11l4-5c0-2-12 3-13 3l-6-8c1-1 7-7 6-9-1-3-9 5-12 3q-5-2-5-5c0-2 5-10 4-11s-5 4-6 4q-6 6-11 0c-3-3 3-12 1-13s-7 6-8 7q-5 3-10-2c-4-3 2-9 0-12-1-2-6 8-8 9l-9-2c-1 0 2-13-1-13-2 0-4 7-4 8q-3 6-10 3h-2c0-1-2-17-4-14m-145 7 6 7c2 3-8 2-10 1q-7-5-5-14c1-3 7 5 9 6m-185-6a125 125 0 0 0-87 45 105 105 0 0 0-3 127 120 120 0 0 0 148 40q26-12 44-34 17-20 22-46 3-12 2-26l-1-14-5-19q-11-26-32-45a120 120 0 0 0-88-28m332 5q0 5 2 9c1 1 10 2 11 1 1-2 3-12 5-12v6c0 5 5 11 10 9l7-9c1 1-1 8-1 9 0 10 14 2 17 0 4-5 2 1 1 3l-1 7 8 5c2 0 11-10 10-7s-6 9-3 11q4 6 11 3l5-2-5 7c-2 3 3 7 5 9 3 3 9-3 13-3l-4 4q-5 6 1 12c3 3 8 0 11 0h1l-8 7q-1 3 2 8c2 3 13-3 13 2l-5 2q-7 4-4 11c2 5 8 2 12 4 3 2-9 2-10 5 0 2-1 8 1 10l9 3c3 1-6 1-8 3q-2 5-2 11c1 2 11 3 7 4q-5 0-8 2l-2 8q2 3 6 4c6 4-3 3-6 3-4 0-5 6-6 9s6 4 8 7h-1l-9-1-6 9 7 8-8-3c-3 0-8 6-7 9l4 7-4-2q-5-3-5-1l-9 9c0 2 5 5 5 8l-4-3-4-3c-2-1-9 5-9 7-1 1 3 5 2 6q-3 0-4-2c-3-3-14 0-14 5q0 4-4 4c-1 0-2-4-4-4q-9 0-9 9v6l-2-5c-1-3-5-8-9-4l-1 7-3-6c-2-2-10-1-12 1l-2 8-2-9c-1-2-11-3-12-1q-3 3-3 7l-1 3c-2-2 1-8-1-11q-5-3-11-2c-5 0-7 17-7 4q0-9-10-10l-8 8c-1-1 3-8 3-10 0-7-11-6-15-3l-3 3 2-7c2-4-4-8-7-9-2-2-9 5-10 4l5-8-2-3q-2-3-6-5l-8 3c-1 0 6-6 5-7 0-3-5-10-7-10l-9 3 4-4c5-4 2-7 0-12s-8 1-11 0c-2-1 6-3 7-6 3-6-3-11-9-11h-5l10-4v-6l-1-6c-2-3-7-1-10-3-3-1 6 0 9-2 14-10-20-15-5-17q9-1 9-13l-10-4c-3-1 7 0 10-1 2 0 4-8 4-10s-5-4-6-4l-3-3 2 1 8 1 3-3q3-4 3-8l-7-7 11 3c2 0 7-7 7-9 0-3-6-6-6-9l8 4c3 2 11-3 10-8l-6-9c1-1 9 6 10 7 3 1 9-5 10-7 2-3-5-10-3-11 0 0 7 9 9 9l9-4c2-2-1-10-2-13l6 8c0 4 8 1 10 0 3-1 3-1 3-8v-7l3 6q4 9 14 5l2-13 1 3q1 12 13 10c4-2 2-18 4-14zm-215-4c-2 3 4 3 2 0zm-92 1a122 122 0 0 1 77 42q17 20 21 44 3 14 2 26 0 10-2 19-4 20-16 37a121 121 0 0 1-123 49 117 117 0 0 1-90-86q-2-12-2-25 1-35 22-62a126 126 0 0 1 84-45zm93 0c0 2-2-1 0-1zm287 0q-1 3 2 2 3-3-2-2M53 55l-2 1q0-2 2-1m103 0q-16 1-31 6-34 11-56 39a100 100 0 0 0-21 78q7 40 37 67a115 115 0 0 0 94 26 118 118 0 0 0 84-59 104 104 0 0 0-28-132c-21-18-51-26-79-25m404 1c0 2-2-1 0-1zm-387 1q25 2 47 14c22 11 41 33 50 57a105 105 0 0 1-8 85q-20 35-57 50c-34 13-75 10-106-9a107 107 0 0 1-49-74l-1-19q-1 9 2 6c5-5 13-3 20-3s50 4 50-2c0-10-56-2-66-5-17-6 4-42 9-49q11-15 24-26 17-15 39-21 23-7 46-4m-13 0-2 1 1 2c2 2 2 2 1 16 0 7-3 48 3 48 10 0-1-54 7-63l1-3c0-2-9-1-11-1m-12 1-26 6-24 12q-4 2-6 5c-2 9 15 20 19 25 4 3 22 28 29 24q8-5 16-6c3 0 3 0 3-9V85c0-6 4-21-3-26q-3-2-8-1m22 0q1 2-2 3l-1 6c0 7 1 56-4 56s-2-38-2-43V61l-2-2zm3 1c-5 2-5 11-5 16v49l5 2c6 2 13 8 18 3 3-2 43-42 44-41s-42 41-44 43-2 7 1 6l2-1 40-37q4-4 10-6c5 0-5-9-8-9l-1 3c-1 1-1-4-1-6l-5-3q-22-15-48-19-4-2-8 0m-18 0c10 4 4 26 3 35v29l-4 1q-7 1-13 5l-3 1-5-4-21-20c-2-3-25-20-18-26l4-3q23-15 49-18zm29 1q24 4 45 18l4 4c5 14-33 37-42 46l-3 3-3-1-14-6-2-1V69q0-6 5-10zm426 3-6 7c-1 2-9 20-5 21l10-1 9-1q3-2 2-4l4-8 2-3-4-6c-1-2-5-9-7-9q-2 0-5 4m-334-3q0 4 2 3 1-5-2-3m345 8 4 6-1 3-5 9c-1 4-8 3-11 3l-8 1v-3q0-9 5-17c1-2 8-12 11-9zm-344-7q1 2-1 1zm290 1q0 3 3 1-1-3-3-1M46 62l-1-1zm523 0c-1 0 0-3 1-1m-211 4c-2 5 20 16 20 9 0-2-9-5-10-6l-9-4zm10 4 9 5-1 2-5-2-13-7 1-2zm299-2c-4 3-14 9-12 13q2 1 2 7v6l7 3c1 1 11 8 12 6 7-9 2-28-4-35l-2-2zm5 1q10 15 4 32l-1 1-3-1-9-5q-6-3-5-5 0-6-2-10c-2-4 8-10 11-12l3-2zm-354 0-14 8q0 2 3 3l9-5 9-5q1-2-2-3zM40 69c0 2-3-1-1-1zm284 0c1 1-15 10-18 10l-1-2c3-2 17-12 19-8m31 2-8 4c-2 0-2 0-2 10l1 11h4l12-4c3-2 14-8 13-13l-7-4c-3-1-10-6-13-4m-35 4-12 6 3 5q10 10 25 11c4 0 3-20-1-22l-8-3zm39-3 13 6c6 4-9 12-11 14-2 0-14 6-15 3s-1-19 2-19c4-2 6-6 11-4m-30 1 5 3c3 1 3 1 3 11v9h-3q-12-2-22-9l-3-5 3-2 15-8zm304 0q-6 2-10 8-3 7-1 13 4 7 10 9 6 3 12 0 7-2 11-9 2-5 0-12c-4-7-14-12-22-9m11 1q8 3 11 11 2 4-1 9-3 6-10 9-12 3-19-6-5-6-2-13 2-8 11-11zM31 74q0 3 2 2c3 0-1-4-2-2m310 2c-4 3-3 21 1 21 6 0 2-23-1-21m2 11-1 9c-4 0-2-12-2-15 0 0 1-6 3-4zm293-10q-6 1-9 7-1 4 1 9 3 6 10 6c8 0 15-7 12-15q-5-7-14-7m7 2 6 5v8q-3 6-10 6c-7 1-14-6-11-13q2-6 7-7 4-1 8 1m-8 1q-7 3-6 10c0 4 14-7 12-10zm6 0c0 1-9 11-11 10v-5c1-2 8-7 11-5m-171 1a99 99 0 0 0-75 40c-1 1-4-3-5-1-2 3 3 4 1 6a92 92 0 0 0 24 121 101 101 0 0 0 123-1q22-17 32-43 5-15 6-30a90 90 0 0 0-21-57q-12-15-31-25-26-12-54-10M88 83l-8 7 5 2c9 4 16 14 22 20l25 24 2-2c6-5-38-38-42-47l-1-6zm399-1q19 2 36 9c24 11 42 35 49 60q5 16 2 34-2 13-8 26-10 20-29 35a99 99 0 0 1-124-1q-20-18-29-43a92 92 0 0 1 9-77l-3-4c0-2 4 1 5 1l2-2c19-29 57-41 90-38M90 84c0 12 50 44 44 50-5 4-40-38-49-43l-4-1 5-4 4-4zm552 0c-1 1-13 9-11 11s8-5 9-6l6-5c2-3-3-1-4 0m-175-1q-21 2-39 11-15 9-28 24-3 3-3 5l2 2 43 25 3 1 4-3 6-4c3-2 15-5 15-8l-3-44v-4l3 38 1 11h6l1-7-3-46c0-2-7-1-8-1m9 0q0 25 3 50v4l4 1q8 1 14 5c5 2 5 2 25-13 11-8 22-15 23-17 9-7-23-21-28-23l-24-6zm170 0-4 4-10 7c-4 2 7-8 12-11zm-171 7 2 38v8c-4 3-5-2-6-4l-2-39-2-9-1 8 2 35 1 10-4 1q-9 3-16 10l-4 2-8-4-34-20-5-3c-2-1 4-7 5-8q10-11 24-19 22-12 46-12zm17-5q15 1 28 7c2 1 29 16 27 19l-7 5-38 27q0 2-5-1c-3-2-17-4-17-8l-2-36-1-14h5zm-250 4 3 3-2 1-7 3q-22 19-42 39h-3c-2-2-2-2 15-17l22-21q6-5 8-11c1-3 5 2 6 3m402 0-6 4q-3 2-2 4 6 1 10-3c0-1 6-8 2-8zm4-1c0 5-12 9-12 8l2-2c1 0 10-9 10-6M21 89q-1 4 2 3 2-3-2-3m2 2h-2q1-2 2 0m55 2-3 3a99 99 0 0 0-24 47q-2 8 3 13l13 1h33c21 0 21 0 22-2q1-8 7-15l2-3-20-20c-3-3-24-30-33-24m7 1c10 5 18 17 26 24l19 20-2 3q-5 7-8 15h-15l-50-1c-5-2-3-10-3-14a99 99 0 0 1 27-48q3-1 6 1m156 1-8 6-38 36c-3 2 5 13 6 16l2 6h18c8 0 49 7 53-4 4-14-16-68-33-60m519 4-33 23-6 5c-2 3 4 6 6 7q5-1 8-6 16-15 30-31s3-3 1-3zm-513-3c11 5 36 51 24 61l-6 2-62-1-1-5-6-12-2-3c12-8 38-50 53-42m517 1-35 36c-2 1-7-2-7-5l2-2 29-22zm-149 0c-3 0-14-1-15 3-2 5 7 14 10 16 2 2 15 12 18 9l1-4c2-10 5-21-8-24zM17 98c-2 2 2 4 2 2q0-3-2-2m607 3 7 4-1 8-2 9c-1 7-16-5-18-7-1-1-12-13-9-16h5c6-1 13-3 18 2M18 99h-1zm631 3c-2 2-8 2-9 5s-4 19-1 20h5q16-2 26-14l1-3-9-5-9-5zm13 4 8 4-2 3q-10 12-26 13c-5 0-4-19 1-20l7-4 3-1zm-74-4q3 3 2 6c-1 3-7 10-8 10-4 1-8-4-4-7 2-3 6-12 10-9m-283 4v3c2 2 3-4 0-3m1 1q-1 2-1 0zm240 7-33 24-9 7c-2 1 3 8 5 8l2-2c5-3 44-32 43-34q-2-3-5-4zm5 2 2 2-43 33q0 2-4-2l-2-3 2-2 42-30q2-1 3 2M9 115q-1 2 2 3 1-4-2-3m301 1h-1zm31 1c0 2-2-1 0-1zm210 5q-20 14-39 31c-3 2 2 9 3 12l1 11c0 7 0 7 12 13l37 17c3 0 4-8 5-10q6-20 2-41a103 103 0 0 0-17-36zm6 1q11 16 14 33a77 77 0 0 1-6 49l-5-1-30-15c-14-7-14-7-14-14q1-8-3-17l-1-4 6-6 37-28zM7 123q-2 3 1 3 2-3-1-3m306 2c0 2-3-1-1-1zm-155 0q-26 4-35 28v19q6 18 23 25 13 4 26 1 18-5 25-20a35 35 0 0 0-4-38q-13-16-35-15m180 1q0 2-1 1 0-2 1-1m56 1q-4 3-4 8l8 4 37 15c-3-2-38-32-41-27m-223 0 12 5q9 6 13 15 8 16 0 32-8 14-23 18-16 4-29-2-15-7-20-23v-18q4-13 14-21 15-10 33-6m237 8 26 20-29-14-13-7c-2-1 1-6 2-7 2-2 12 7 14 8m372-7q-8 1-12 8-3 8-2 17v57l1 49c3 6 10 11 10 18l2 29c1 2 2 11 6 7l1-5 3-32c1-6 8-11 10-17l1-57-2-67q-3-4-8-6zm8 1q6 2 10 8l1 38v60c0 23 0 23-2 26q-5 6-8 14-3 16-4 33c0 2 0 6-3 4-2-1-2-6-2-7l-2-26-1-6-9-14-1-60 1-59q2-8 10-11zm-9 1q-6 3-10 8l-1 30v58c0 9-3 25 2 34q6 8 9 15l2 31 1 5c2 3 2-4 2-4l3-29q2-7 7-13c4-7 4-7 4-63l-1-65q-7-10-18-7m10 1q6 2 8 8v60c1 58 1 58-4 65q-5 6-6 13l-3 28-1 5-1-5-2-29q-3-9-9-16c-2-3-2-3-2-14l1-108q2-4 7-6 6-3 12-1m-502 3-1-2zm-134-2q-18 5-24 24c-2 11 3 24 12 30a34 34 0 0 0 50-10q5-9 2-22-4-14-19-20-11-5-21-2m160 0q0 3 2 3 2-3-2-3m-143 1a30 30 0 0 1 23 36q-6 17-22 22-17 4-30-5c-9-7-14-21-11-32l7-11q7-6 16-10zM5 134v-1zm310 0c0 2-3-2-1-1zm-160 0q-16 4-23 19-3 11 1 21 7 12 21 17 15 3 26-6 12-8 13-22a30 30 0 0 0-19-27q-8-5-19-2m15 1q9 3 17 11 7 10 4 22a32 32 0 0 1-48 17q-7-6-10-14-3-9 0-18 8-16 24-19zm218 2-6 18a93 93 0 0 0 10 63l3 4c3 2 9-5 11-6l34-25v-5q-4-11 0-23l1-3-11-5-31-15c-3-1-9-7-11-3m-52-1q-1 1-1-1zm446 0-7 5q-2 8 5 12c7 3 15-4 12-11q-3-7-10-6m-390 1q18 11 37 19l9 3c2 1-1 23 1 27l1 4-42 31c-7 3-14-26-15-30q-3-15-1-31 2-12 7-22v-2zm323 0-68 57-92 80-5 5c-1 3-8-2-10-3q-8-1-14 2-14 9-9 23l1 4-5 4-32 31c-2 4 10-1 13-4l28-23c4-4 7 0 11 1l12-2q7-3 10-11l1-14 4-4q46-45 95-87l60-56c2-2 3-6 0-3m72 0q5 4 4 10c-2 7-12 7-15 1v-7q4-6 11-4m-6 1q-5 2-5 8 4 7 11 5 6-5 1-11-3-2-7-2m-311 1q-12 2-20 11l-3 3 6 4c3 2 12 10 16 7q4-2 8-1 7 1 10 6 5 12-5 17c-15 7-17-11-25-17l-13-8c-7-3-4 24-2 28 8 15 26 23 42 20q19-5 28-22 4-10 2-22-3-11-13-19-14-10-31-7m244 1q-43 41-88 81l-61 56-9 9c-4 5 0 12-4 18q-5 8-14 9-7 1-12-3c-3-2-29 23-33 26-8 7-8 7-10 5l-1-1 7-7 22-21c4-4 9-5 7-11q-3-5-1-11 5-13 18-14c3 0 17 7 15 4l2-3q54-48 109-94l43-35zm-296-1 4 4 11 7c0 1 9 9 10 5 1-2-9-7-11-8zm369 1q3 2 2 5-1 7-8 5c-4-2-5-9-1-11zm-306 0q11 1 18 6 11 8 14 20c2 8 0 19-4 25q-8 13-22 16a39 39 0 0 1-38-10c-8-8-13-24-7-35 1-2 19 10 20 13q1 8 8 11 7 4 12 1t6-7q5-11-7-17c-6-3-11 3-18-1l-10-6c-10-6 8-14 14-15q6-3 14-1m-50 7 11 8-22-15zM2 142l1 2q2 1 2-1-1-3-3-1m313 0q0 3 2 1 1-3-2-1M4 143q0 2-1-1zm312 0c1 1-2-1 0-1zm16 1c-1 2 3 3 3 1q-2-3-3-1m2 1c-2 1 1-3 1 0m-177 6q-4 2-7 6v10c2 8 15 10 21 5 4-3 6-11 3-15q-6-10-17-6m160 0c-2 0 0-3 0-1M2 152v-1zm166 0q5 2 6 7 1 6-3 12c-5 5-18 4-21-4l1-9q2-4 7-7 5-1 10 1m-9 0q-5 2-8 7c0 2-1 10 3 10l4-3 10-12c0-2-7-2-9-2m6 1 2 1c1 1-9 10-10 12l-3 2-1-1q-2-6 1-11 5-4 11-3m166 1c-2 4 5 0 2-1zm2 1c0 2-3-1-1-1zm-278 3 14 1c7 0 51-2 51 3 0 2 0 2-12 2l-32-1c-7 0-19-3-25 2-1 2-2-12 1-9zm114-2-12 12c-4 6 8 5 11 4q6-3 5-10c0-2-1-9-4-6m275 0c-2 4 5 6 7 8l12 5q2-1-1-3c-2-1-17-13-18-10m-273 1c2 4 2 11-3 13q-5 4-11 1c-1-1 11-13 12-14q1-2 2 0m276 0c2 1 17 9 16 11s-19-8-19-11zm-174 1c-7 7-28 3-36 3l-33-1c-3 0-3 6 1 6l53 1 11 1c2 1 4 4 5 1l1-9q-1-4-2-2m0 10c0 3-10-2-14-2-6 0-56 3-56-3 0-4 47-1 54-1 4 0 12 1 16-3zM0 159q0 4 3 2 0-2-3-2m316 0q-1 2 1 3c3-1 0-4-1-3M2 161v-1zm328 2c-2 2 3 4 3 1q-1-2-3-1m2 1h-1zm-277 1c-18 7 8 59 20 65q7 3 11-3l41-38c5-5-6-15-6-21v-2zm31 1c4 0 34-2 34 2q2 9 6 15l2 4-36 34c-4 3-10 11-17 9l-6-7q-15-21-18-48-2-7 5-9zm116 2-1 5-6 12-2 3 12 13 28 26q4 5 6 5c7 4 13-6 17-11q13-20 17-42v-5q0-3-4-5l-10-1zm11 0 30 1c7 0 22-3 28 2q3 7 0 14-4 19-16 35c-3 5-9 15-16 11q-2 0-9-8l-22-21c-14-14-14-14-13-17l4-6c1-3 3-12 6-11zM1 168q-1 3 1 4c2 0 1-6-1-4m473 0-4 3c-2 3 0 9 4 10q4 1 8-2 3-4 0-8-3-3-8-3m-158 1c-2 2 2 4 2 1q0-2-2-1m163 1q5 3 3 8c-1 2-8 3-10 1q-4-3-1-8 4-3 8-1m-149 3q-1 3 1 2c2-1-1-4-1-2M3 179q-1 1-1-1zm312 0c-3 3 4 3 2 0zm2 1c0 2-3-1-1-1zm198 4c-1 1-4 6-3 7l5 3q18 10 38 18 4 3 8 1l3-6q-23-8-44-20zm19 10 29 13c3 1 1 6-2 6l-5-2-37-16-6-3c-1-1 1-7 2-7zM2 186q1 4 3 2-1-2-3-2m2 1H3zm310 1q0 3 2 2 0-3-2-2m-193 8-31 29-8 6-6 2 4 4c0 1 5 7 6 5l1-2c0-5 6-8 9-11l29-28 9-9-4-4zm195-7c0 2-3-1-1-1zm-126 1-3 2 22 23c7 6 24 17 25 27v2l3-2 8-7-3-1c-8-1-14-10-19-15l-31-30zm473 0c-1 2 3 1 2-1zm-531 0 1 1-8 9-30 28c-3 3-9 7-9 12s-10-7-7-7c13-2 46-49 53-43m533 0q-1 0 0 0m-469 4 29 28 13 12 5 1c0 2-8 9-8 6-2-8-48-48-45-50l2-1zm243-2-36 28-6 5 4 5 46-33-5-6zm205 1q-4 5-10 6a84 84 0 0 0-43 22c-2 0-7-5-7-6q0-4 3-6c2 1 12 2 12 0 0-3 7-5 9-6q13-6 28-10c1 0 11-3 8 0m-201 0 2 3c2 3-36 27-40 30q-4 4-7 0-2-1 6-6l35-26q2-4 4-1m215 2-2 3c16 3 30 5 44 15 1 1 6 3 6 6l-2 3-27 23-6 6 4 4 3-1 30-28c10-9 20 26 22 32v15q1 11-2 21l-1 3q0 2-6-1l-36-16c-6-2-8 4-4 6l35 14q4 1 7 4 1 2-1 5c-8 16-25 29-42 35q-4 3-8 1l-2-4q-5-14-6-30c-1-2-1-8-3-10-1-1-7 0-7 2l9 35q2 4 1 8c0 4-7 3-9 3l-21-2q-18-4-33-15-4-1-5-6 2-5 8-8l21-19c7-6 7-6 5-8-8-7-30 25-38 29q-2 1-5-2-10-12-12-28c-1-4 1-21-5-16q-4 4-4 8 2 20 13 37 17 23 44 33 30 9 60-1 28-11 45-37a79 79 0 0 0 5-69q-9-22-27-36-21-15-44-17zm-527 2-37 35c-3 3-10 9-5 14l6 4q17 11 38 17c5 1 14 4 18 1q6-4 4-13l2-46v-8l-5-1q-8-2-16-7zm378-2q-8 9-20 14l-3 1 1 17 1 35c2 12 46-15 51-19a110 110 0 0 0 22-27l-2-1-38-17-10-5zm157-2a85 85 0 0 1 68 56q6 20 2 41c-6 27-26 49-52 59a89 89 0 0 1-106-33q-8-14-11-31c-2-14 5-7 7 5q2 13 10 25c1 2 4 7 7 6l4-2 31-28q3-1 4 1c1 2-22 21-25 24-3 2-12 7-10 12l3 3q12 9 25 14 17 6 35 5 4 0 7-3 1-3-1-8l-7-27-2-9 6-2 3 14 4 20c1 3 1 12 6 12l4-1q28-9 43-34l3-7q-1-3-4-4c-7-4-42-10-40-20 2-4 35 13 40 15l6 2c9 0 6-37 4-42q-4-16-13-28l-6-5-3 2-24 22c-3 3-8 10-11 5-3-3 25-24 31-29l3-4c0-3-5-5-7-7a86 86 0 0 0-43-14l2-3 2-2zm-334 1c1 2-3-1-1-1zm-194 1q7 4 16 6c6 2 1 44 1 51 0 4 1 14-5 16h-5a111 111 0 0 1-56-23c-5-5 7-14 10-17 5-5 31-37 39-33m44 0q-7 5-13 5c-6 0-8 60-2 67q6 4 15 1 23-3 42-16 6-3 9-9 0-3-3-7l-44-42zm338 3 38 17c7 4-18 26-21 29a100 100 0 0 1-46 20c-5 0-4-45-4-50q1-6 8-7 8-4 14-11l2-2zm165-3 1 2c2 0 1-4-1-2M4 195q-2 2 1 3c3 0 0-5-1-3m194 11 33 33q3 5-2 9a101 101 0 0 1-60 20c-6-5-3-15-3-21s-3-45 3-46l14-5 3-1zM5 196v1zm308 0q-2 3 1 3 1-3-1-3m1 2c0 2-2-1 0-1zm380 1q0 3 2 1 0-3-2-1m-260 9-30 21-2 2 2 3q8 9 18 16 21 14 43 15c2 0 15 2 15 0l-1-8-2-41-1-5-4-1q-11-2-20-8l-5-3zm19-5q8 7 19 8l3 1 1 5 2 34c0 5 4 14-3 14q-28 0-53-16l-19-18 2-2 30-20 13-9zm200-3-10 9-2 3q-1 2-5 2c-1 1-1 1 1 8l5 22q3 2 6 1c3-1-6-28-7-30 0-3 4 10 5 13 1 5 2 17 8 17 8 1 14 8 20 2l24-22c1-1 8-5 7-7l-4-3q-20-14-44-15zm-23 1q-16 5-30 15l-8 8c-1 2-22-1-16 8 1 1 8 10 5 10-1 0-7-4-7-2l-3 3 2-4q-1-2-4 1l-3 5 3 4 3 7 3-1 20-18 7-7 3-3 2-1q15-10 26-22 3-2 2-4zm33 0a92 92 0 0 1 41 18l-5 4-24 22-5 4-4-1c-6-4-14-1-16-9l-7-25c-2-5 7-11 10-13zm-505 1-3 63-3 5c2 1 16 1 14-2-4-7-2-16-2-23l1-42c1-4-7-3-7-1m476-1-4 5q-11 11-23 19l-4 3-4 5-24 21q-3 1-4-3l-4-7 5-5-2 3c1 4 5-2 5-2l7 3 1-4c0-2-5-5-7-8q0-4 5-6l6 1h5l1-2 7-7a92 92 0 0 1 34-16m-470 4-1 47q-1 9 3 16c0 1-13 3-11 0 7-11-3-67 7-67q3-1 2 4m169-2h-1zM6 204q-1 3 1 3c2 0 1-4-1-3m2 2c0 2-2-2-1-1zm304 1c0 3-3-1-1-1zm167 4c-8 1 2 44 2 54 0 1 6 2 6-1l-1-36-2-17zm-145 1 1 3c3-1 1-6-1-3m150 1 1 11 1 37q1 5-2 4c-5 0-3-10-3-14l-3-35v-4q3-2 6 1m157 2q2 12 6 23l1 6c-3 5-6-5-7-6l-4-19v-4l3-2zM9 213q-1 2 1 3c2 0 1-5-1-3m1 2q-2 0 0-1zm299 2c-2 1-2-3 0-1zm318 6-27 25 2 1 13 6c11 4 11 4 12 3q5-6 12-10l3-2-2-6-6-24zm8 1 6 22-2 1q-8 4-12 10c-1 1-1 1-8-2l-18-7 33-30zm-297-3q-2 2 1 3c2-1 0-5-1-3m1 1c-1-2 1 2 0 0m-327 0-1 1c0 6 5-4 1-1m293 3q1 1-1 1zm394 11-23 20c-1 1 4 9 4 10l1 6v5l45 19q3-2 2-5 4-16 1-32-4-18-15-32l-4-2zm13-9c17 13 20 44 16 64l-2 4c-2 3-31-13-34-14l-10-5v-4q0-7-4-12l-1-3 2-2 22-20 9-9zm-130 4c-2 2 5 3 3 0zm-565 1c0 2-2-1-1-1zm296 3c4 12 11-8 13 0 1 2 1 7 4 7s5-5 6-7c2-3 2 6 3 9 4 7 9-6 12-3 2 1-1 5-1 7 0 8 16-6 11 3-6 13 14 3 8 9q-3 3-1 7c3 2 8-4 10-1s-5 5-5 8c0 7 12-1 12 5 0 3-11 4-6 9 3 2 13-4 10 2-1 2-14 4-8 9l8 2v3c-2 1-7-1-8 3-2 5 9 4 7 8q-3 2-8 1c-8 3 7 9 5 12-2 2-10-4-10 2 0 3 6 6 5 8-3 3-12-5-12 2 0 3 5 5 5 7 0 6-11-5-13 1 0 1 5 15-2 8-2-1-5-4-7-1s1 7 1 9l-2 1c-2 1-6-5-6-6-2-2-5 5-5 6l-1 5c-2 1-8-11-11-5l-1 7c-3 4-7-11-12-7-1 1-4 8-5 7-2-1 5-8 7-8q3-1 5 3 0 3 3 4l1-5q1-4 5-3c4-1 4 5 7 5 2 0 0-7 2-8l3-1c4-2 5 5 8 5 2 0-1-7-1-9 1-7 12 3 13 2 1-3-3-7-3-9 0-5 8-1 10-1 3 0-2-6-2-6q-1-3 2-5c2-1 7 2 8 0l-4-5q0-5 4-5l5-1-5-4 1-5c2-3 10 0 8-2-1-2-6-1-6-4v-4c0-2 7-3 7-4-1-2-6-1-7-3v-6l5-2c0-2-5-1-6-2q-2-2-2-5c0-2 5-4 4-5h-6q-2-1-3-5l2-4 3-3-8 2-4-5c0-2 4-4 4-6s-7 2-8 2c-5 0-2-6-2-9 1-2-4 1-6 1-6 0-3-7-3-10l-7 6-4-3-1-5c-1-6-2-1-4 2q-4 2-7 0l-2-7q-3 1-3 4-3 4-7 2l-4-6-2 4q-2 5-7 2l-4-6 4 5c6 5 8-14 11-5m-1 4 2 3q6 2 8-3l2-3c2-1 1 5 2 6q5 5 9-1c3-4 1 3 3 5q3 3 7 2l4-4v7l5 2 5-2-2 6c0 6 8 2 11 1 2 0-2 4-3 5q-1 3 2 5t6 1c2-1-3 3-2 4l3 6q2 2 4 1c4-1-1 1-2 3l1 6q2 2 5 2c3 0-2 1-3 2v7l5 2c3 0-4 1-5 2-1 2 0 8 2 9 6 2-2 0-3 2l-2 6c0 3 7 5 1 4-3-1-6 4-5 6l4 5-3-1q-6-1-7 5l3 6-6-2c-8 0-2 8-2 12l-7-4c-8-3-3 9-4 11-1 3-4-6-7-6q-4 1-6 4v6l-2-2q-4-4-8-3l-3 6v3l-2-4q-1-5-6-4c-5 0-4 4-7 7l-1-2c-1-3-4-8-8-7l-3 4-3 3c-2-1 2-7 0-8q-3-3-7-3c-2 0-7 8-5 2q2-5-4-7c-2-1-7 5-8 4l3-8-4-4-7 3 1-2q4-4 0-9-3-1-6 1c-2 0 2-3 2-3q2-4-2-7-2-2-7-1l2-3q4-2 2-5 0-4-5-3c-7 0 0-2 2-3q2-3 1-7-2-2-5-2c-5-1 3-2 4-4q2-2 1-6l-4-2c-5-3 2-2 5-2 11-3-10-11 0-11q6 1 7-6c0-1-6-6-4-6l4 1q5 1 6-5c0-1-3-6-2-7s6 4 7 4q3-1 5-5l-3-7c1-1 7 4 9 4 6 1 3-10 4-10 2 0 3 6 5 5q4 0 6-3l1-5 1 2q4 5 9 2l3-6zm-292 0c-1 2 3 3 2 0zm2 0-1 1zm244 8 3 1 2-1 2 7c1 3-10-3-11-2-2 0-1 4-2 4-2 0-4-5-4-6q-1-6 5-5zm515-1q-7 3-6 10 1 4 5 6c4 2 11-1 12-6q1-3-2-7-4-5-9-3m-756 0q-1 3 2 3 2-3-2-3m620 1q-16 4-21 20-2 11 4 20 8 10 20 13 9 2 17-3a28 28 0 0 0 11-38q-5-8-15-11-8-3-16-1m-618 0v1c-2 1-1-3 0-1m760 1q4 2 4 5c1 6-6 11-11 8q-7-4-2-12 4-4 9-1m-130-1 11 5q7 4 10 12 3 11-2 21-6 11-18 14-10 2-18-3-11-5-14-16-4-14 6-25 10-9 25-8m125 1q-7 2-5 9 2 4 6 4 7-1 7-8-2-5-8-5m-477 0q-12 3-22 9-19 13-24 35c-3 13 0 29 8 40q10 13 22 19a59 59 0 0 0 60-4q11-8 18-21c6-11 7-27 4-39q-6-14-17-24-11-9-25-14l-13-1zm481 1q3 2 3 5-1 5-6 6-5-1-6-5 1-8 9-6m-463 0q17 3 29 13c10 8 19 22 19 35 0 10-27-1-32 4q-1 5 2 6l21 3c1 1 6 3 7 2 2-1 2-14 2-7q0 7-2 13-5 17-20 28a58 58 0 0 1-85-20q-8-18-4-37 6-16 17-26 12-11 29-14zm273 2c-5 5 22 13 26 14 1 1 4-5 4-5l-21-8-7-3zm-284-1c-13 0-34 7-41 21-2 5 26 18 29 15q7-5 16-6 3-2 2-6c1-3 5-24 3-24zm293 3 19 7q0 3-2 4l-23-9-4-2 4-3zm-282-2-1 3-4 26c1 1 6 2 7 0l9-23 2-3c-2-2-11-5-13-3m-3 2-2 18-2 7q-2 2-6 2l-10 5c-4 4-29-11-28-14l2-2q11-12 27-17c3-1 19-4 19 1m240-2-3 3c-1 0-6 6-3 6 2 0 7-5 8-4l2 5q0 3 5-1l3-3c0-2-10-7-12-6m-230 2 5 1-1 3-8 18-2 5q-3 1-5-1l1-9 3-18c1-2 6 0 7 1m233 0c4 2 12 6 3 9-2 0-2-7-4-7l-7 4c-1 0 3-7 6-7zm-532 1q1 3 3 2-1-3-3-2m2 1c-2 2-1-2 0 0m304 0c-5 5-15 24-8 29q7 5 9 13c0 5 24 2 29 2 7 0 2-12 0-16s-23-35-30-28m254 0-15 14c-2 1-2 1-2 8 1 14 5 32 16 42 3 2 29-24 32-27l4-5-2-7-1-7c-1-10-16-12-24-16q-3-2-8-2m-249 2 13 10q11 12 14 29c1 5-30 5-30 1q-2-8-10-13c-6-4 4-19 6-24l3-5zm257 1c8 4 23 5 23 16 0 6 0 6 2 9l1 4-3 4-24 21c-7 7-7 7-8 6l-4-5q-11-18-11-39c0-6 7-9 10-13 2-1 6-6 8-6zm47 0q-6 2-9 8-3 7 0 14 3 5 7 7 9 4 16 0l7-7q2-8 0-14l-8-8q-6-2-13 0m12 1q7 2 9 9 1 5-1 11c-4 7-14 11-21 8q-5-3-7-8c-3-6-1-15 5-19q7-3 15-1m-99 1q-3 0-4 3l3 5q3 1 4-2c1-2 2-7-1-7zm89-1q-6 2-9 8c-2 3-2 19 4 13 1-2 16-17 14-20q-4-2-9-1m-86 2q1 5-3 6l-3-4 5-3zm94-1c2 1-12 17-13 19l-3 1c-3 0-1-11 0-13 2-5 10-9 16-7m-618 1q-2 2 1 3c2-1 0-5-1-3m1 1c-2 0 0-3 0-1m618 3-15 18 3 3 15-19c1-1 4-5 0-5zm-112-2-5 5c0 2 6 9 8 9q4-1 6-4l2-3c0-3-9-8-11-7m116 0q1 1-1 4l-14 17h-3l6-9 9-10q1-2 3-2m-110 3 4 4q-2 4-7 6c-2 1-8-7-7-8l5-5zm113 0-4 5-12 15c0 2 8 0 10 0q9-5 8-17 1-2-2-3m1 2q1 5-1 10t-7 7l-8 1 4-6c1-1 11-15 12-12m-621 0q-1 2 1 2c2 0 1-4-1-2m1 0c-2 0 1 0 0 0m336 3c-1 3 3 4 2 1zm2 1h-1zm147 1-5 2c0 1 9 0 10-2s-4-1-5 0m-479 1c-2 1 2 4 2 1q0-2-2-1m216 3c-1 1-5 6-3 7l8 3 21 8 4-6-7-4q-10-4-18-10l-3-2zm-215-2q-1-1 0 0m220 1 16 9 8 4-3 5-7-3-21-7c-1-1 3-10 5-10zm-22 4 4 3q1 3-2 5c-1 0-8 2-9 1 0 0 10-2 10-5s-10-7-7-7zm-192 0q0 2 2 2c2 0 0-5-2-2m2 1h-2zm253 1c-9 0-17 8-19 16q-1 7 2 14 5 8 14 10 8 2 16-2t11-12-1-15q-5-8-14-11zm249 0q-2 3 1 2l-1 2c0 1 4 0 4-2l-2-1q1-2-1-2zm-238 2 9 6q6 9 2 20-7 11-20 12-14-1-20-14-2-7 1-14 5-8 14-11 8-3 14 1m209-1q-5 1-8 6t0 11c4 7 14 8 20 3q4-5 3-13c-2-6-10-8-15-7m8 2q3 1 5 4 3 6 0 11l-5 5c-8 3-17-3-16-11q0-7 6-9 5-3 10 0m23 0c-2 0 1 0 0 0m-497 1c0-2 1 2 0 0m195 1q-2 7-2 15 0 12 5 24 1 4 5 6c2 1 6-3 8-4l17-15-1-3c-3-7 2-13-7-16-2-1-23-11-25-7m415-1q-3 8-11 11l-2 2v9l6 27q-1 5 3 9h3q19-6 33-19c2-3 16-17 13-21l-3-1-35-15q-3-2-7-2m-404 4 13 4c8 3 4 10 7 16 2 5-4 7-7 10l-13 10-3 1q-3-2-4-5-5-10-5-22c0-2-1-18 3-17zm411-1 35 14 2 2-1 4c-4 7-38 45-47 34l-2-4c-1-7-13-36-4-41q6-3 10-10l1-1zm-125-1-2 1 1 6q4 0 7-2v-5zm6 1c2 4-3 5-6 6-2 0-1-5-2-6zm-492 1 1 2c2 2 3-4-1-2m175 2c2 1 6 4 3 7-3 2-11 1-9 3l8 3q3 2 2 5l-8 4c0 1 9 2 9 4 2 4-5 6-4 9 1 1 6-2 8 0q4 4 0 8l-2 2c0 2 5 0 6 0q3 1 3 4l-5 8q0-3 2-5c6-8-7-3-9-5s6-5 6-8c0-7-14 1-12-5l6-5c3-6-8-3-10-5-1-3 6-5 8-7 3-4-8-4-8-7 0-4 9-1 9-6 0-4-9-4-9-6zm65-2q-6 2-9 7t0 10q6 10 17 6c6-2 9-10 7-16q-5-8-15-7m-238 1h-1zm321 0c-2 2 2 4 2 1q0-2-2-1m-75 1q5 2 6 8 1 8-6 13-11 3-17-7-3-10 8-15 5-1 9 1m77 0h-2zm-85 0q-5 1-7 6c-1 2-3 9 1 9l5-3 11-9c1-3-8-4-10-3m6 1 3 2-4 3-11 8q-2-1-2-4 3-11 14-9m-84 2q-1 4 2 2 1-4-2-2m329-1c-1 2 3 2 3 1zm-483 1c-1 2 3 3 3 1q-1-3-3-1m550 0-5 5-23 19c-1 2-6 5-6 8 0 2 6 5 8 7q15 10 32 13l14 1 12-1c2-2-1-11-2-13-1-5-4-33-11-33-5 0-16-8-19-6m-394 1-2-1zm-154-1 1 1h-2zm322 0c-2 3 2 4 2 2q1-2-2-2m230 2q6 4 14 5c8 0 15 44 11 45l-24-1a89 89 0 0 1-38-19c-2-5 24-23 28-27l6-5zm-313 1c-2 1-15 9-13 12 1 3 8 3 11 1q4-2 6-5 2-6-1-9-1-2-3 1m4 1c2 6-4 13-10 13-1 0-7-1-7-3l4-4c2-1 11-10 13-6m-236 0q-1 2 1 3c3 0 1-5-1-3m136 0c-2 2 3 4 3 1q-1-2-3-1m-134 1c0 2-2-1-1-1zm321 0q0 2 2 3c2-1 0-5-2-3m2 1c0 2-3-1 0-1zm-45 1-1 9-27-5q-3 0-2-4l12-1c2 0 18-1 18 1m-271 1c-2 2 2 3 2 1q0-2-2-1m119 0v3c3 1 1-4 0-3m-117 1h-2zm118 0c-1-2 1 2 0 0m206 1h-1zm-317 1q-2 3 2 2 1-3-2-2m1 1c-1-2 1 2 0 0m99 0 2 3c2 0-1-5-2-3m225 0q0 4 2 3 2-3-2-3m-96 3-5 7-4 5 3 5c2 3 9 23 13 21 9-4 30-25 24-34l-9-3-20-4zm98-2h-2zm-80 3 10 2c12 4-14 30-20 33l-2 1-2-3-12-22 3-4 5-7c3-5 13-1 18 0m-237-1-2 1q0-2 2-1m82 1 1 1c2-1-1-4-1-1m243-1c-3 2 2 4 2 1q0-2-2-1m-242 1q-1 1 0 0m243 0h-1zm-253 1v2c2 4 2-6 0-2m304 0c-1 2 3 3 3 1q-1-3-3-1m-368 1h-1q0-2 1 0m328-1c-1-2 1 3 0 0m8 1q0 4 3 1-1-3-3-1m34 0q-1 1-1-1zm-362 0v2c2 2 3-4 0-2m339 0v3c4 1 2-5 0-3m-9 1h-1zm-284 0c-2 1 2 4 2 1q1-2-2-1m305 0-2 1q-1-3 2-1m-11 0q1 1-1 1c-1 0 1-3 1-1m-322 1q-1 4 2 2 1-3-2-2m19 0q-1 2 1 2c3 0-1-4-1-2m-27 1q-1-2 0 0m150 0q-11 7-22 17l-1 1c-1 2 5 7 6 7 3 1 11-9 12-10l11-11-5-5zm-131 0c0 2-2-1-1-1zm134 2 2 2-21 20q-4 0-6-5c-1-1 19-16 22-18q1-2 3 1m4 3c-5 5-26 20-19 25q17 10 36 10 5 1 8-2v-8c-2-6-2-22-10-22-3 0-14-4-15-3m3 1q7 3 13 3c6 1 11 28 7 29-13 4-30-2-41-9l-3-2 21-21zm18 1c-3 1 3 17 4 20 1 4-2 11 2 11 3 0 12-3 12-6 0-5-13-28-18-25m4 1 9 15 4 9c1 2-4 3-6 3l-4 2-1-3q0-9-4-18l-2-8q1-2 4 0m388 8c-2 2 3 4 3 1q-1-2-3-1m-525 1q-11 3-13 14-1 13 10 19c4 2 13 2 17 0q6-3 9-9 2-6 0-14c-4-8-15-13-23-10m527 0h-1zm-516 1q7 2 11 9 3 8 0 15-3 5-8 7-8 4-17 0-6-3-9-11-1-6 2-13 4-6 11-8zm-10 1q-10 2-12 12c-2 10 7 19 16 19q11-1 16-10 3-6 0-13-4-6-11-8zm8 0q12 3 13 15l-4 10-10 5q-11 1-17-9-3-7 0-12 6-11 18-9m-8 5q-4 2-6 5-3 11 6 15t15-5v-10q-6-8-15-5m8 0q4 1 6 6 3 6-2 11-5 4-12 3a11 11 0 0 1 1-20zm274 1c-3 1-14 20-13 21l3-1c7-4 32-12 16-20zm305-1q-11 3-13 14c-2 8 4 17 12 19q6 2 14-1c8-4 12-16 7-24q-8-9-20-8m-586 1c-4 2-9 9-5 13 1 2 14-9 13-12-1-2-7-1-8-1m287 1c15 7-11 15-16 18l-2 1 2-4c4-6 7-20 16-15m307-1q7 2 11 8c5 9 0 21-11 23q-6 2-12-1-8-5-9-14 1-11 11-15 5-2 10-1m-587 1s-8 12-11 12c-2 0-1-7 0-8q3-6 11-4m579 0q-8 4-11 13-1 5 1 9c1 1 13-11 14-12l8-8c0-2-9-3-12-2m8 1 3 1-18 17c-4 5-4-6-2-9 2-4 7-10 13-9zm-586 2-11 12 6 2q7-1 10-7 1-4-2-8-2-1-3 1m3 0q2 4 1 8l-5 5c-3 1-11 1-6-4 1-1 8-11 10-9m68 1q2 3-1 7l-1 4c2 2 7-6 9-4 4 2 2 13 5 9l4-4 6 2c1 1 0 10-1 10s2-11-4-11c-2 0-7 8-9 5-1-2 4-10-1-10-3 0-5 4-8 4q-3-1-1-5 3-4-1-6c-2-1-6 4-8 3l9-5zm520 0q-10 8-18 18-3 1-1 3l5-3c2-3 18-14 16-18zm1 2c-1 1-19 19-20 18s20-21 21-20zm0 3-17 19q7 3 13 0 8-4 10-12c0-2-1-9-3-9zm4 0 1 7q-2 10-12 12c-1 1-10 1-10-1l20-19zm-176 2v2c3 1 2-5 0-2m1 0c-2 0 1 0 0 0m54 2q-1 2 0 0m-371 8c1 1 6 8 4 9-3 3-3-9-6-9-4 0-4 7-8 7-1 0 5-8 7-8zm220 4c-6 2-12 10-10 17q2 8 9 12 7 3 14 0l5-3c3-2 3-2 12-2l106-4 23-1q3-2 2-6c-2-4-11-3-14-3l-114-5c-12 0-12 0-16-2q-8-5-17-3m10 1 6 2c5 3 5 3 11 3l122 5c2 0 19 4 9 8h-24l-99 4c-14 0-14 0-18 3q-8 5-18 2-5-2-7-7-3-7 0-12 3-6 9-8zm-8 1q-8 2-10 9-2 10 7 16 7 3 12 1l6-4c4-2 4-2 26-3l89-3h23c8-1 2-5-4-6l-119-5c-11 0-11 0-15-2q-8-5-15-3m9 1 6 3 131 7c2 0 12 0 10 3-1 4-22 2-25 2q-49 0-97 3h-15l-5 3-6 3c-6 2-14-1-16-7q-3-5-1-10 7-10 18-7m-7 3q-8 3-8 10 3 8 11 8 9-2 8-10-2-8-11-8m5 2q7 3 4 11-5 6-11 3-7-4-3-11 4-6 10-3m-8 2c-10 9 12 18 12 5 0-6-8-9-12-5m8 0q5 3 3 8-4 5-10 2-3-2-3-5c0-5 6-7 10-5" clip-rule="evenodd"/>
</svg>
