<svg xmlns="http://www.w3.org/2000/svg" fill="none" viewBox="0 0 800 316">
  <g id="cardDecorCenterFree" fill="#000">
    <path fill-rule="evenodd" d="M634 285q9-11 23-9 11 3 14 14 2 10-3 17-4 5-10 8h6c-9 1-25 2-28-1l-2-1-6 3q-4-1-2-4c2 6 6-2 9 0l2 2 6 1q-10-5-12-14-3-9 3-16m17-8h-4q-12 3-15 14-3 9 4 17t19 7q10-3 14-12t-2-19q-7-7-16-7" clip-rule="evenodd"/>
    <path d="M652 243q19 0 33 11 17 12 21 34 2 12-2 24l-2 4-1-1 4-15q1-13-5-27a53 53 0 0 0-48-28c-15 0-31 7-40 18q-10 13-12 28a49 49 0 0 0 4 25l-3-3a52 52 0 0 1 27-65q12-5 24-5m100 39-2 2zm-27-46-1 1zm67-66q-4 6-11 11zm-42 8-2 2zm-1-6"/>
    <path fill-rule="evenodd" d="M688 1h2c0 5-5 8-1 12l3 2c2 0 7-4 9-3l4 7c0 2-8 4-8 7l1 3q2 3 9 4c3 0 3 7 0 8l-5 1c-3 0-5 7-5 7l4-2a74 74 0 0 1 69-7 73 73 0 0 1 30 23v2a72 72 0 0 0-57-29c-15 0-33 4-44 14l6 5-4 7-10-3-2 2c-4 4 1 7 1 11l-7 4-4-4c-9 11-11 31-9 44a71 71 0 0 0 65 60h2l-2-5 3-2 7-4c7-6 10 11 17 8l12-4c4-2 2-7 3-11v-6l15-2q2 1 2 4l6-6q-5 6-5 11l3 10 2 1v2h-1q0-3-7 5l-5 5h3c3 0 3 0 8-5l2-2-5 7h5v2h-6q-15 0-29 8a54 54 0 0 0-26 51h5s9-29 13-34a48 48 0 0 1 43-17v2l-5-1q-23 1-38 19a44 44 0 0 0-8 31h4a149 149 0 0 0 47-12v1l-1 1c-4 2 0 3-1 6q-3 4-8 1v-3q-20 6-41 7c-1 1 2 9 3 10q4 11 15 19 9 6 20 9h13v1q-12 2-25-3-15-7-23-21l-5-14h-8q3 18 15 30a56 56 0 0 0 46 16v2h-4l-6 5-5 5c3 3 8-2 10-4q-5 6-3 9l8-7v1c-5 5-11 12-6 12l6-6v3l-7 5c-3 0-1-11-5-11l-12-2c-2 0-6 13-10 13-2 0 4-8 5-9l4-6 2 1 6-4 5-5h-3q-3-1-5 1l2-2-3-1c-2 0-2 0-13 11-12 12-12 12-10 13 4 2-6 0-6-1 0-4 8-18 4-21l-9-7c-7 0-13 8-19 9-2 0-5-7-6-8l-3-4 1-2c2-2 14-11 13-14s-3-12-6-12-19 1-20-2l-1-13-4-1-7-3q9 3 16 2l15-5 2-9v-4l-17-11c-1-1 5-11 6-13 2-5 18 8 22 3q1-4 6-7l1-2-7-12q-10-1-21-5-14-5-23-14a71 71 0 0 1-19-80l4-9c1-2-5 0-5 0-6 1-2 7-5 10-4 3-8-2-9-5q-1-6-6-6c-3-1-5 7-8 7l-6-4 1-5q3-4 0-6c-4-4-7-1-11 0-2 1-5-4-5-6l4-3c1-1 6-9 2-10q-6 1-10-2v-1c0-4-3 2-2 2 0 1 2 6 1 7s-7 2-4 4l4 1v7l-2 1q-2 0-2 3l4 1q1 4-1 7h-2q-3 0-3 3l4 2-2 7-5-1-1 3 4 3-4 6c-2 0-6-3-6 1l3 4c0 1-4 6-5 5l-2-2a142 142 0 0 1 16-59v-2l8-13 6-8c1 1 5-6 4-6l6-5c3-3 7-10 12-10 2 0 1 5 2 5q5-1 6-3l1-2v4c-2 1-8 3-9 1l-2-1c-2-3-7 9-8 10q-2 3-5 2c-1-1-5 5-6 6l3 3-1 4-1 3c-2 2-8 0-9 2l-1 6 10 1 2 8-6 5c-2 1 0 6 1 6l10-3c1 0 6 5 5 7q-3 5-2 8l3 2c3 2 5-5 8-7l7 2 1 5c3 15 9-5 10-5s7-2 8-1q0 2 2-1l6-7c1-1 11-10 10-11q-1-3 2-7c0-2 8-1 10-2l-1-6-9-2-2-7c0-3 7-4 7-7l-3-5-4 2c-5 2-5 2-8-1l-3-3c1-2 5-9 3-10m86 289c-2-1-2-1-11 8s-9 9-10 12v3l23-22zm-6-3-6 6c-6 5-6 5-7 9l-1 4 17-17zm23 6q-1-1-7 5c-3 3-6 5-1 5l6-5 5-5zm-28-8-7 8 1 3 5-4q7-6 3-6zm-17-17-11 11c-4 4-14 13-9 14l12-11c3-4 14-14 8-14m13 14-7 8q3 3 7-2l4-4zm-9-9c-1-1-1-1-11 8l-9 10 5-2 11-8 5-6zm-6-9-23 22 3 3 11-11s15-12 9-14m8 12-8 8 2 1q1 1 4-1l-2 2 3 3s7-6 7-8l-2-2-4 3q4-5 0-6m-10 9-2 2zm0-24c-1-3-13 12-15 14-3 2-10 10-6 10zm7 9 1 2zm-10-15c-3 0-9 8-6 11l4-3s6-8 2-8m3 3v2zm-5-13-6 4-4 5 2 2c0 1 9-6 9-8zm-5-1c-2 0-12 9-11 9 3 3 8-2 10-4l4-4zm-7 0q-1-1-6 4l-5 5q6 0 10-4l4-5zm-7-1-5 4-5 5 4 1c2 0 12-9 9-10zm-5-1c-3-1-6 5-6 7q-1 5 5-2l5-4zm35 1-1 1h1zm-11-6-6 6h6zm0-7-12 12c4 5 12-5 12-9zm2-8-15 13-7 2-3 4 10-4-5 5c4 2 9-4 12-6l7-9zm-31 17-3 1zm36-29-18 20v3c2 1 21-21 18-23m-18 16v1zm67-69-11 10-6 7c-2 0-2 0-25 23l-23 23q1 2-1 5l9-8 12-12 28-26q-9 8-7 9l5-2 7-5-3 3q7-1 13-7c2-2 8-7 5-10l-4 3q5-5 2-8l-4 4q5-6 3-9m-21 18q-6 1-13 6l3-2-1-2c-2-1-2-1-8 5l-7 7c3 6-17 16-19 18l-7 7c1 9 16-10 22-16l9-9-8 9-17 20c1 1 1 1 24-21zm-42 25c-2 0-2 0-8 5l-6 6 3 2 7-6 6-6zm-7-1q-1-2-6 5l-5 5 3 2 12-11zm24 9-2 2zm-28-10c-4-2-5 5-7 8-1 3 9-8 9-8zm47-9-3 3 4-3zm-9-13-5 1-2 1-1-1-7 2v3l1 1 5-3q-4 4-3 6c1 3 8-5 10-7zm-7-9q0-2-6 3l-5 6q3 2 9-3l-3 3h2c3 0 12-4 5-7l-3 3q3-3 1-5m26 3h-2l-11 4q-3 1-1 2c4 3 19-7 14-6m-20 2-2 2-1 2 5-1zm2 2v2h2zm-10-9c-3 0-8 5-10 7v1c1 3 10-8 10-8m29 2-1 2 1 2zm5-1c-2 0-5 4-4 4zm9-14c-2 0-5 5-7 6l-6 7c0 4 10-5 11-6l3-4zm-5 0-5 3-3 8 11-11zm7 3v1l1 1zM617 42l-2 4c-3 5-20 58-13 58l3-4-1-2q-3-3 0-5l5 1 3-5-4-3 2-4q3 2 5 1l1-5c0-1-4-1-4-3 0-5 6-2 6-5q2-4-3-5-2-3 1-5h1q3-2 2-6l-5-1q-1-3 1-5l3-1zm80 9-3 2q-9 8-14 17l3 5q4-1 5-3c1-1-3-8-3-9l6-6c2 0 8 4 9 3q3-2 3-5-2-3-6-4m-68-28-1 2-5 7 7-1 1-2 1-4zm13-14-5 6q2 0 3-2z" clip-rule="evenodd"/>
    <path d="M774 300c-5 6-10 16-16 16zm-604-59c1-12 0-29 5-28 2 6-2 19-5 28m-2-85"/>
    <path fill-rule="evenodd" d="m156 133 5 1q2 3 0 5l1 3 2-1q9-6 17 2 6 5 5 13-3 10-13 11l-1 2q1 2 3 1c2 0 2 4 4 4 4 0 1-4 1-6l3-2q2-1 4 1 1 1 3-1 2 2-1 2l-3-1c-1 0-6-1-5 2l1 4-3 2c-2 0-4-7-6-4l1 4 2 17c0 4 3 3 7 6 2 2-5 7-3 10l3 3c1 1 8-1 9-1 1-1 4 5 3 6s-8 4-7 5l1 6c1 2 7 1 9 3l-1 6c-1 2-7 1-9 1-4 2-1 8 1 9l3 4-4 5c-2 1-7-5-9-3l-4 3c-2 0 2 8 1 9l-6 3c-2-1-4-8-6-8l-3 5q-7 15-18 27c-1 2-14 14-13 15l3 3-3 5-7-2c-1 0-4 5-5 3l1-1c2-2-6 3-5 1l12-9 1-4 1-3q2-2 7-2l1-2c-1-5-6-2-8-4l-2-5c0-2 6-4 6-6 0-6-7-1-9-1l-5-5 3-7-4-2-5 6c-7 3-6-9-10-9q-4 1-3 5-2 4-6 4l-5-5q-2-1-4 1c-2 1 1 6 2 7l-5 5-7-3-2 4c0 2 5 3 5 5l-1 5c0 2-5 2-7 2l2-1 4-1 1-4c1-2-6-4-6-6l4-5 7 3 2-2c3-3-1-6-1-9l5-3c2 1 4 6 6 6l2-1c4-1 2-5 4-8h6q0 5 3 8h4l5-5 5 3c0 3-4 6-1 9 4 3 6-2 9-1 9 4-3 10-2 12l1 3 5 1q4 3 3 5l2-1q15-15 23-34l-2-1c-4 1-2 7-4 9h-7c-2-1 0-9-1-10l-5-2c-3-1-5 6-8 6l-5-3c-1-3 4-6 4-9l-1-2c2 2 7 9 8 8s1-1-8-9l-9-9c-2 0 4 6 8 8-4-1-10 3-11 2l-3-6c0-2 6-5 7-6l1-1q5 7 11 12l15 15 4 2-6-7-20-19-4-4c1-3-10-6-11-6l1-7 8-1q2 0 3-4c2-4-6-5-6-8 0-13 17 3 18-6 0-2-4-8-2-9l6-3c2 0 4 8 6 8l3-1c5-1 2-6 5-9l7 1c2 2-1 7 1 9l5 2c3 1 5-6 5-8l-3-19q-1-3-1 2l-4-1-1-2q0-4-3-4l-4 3q-2 1-2-2v1c3 2 4-4 7-2h1c3 1 1 6 2 6 5 1 5-7 3-7q-9-2-13-11v-8c0-1 5-11 2-8l-5-2v6l-3-4 3-3 5 2q1-2-3-7m-26 175q-3-2-6 2c-2 2 6 3 6 3q3-3 0-5m5-10-6 1-1 5c1 1 5-4 6-5zm17-32c-4-4-2 2 1 2zm13-8 2 3c1 1 3 5 5 4zm1-3c-2 0 2 4 3 6 2 1 6 5 6 3zm-20-2 4 5 7 6c2 0-3-5-4-6zm25 4q-5-5-5-3l5 5 4 5c3 0-2-5-4-7m-39 2h-1c-1 1 8 6 1 0m39-4q-3-4-4-2l8 7q-1-4-4-5m-45-17c0 1 15 17 19 19h2zm45 13-2 1 4 3 1-1zm17 2c1-1-10-11-10-9l9 9zm-31-48-9 1q-12 5-16 17v13q3 11 13 15c5 3 19 6 22-1l3-9-2 8q-2 3 1 2 11-7 13-20 0-8-5-17l-2-1-2-2q-6-6-16-6m21 41h-1c-2 1 6 6 8 7l-3-3zm2-5c-3 0 2 5 4 7l5 4c2 0-3-4-4-6zm1-2v2l9 9c1-1-6-8-7-9zm2 0q-1-3-2 0l4 3q1-1-2-3m5-8-5-4 4 5c2 2 6 6 6 4zm-5-2c-1 0 4 10 7 7l-4-3zm-1-7 6 9 7 5h1zm-63 0c-3 0 12 14 12 13q1-1-6-7zm3 0c-4-1 8 11 8 9l-4-5zm-5 1q-1 1 2 4l4 3c2 0-5-7-6-7m1 4c-4-4-1 4 2 2zm66-6-4-3q1 3 5 6l2 2q1-2-3-5m-55 1q-2-3-3-1c0 2 5 6 5 4zm0-2q-1-3-2 0l4 3zm52-4-5-5c-1 3 6 7 7 9l4 3q-1-4-6-7m-4-10 7 7 7 6c1-1-5-6-6-6-3 0-5-6-7-7m-49 7-5-5 3 4 6 7c2-2-3-5-4-6m59-1h-2l6 6c3 0-3-6-4-6m-58-1-5-5c-1 1 8 9 9 11l1-1zm2-2s-6-7-6-4l10 10c1-2-3-5-4-6m-3-4 3 4c1 1 4 5 6 4 1-2-7-8-9-8m33-10-4-2 7 8 11 9-5-5zm6 6 8 8q1-2-2-5zm-27 2q-1-1-1 1s3 4 5 3zm-2-5c0 2 4 8 7 8s-2-4-3-4zm19-3c-3 0 2 4 3 6l7 5-4-5zm-17-1h-2l6 5c1 1 5 7 7 5zm2-1c-3 0 9 11 11 11l-7-7s-3-5-4-4m36 8c-5-5 1 5 2 2zm-7-62q-5 0-8 3l1 3 4 11-5-10-2-3-1 1q-5 7-2 13 2 7 9 10h3l-1-6 4 6q12-3 13-14 0-5-4-8-5-6-11-6" clip-rule="evenodd"/>
    <path d="M68 293v2c0 4 6 1 8 3q3 7-4 10 0 3 2 5c1 1 5-3 7-3 1 0 5 4 4 5h-1c2-3-6-3-7-2l-4 1-3-5 3-3c4-3 2-3 2-7l-7-1q-2-2 0-5m42 7 5 3 5 3c3 3-13 9-15 10l-1-1q8-1 13-6l2-2-9-5-5 2-1 6v5c-3-2 0-10-2-10s5-2 6-4z"/>
    <path d="m94 300 1 1 5 3c3 0 3 8 0 10 1-2 1-9-1-10l-5-3-9 6 2 2q5 4 12 6h-4a22 22 0 0 1-12-9zm6 14-1 1zm552-78q22 1 39 13 12 9 18 23a59 59 0 0 1 1 43l3-10q4-26-14-48a61 61 0 0 0-54-20q-28 4-45 27-7 12-9 25l3 25q-6-19 0-38a61 61 0 0 1 58-40m16 78-4 1z"/>
    <path d="m645 266 4-1 2 4c1 4 2 2 6 4l4-6 5 2c0 1-3 6-2 7l4 3 4-2q6-2 5 3-4 3-4 6c2 3 13 5 9 9l-6 2c-5 4 5 7 5 9l-2 4c-1 1-7-3-8-1l-2 3v2h-1q-1-3 3-6c1-2 6 1 7 1l2-3q-5-2-6-5 0-7 7-7 1-2-1-3c-3-1-10-1-8-7l4-5-2-2-6 3-5-4 2-7-3-1-4 4q-3 3-7 0l-2-6zl-1 6-4 2q-4 0-7-4l-3 2 3 6c1 6-7 4-10 4l-2 3c3 1 10 5 5 9l-7 3 1 3h6c6 1 1 8-1 10q4-5 1-9h-7c-5-6 6-6 7-9v-2c0-2-5-4-6-5l2-5q5 3 8 1l1-1c3-3-2-5-2-8l4-3q2 3 6 5l4-2c2-1-1-6 1-7m-18 46v1z"/>
    <path fill-rule="evenodd" d="M82 285c4 0 7 5 10 5s0 4 1 7v3c-2-2-9 6-11 4-4-3-2-13-1-17zm1 1-1 1q-3 8 0 16c1 0 10-4 10-6v-5c0-2-6-4-8-5zm28 4c3 0 7-6 10-5 5 1 3 15 1 18-1 4-8-3-10-4-3-1 0-3-1-7zm10-4c-2 0-9 4-9 6v5c-1 2 7 6 9 6 2 1 3-17 0-17" clip-rule="evenodd"/>
    <path d="M19 293q-2 3-1 5 1 4-3 4c-2 0-2-5-4-4q-4 0-4 4H2c1-2-2-6 0-5 1 0 3 11 5 3q1-3 4-3l2 2q2 4 5 1l-1-5z"/>
    <path fill-rule="evenodd" d="m102 287 7 4q3 9-7 11-10-2-7-11 3-3 7-4m0 1q-5 1-6 4-2 8 6 9 4 0 6-4 2-8-6-9" clip-rule="evenodd"/>
    <path d="m797 297-1 1-1 1zm3-2-3 2zm-776-6 3 3-2 3-5-2 2 1c5 2 3-2 2-5m66-157 6 5 3 3zm71-21"/>
    <path fill-rule="evenodd" d="M99 65c4-1 6 4 4 7q-2 2-5 1c-5-2-3-8 1-8m1 1q-5 1-2 5 3 1 4-2zm24-23q6-1 11 2 11 7 5 19-3 5-9 7-5 1-10-2-11-6-7-17 2-7 10-9m3 2-5 1q-9 5-7 14 2 6 9 9 5 1 10-2 9-6 5-16-5-6-12-6M87 28q12 0 14 11 2 5-1 11-6 7-16 6-8-2-11-10-1-8 3-14 5-4 11-4m0 2q-9 0-12 8-2 12 9 16 10 1 15-7 2-5-1-11t-11-6" clip-rule="evenodd"/>
    <path d="M178 78v3zM17 22l-1-1zm158 5 2 1zM46 20l6 6zm4-3 3 3zm4-3 2 1v1z"/>
    <path fill-rule="evenodd" d="M162 0c2 0-8 14-6 16l9 11c1 1 13-4 14-4l6-2 1-1 2 1 2 4c1 2 10-9 12-11v3l-10 12c0 2 4 7 3 8q-6 2-9 7-2 6-2 14-2-6-1-11v-3l-7 5v3l2 10q0 4 4 3 2 1 2-1v1l5 2c3 1 12 2 12 5l-2 15-6 1c-1 1 8 11 9 12v2q-6-5-11-13-3-2-8 0c-2 0 5 10 6 11 2 2 13 10 13 13a69 69 0 0 1-21-24h-5l-2 4-4 9c-1 4 19 15 16 18l-6 8q-3 3-4 7 2 4 5 1 4-4 4 0l-2-1c-1 0-2 4-4 3l-3-2q0-3-4-4l-1 1q-2-3-5-4l-12-5-2 3-1-1-8 7 4 15 2 1c-3 5 4 3 5 5v2c0 3-5 3-4 5 1 4 9-1 9 4l-2 3-1-5-5 1-2-4 2-1 2-4-4-2v2l-16 7c-3-2-11-20-14-19l-11 2c-3 0-3 0-6 8l-4 15 4 7a71 71 0 0 1 1 51 72 72 0 0 1-68 47c-4 0-10 0-10 6l5 2v4h-5l-1 3v-1q-1-3 3-2c8-1-2-5-2-7l-1-2c0-1 7-2 2-3l-6-1 1 2q2 6 0 11c-2 7-11 12-18 9-3-1 9 0 13-3q9-7 4-18l-3-2c4 1-6-4-10-4H5l4 2q-7-1-8-3h4l7 1 10 5 7 1-1-1 7 1a74 74 0 0 0 56-26 69 69 0 0 0 8-76c-3-5-7-4-12-5h-6c-4-4 2-16-2-19l-7-5 6 3q2 2 1-1c0-2-10-5-12-6h-2l3 2-4-2-11 11c0 1 6 1 6 3 1 2-4 11-2 13l5 3q5 1 10-3l4-2 3 4 3 3-3 4-4 5q-2 3 1 7 3 5 9 3h5c1 1 3 8 2 9l-7 2c-1 1-6 5-7 8v-6c2-2 13-2 13-5l-1-7c-3-3-12 2-14-1l-4-9c3-4 11-8 6-12l-2-4c-3-1-9 7-12 7l-6-5-2-1c-1-2 4-12 2-13q-8-4-12 5l-2 3h-8c-5-1-4-13-8-13-1 0-7 0-7 2 0 3 1 12-2 13q-5 3-8 3v-2q3 1 7-2c3-1 2-7 2-9v-4l10-2 2 6c2 7 3 6 9 7 2 0 7-5 5-6l-12-9c-3-2 7-10 5-12h-5q-17 0-31 7-3 0 1-1 9-5 21-6c2 0 20-1 20-7v-2l-1-1v2l-1-2-8-10h-5l-18 5c-2 0-7-13-8-15s6-4 7-5l13-8-1-3-2-10q1-2-4-3L2 66h5l-2-3c-4-3-4-3-4-8 0-7 9-5 15-5l8-1v-2l4-9c2-5-7-11-10-14-7-7-2-10 3-17l2-2c6 0 18 13 23 9l9-8c2-1-1-6 1-6 4 0 11 14 14 13l4-1-5-6-5-6c5 0 7 12 14 10q4 0-3-5l-4-5 5 5c1 0 10 7 10 3l-4-4-3-4 5 4q3 5 9 3c2 0-9-7-6-7l4 4q3 4 6 3l3-1-5-6 3 3q5 4 10 4l-3-3-3-3 4 3q5 5 12 5c4 0-12-9-8-9l5 5 14 8 2 2-5-7 38 37c10 10 10 10 10 8v-5h1v-1l3-2-1-1q-1-1-1 1l-8-11c8 7 8 7 9 5l-4-7-7-4q-2 1-4-2L147 7q-8-7-6-7l6 6 6 6q1 2 2-1 2-1-3-6c-10-10 4 4 6 1 1-2-4-8 0-4 2 2 1-2 4-2M94 165l-1 1 4 1c1-2-1 0-3-2m-8 0h2zm4-12c-9-8-9-8-9-6l2 3 14 15 1-3zm-8-4v1c0 2 0 2 6 8l8 7-2-2zm0 4v6c0 5 7 6 11 6l-5-6zm2 10c-4-4-1 3 1 1zM35 92c-11-10-11-10-10-7l1 5 25 25 8 8-9-8-27-23c-1 0 36 41 44 44l8 4-1-1 7 2v2l9 9 8 8c6-6-14-19-16-22l-21-19q-8-6-14-15zm75 39h-3l5 6q6 7 7 4c4-1 9 11 12 14l3 3q3 1 5-1l-13-13zm-9 23-1 1v2zm15-24c-3 0-3 0 11 13l13 14c10 0-7-14-8-15zm29 25-1 1zm-74-30c-3-1-3-1 13 14l16 15c4-5-7-12-10-15l-13-12zm64 12c-5-4-15-14-15-8l26 25v-4zm-54 17v-3zm21-3 1-2h-1zm-64-11-2 3c2 1 11 9 12 8zm8 1q-7-8-7-4-2 1 4 7l6 6v-1l2-2zm6 7c-1 2-4 2 0 1zm30-19 20 19q2-5-3-8 7 4 10 3l-5-6-9-6h-3l-2 1-1-1zm64 19-1-3v1zm-92-1h-1l-1 1zm50-3-1 4 4-4zm-61-12c-7 0 8 14 10 14 7 0-5-12-8-13zm37 12v2l1-1zm49-19-4 2 19 18c3-3-7-13-8-14zm-17 18h-2v1zm-65-10c-2 0 3 3 5 5l5 4q3-2 1-5-5-3-11-4m58-2-3 1c-3 0 7 11 11 10h3zm-27 10-2-1-1 1zm-40-2q0-2-1-1zm106 0-1-4-1 1zm-80-3h2zM20 93l-4 3 8 7c7 7 7 7 9 7l2-1c2 2 12 12 11 14-1 3 14 16 17 13l-21-22zm21 37-1 2-1 3h1c-1-2 2-6 1-5m93-8c-6 0 0 6 2 8l6 5-1-3 1-1c1-1-6-9-8-9m-84 7q-6-5-6-2l-1 2c0 3 6 4 7 4l4 1zm120 1 2 1h3v1h1l1-1-2 1v-1l-2-1zm-63 0-11 1 3 1 2-1 4-1zm38 0h-1l-1 1zm24-19c-13-12-13-12-14-10q-1 2 6 10l-7-8-3 4 26 22c1-2 1-2-11-14h-1q12 10 15 10l1-2zm-80 19h2zm-47-2v2zm-3-63c-4 0 1 21 2 23a61 61 0 0 0 40 39q17 5 36 0 13-3 23-12c3-2-1-5-3-6-2-2-16 8-19 9q-18 6-36 0-20-7-30-26-6-11-6-22c0-6-3-4-7-5m139 64 2-3-2 1zm-28-21c-3-1 1 7 4 9q7 7 17 11l-12-11zm-72 19 3 2 1-1zm47-2-3 1 2 1zm19-9q-2-1-4 1c-1 2 7 11 9 9 3-2-3-8-5-10m12 7-1-1-4 3c0 2 3-3 5-2m2 0 5 2zm-28 0-2 1zm-61 0 1 1zm-5-3 3 3 1-1zm83-8-2 1c-2 3 6 11 8 9h4l-5-5zm16-14q-5-5-5-2c-1 2-1 2 11 14l13 12c8 0-19-12-14-19zm-28 22-2 1h2zM50 66c-5-1 3 24 4 27a51 51 0 0 0 44 26q19 0 34-11 3-2-1-6l-4-3-1 2q-4 8-14 9-10-1-14-9-2-11 6-17l-1-1-18-8q3 6 0 13-8 10-20 6-8-4-8-13 1-7 7-12h1zm-39 49h3q-3 1-4-2zm133-2-2 1v1h1zm-132-5-5-4 5 10q3 1 6-1zm7 6h-1 2zm127-3-2 2zm-128-6c-7-6-7-6-9-5-3 3 10 17 15 12zM99 9Q80 9 63 20a60 60 0 0 0-25 42q-1 3 4 2h4c0-12 9-27 19-34q9-8 19-11 17-5 32 1 19 6 30 23 6 9 7 22 1 22-14 39-3 4 3 8c4 5 18-29 19-34V60A62 62 0 0 0 99 9M30 110l-1 2 3-1zm-7-7c-3-2-11-8-11-4l13 12h3c2-1 2-1-5-8m84-18q-5 2-7 8-2 11 8 15 5 2 10-1t7-9l-2-2zm30 20h-2l-1 2h2zm14 0-2 2zm19-4-1 1 1 2zm-69-82q-12 0-24 5a51 51 0 0 0-28 40c-1 2 17 4 20 3 8-1 12 5 19 7l9 4c3 2 8 6 11 4q6-1 12 2 7 4 7 12c0 3 7 10 10 8a50 50 0 0 0 13-45q-4-20-22-32-12-8-27-8M7 102v-1l-2 1 1 2zm147-1-2 2 2-1zm-107 2-3-5-1 1zm119-10q-6-7-6-3c-1 4 8 13 9 10q2-3-3-7m-9 3-2 4q0-2 2-1zm-31 0 1 3v-3M9 99h2l1-1zm163-2h-1v2zM31 81l-8-6 1 4c0 2 0 2 10 11 10 10 10 10 8 6l-3-5c0-2 0-2-8-10m132 1c-5 1 3 10 3 10l5 4q2-5-3-9zM14 96h1l1-1zm143-2v2zm-45-10s-4 0-3 1l15 10v-2q-2-8-12-9m47 7-2 3 2-1zM69 69c-7 1-11 9-10 14q1 6 7 9 7 3 13-1 3-2 5-7 1-5-2-10l-4-2zm107 18-1 1-2 3v2q1-5 4-5zM20 92l1 1v-2zm149-11-5-4-1 2c0 4 10 13 10 10l2-2zM39 86l-1 1 2 2zm122 0-1 3 1-1zm29 0-2 1q3 0 4 2-1-2 1-2zm-8 2h-1zm1-1 3-1zm-20-24v8l7 10c1 1 7 8 10 6l-16-18h-1l1-1zm35 22-2 2 2-1zM22 66h-3c-2 0-2 0 8 10l11 11c3-3-8-14-9-15zm141-5 1 4 23 22 2-1s-11-13-13-13l1 4 1 1-2-4-7-7zm29 20c-11-11-1 5 0 5h3q4 1-3-5m-84 3h-2l-1 1zm80-3v2l1 2zm-3-13 1 3c0 3 0 3 6 8l5 5c3-5-7-15-12-16M23 80l1 4 1-2zm156-12-4-4v4c0 3 11 15 12 14s-3-7-3-9zm-17 12v2zm37 1v-3l-1 1zM37 77l1 2zm153-8 3 5 5 3v-5zm-3 7-2-3zM35 73c0-2-4-9-5-8l-6 1s12 12 12 10zm128 0v3zm-84-3 1 1 3 2 1 2v-1zm-58 2 1 2 1-1zm179-1-3-1 3 3zM36 73v-4zm-21-7-5 1c-1 1 10 4 11 5l-3-3zm164 0 2 3 2 2v-2q0-2-4-3M13 70l-2-1-1 1zm155-13-7-5 2 6 6 7 6 5-1-4c0-3 0-3-6-9M67 69h-2zm5-1h-3zm118 0h-3l2 1zM6 68H2zm179-1q0-2-2-2l-1 1 2 2zM48 65l-1 1v2zm-11-1v-3l-1 2v3zM8 59l-6-5-1 3c0 4 9 12 13 8zm171 6-2-2v2l1 1zM8 52H4l5 7 8 6h4l-6-7zm14 6c-6-7-6-7-9-6h-3s12 13 14 12h3q4 1-5-6m-1-7h-3l5 7c7 6 7 6 10 6h3l-7-7c-6-6-6-6-8-6m6-4-2 4 5 5 6 6v-3q3-1-4-7zm138 0c-9-9-9-9-8-6l3 6 7 9q9 8 7 3c0-3 0-3-9-12M37 58l1-4-1 2zm-4-12-5-4-1 2c-1 4 9 13 10 9q2-1-4-7m126 3 1 3 1-1zM16 51q-2 0 0 0l1-1zm8-1h-3 1zm152-2q-2 1-1 3zM35 41c-2-2-6-6-6-1l5 5 5 5v-3q3-1-4-6m7 3-2 1 1 2zm-16 1v2zm162-5c-2 1-1-2-2 0l-3 4 1 2q0-4 4-6m-8 0-2-3q-3 4 0 6t5-1zM30 28c-1-1-13-16-15-10l1 3v-1l1 2c5 4 15 10 14 13 0 2 11 14 11 5zm145 13 1 1zm8-6q-3-4-4-1l-1 2 6 6q3-4-1-7M45 39h-2v2zm107-4 3 5 1-1zm39 0-2-1-1 5 4-3zM20 11l-2 4 12 12c13 12 13 12 14 10 1-1 1-1-11-13zm173 24v2l1-1zM47 34l-2 1 1 2zm-18-1v4l2-1zm151-8-4 1-1 1-1-1-4 2 3 4 5 4q2-2-1-8h4q1-2-1-3m11 7c-1 3 5 4 1 0m-1 0h-1v1zM24 8l-2 1c-3 4 24 26 25 24l1-2-11-12zm26 22v1zm142-3h-2v4h2zM60 12q-4-5-6-3-3 3 0 5l-3-3q-4 2-1 6l-3-2q-1 2-4 2l3 3c-6-5-15-9-17-10-1-1 19 22 21 19l1-1 1-2h1q4-1 0-6l4 2 3-2-4-4q6 4 8 1zm-4 13 1-2h-1zm6-5h-1l-2 2zm2-2-2 2zm39 0h-5zm29-3h-2l5 3zm-65 1-2 1v1zm88 0 1-3-2 1zM58 3c-5 0 11 20 11 11zM38 13l4 3h2l2-1q-5 0-8-2m40-2-3 1zm41-1h-1l3 1zM80 9l-1 2 4-1zm-60 2V9zm138-4-1 1v2zM87 8l-1 1 3-1zM29 8l-4-1 2 2zm80-1-1 1h3zm-8 0-1 1h-5l-2-1-1 1h8zM56 7l-2 1zm104-4v1z" clip-rule="evenodd"/>
    <path d="M24 288v1z"/>
    <path fill-rule="evenodd" d="M84 281q7-7 16-8c2 0 0 12 1 12 3 0-5 2-6 3-2 2-6-2-8-3l-4-2zm15-7q-6 1-9 4c-1 0-6 4-5 5s8 6 10 4l4-2 1-6zm4-1h1q10 2 15 8l2 2c-1 1-11 7-12 6-1-2-7-4-6-4 2-1-2-10 0-12m2 1c-3 0-2 10 0 11l4 2c2 2 6-2 8-3l2-1-2-2q-4-6-12-7m677-25q10 0 14 10 1 9-7 14-8 4-15-2-6-6-4-13 4-7 12-9m1 2-5 1q-6 3-6 9a11 11 0 0 0 12 12q10-2 10-12-1-10-11-10" clip-rule="evenodd"/>
    <path d="M7 259q2-2 5-1v5c2 5 6-2 8-2 6 0-2 10 3 10h2-3q-2-2-1-5l1-2c0-4-8 3-10 0l-1-5c-3-2-3 2-4 4s-6 1-6-2l1 1q2 2 4 1zm18 12q3-2 3 1zm-16-2 8 2zm68-59 2 1 11 7q0 5-3 9c-1 1-11-2-13-2-1-1-4 4-4 5l-2 2c0 3 7 8 6 11l-7 6c-4 0-7-8-10-8-12 0-5 12-9 16q-3 2-8 2-2 2-4-7-3-7-11-6c-2 0-5 9-7 11l-9-4 1-6 1-6c1-1-4-4-5-4l-2-2-3 2 2-2q3 0 7 4l2 1-2 13q5 3 9 1c1-1 4-10 6-9l10 1 4 12 8-1 1-7q-1-9 9-10c2 0 9 9 10 8l6-5c1-1-6-10-6-11l6-8 13 2 3-7c0-2-9-5-10-6zm55 37 1 2z"/>
    <path fill-rule="evenodd" d="M769 214q10 1 13 9 1 13-11 16-7 1-12-4-3-3-3-8 1-12 13-13m0 2q-4 0-7 3-6 5-3 13 6 8 16 4 8-5 4-14-3-6-10-6m-746-2 1 1 8 3 4 1 2 19h-2a37 37 0 0 1-29-11l5-5zm0 1-2 2-13 9c0 2 7 6 8 7a37 37 0 0 0 21 4v-3c-1-2-1-15-4-15q-5 0-9-3z" clip-rule="evenodd"/>
    <path d="m49 210 3 1 6 3zl-9 7c-3 1 0 9 0 11l2 7h1l13-7c-7 6-15 11-15 8-1-3-2-18-4-18s3-3 3-3c2-1 6-6 8-6m78 26"/>
    <path fill-rule="evenodd" d="m600 120 8 31 1-2-1-6c-1-2 5-6 6-3l5 4c5 4 10-3 10-8-1-3 6-3 6 0q2 5 6 8h-2c-5 0-2-10-6-9-7 0-1 8-7 9l-3 1q-6 1-9-4c-1-2-6 0-5 2 2 5-1 8 0 12l14 26q2 3 3-2 4-8 13-5l6 6q1 8-6 12c-2 1-8 0-5 3 0 1 3 5 5 4 5-3 11 4 9 9-1 2 9 8 11 9h1c-1-11 13-3 15-5l2-3c-6-2-5-9-3-13q3-3 9-2c2 0 2-5 0-6l-5-2c-5-4-1-12 5-13q1-2-1-5l-8-1c-6-1-5-9-1-13 5-5-9-3-11-1l-7-6v-4c3 6 7 12 14 6q4-2 5 4l-1 1-3 6c-2 7 8 7 12 7 1-1 3 4 2 5l-1 1-5 3q-3 5 0 9l7 3c1 1 0 6-1 6h-2c-16-2-3 13-4 16-3 7-6 2-11 2q-4 0-6 3c-3 2 1 5 2 5q10 8 25 14-14-5-26-13h-1l-3-3-11-8c0-1-9-10-10-9q-18-20-28-45 0-2-2-2l-1-6q-4-13-6-28m41 79-2 1s8 10 9 7q0-6-7-8m-6-25c-5 0-11 5-10 10l6 8q4 1 8-1 8-4 4-12-2-5-8-5" clip-rule="evenodd"/>
    <path d="M67 219q-1 3-10 10zm733-15q-6 3-6 10 0 6 6 9v2a12 12 0 0 1 0-23zM1 192c2 0 18 5 17 8l2 10c2 3-7 7-9 9l-6 4q-3-2-4-5c0-2 3 3 3 4 1 1 8-6 9-7l6-4v-2l-2-10c-5-3-22-7-16-7"/>
    <path fill-rule="evenodd" d="m34 190 6 2q8 5 6 14-3 8-11 9-9 0-13-8a12 12 0 0 1 12-17m0 1c-7 0-13 8-11 15q3 7 9 7 6 1 10-2 4-5 3-12-2-7-11-8m30-10 1 2q9 14 4 30l-14-5-5-2v-2l-1-8-1-2 3-3zm0 2-4 2-10 11 1 8c0 3 17 9 18 8 4-8 0-21-4-28zm-38-16c2 0 2 20 4 19 2 0-2 2-2 2l-9 7c-3-1-18-4-18-8l1-3c5-7 15-16 24-17m0 3c-1-4-15 5-17 7l-7 10 3 2 14 5 2-2 8-6zm8-3q15 0 26 9l1 2-2 2c-2 2-12 13-15 10-3-2-15-4-11-4 1 0-4-17-3-19zm0 1h-3c1 3 1 18 4 18q6 0 9 3 1 2 6-3l10-8-2-1q-10-9-24-9m624 2q4 0 7 4 1 7-4 10-6 1-10-4-2-4 1-8zm0 1q-8 1-6 8 3 5 8 4 3-2 4-6-1-7-6-6" clip-rule="evenodd"/>
    <path d="m113 155 1 1c4 4 7-2 10 0 5 2-1 7 6 9q2 0 0 3v-2l-3-1q-3-4-2-8l-2-1-3 2q-4 1-7-2h-1c-3 2 0 6-4 9l-3 1v3q4 1 6 4l-1 4 3 1q3-3 8-2l2 3 2-2-1-3q2-4 5-5-3 4-3 7v2l-4 2-2-3q-3-1-6 1l-1 2-4-3 1-4q-2-3-5-3c-5-2 4-8 5-9l-1-4z"/>
    <path fill-rule="evenodd" d="M116 161q8-2 9 6-1 7-8 7-6-1-7-7 1-5 6-6m2 0q-4 0-6 5c-2 4 3 8 7 7q5-1 5-6-1-4-6-6" clip-rule="evenodd"/>
    <path d="M157 168v2zm-27 0h-1z"/>
    <path fill-rule="evenodd" d="M621 159q2-5 7-5 7 1 7 6 1 5-4 7-5 3-8-1t-2-7m7-5q-7 1-7 8c1 5 9 7 12 3q2-3 1-6-1-5-6-5" clip-rule="evenodd"/>
    <path d="m189 164 1 2zm-4-26q0 5 2 6l5-2 1 4c0 1-5 2-4 3v2c0 1 9 4 5 7h-3c-5 0-3 3-2 6l-2-3q0-3 4-3l2-1c3-2-2-3-3-4l-2-4 5-3c0-5-6 0-7-2l-2-3zm547 24h4q-2 2-4 0m8-8-2 6-1 2h-1 1zm-42-40v2l-11 6 3 8 12-3c2 0 4 5 5 6 4 5-6 9-4 14 0 1 5 5 6 4 3-2 8-9 12-7l6 3 1 2c0 2 2 10 4 13l-4-1c-3-3 3-12-3-14q-4-3-8-1l-8 7-8-6c1-3 8-10 6-12l-4-6c-2-3-12 4-14 1l-3-8 4-3 6-4zm85 7q3-4 11-1h-3c-7 0-6 1-9 6s7 8 7 12c0 2-4 7-6 7l-5-2-6-3c-2-2-5 3-8 4-1 1 3 11 3 13l-9 3c-2 1-6-9-7-10h-8q3-5 8-2c3 3 5 12 9 11 1-1 6-1 5-3l-2-12c5-8 11-5 17-2l3 2 5-6-8-9q0-4 3-8m-40 29-3 4 2-3zm-594-1h2zm6-1h-3l2-1zm-1-3 1 3zm496-7h2zq-2 4-6 6h-3l3-1zm2 0 4 1v2l-1 2zm-584 2"/>
    <path fill-rule="evenodd" d="m753 118 5 3 9 8c7 5-21 13-25 13h-4l1-10 1-9v-1h2q5 0 9-4zm1 1c-2-1-9 4-11 4-3 0-4 15-4 17-1 2 6 1 7 1q12-1 20-10c3-2-10-10-12-12m-27-6 1 2q3 4 8 6l2 1h-1l-2 15-1 4-3-1a37 37 0 0 1-23-19l5-3zm-1 2-3 1-14 5 4 6a37 37 0 0 0 20 13l3-18-1-1c-2-1-7-6-9-6" clip-rule="evenodd"/>
    <path d="m185 136-1 2zm-14-1q-1 2-4 2l-1-2 4 1zm-10-2 3-1 2 3-5-1zm10 0v2zm-19-6 2 2 2 4q-6-1-4-6"/>
    <path fill-rule="evenodd" d="m776 95 1 2a35 35 0 0 1-6 30l-16-12 1-2c1-2 3-10 1-11v-2l1 2 15-6zm0 1-4 2c-5 1-14 2-14 8v5l-1 4 14 11c1 1 6-12 6-13a34 34 0 0 0-1-17" clip-rule="evenodd"/>
    <path d="M44 124h-1zm556-4c-2-10-3-19-1-17zm197-1-3 1z"/>
    <path fill-rule="evenodd" d="M739 94q10 0 14 8 2 6-1 11c-3 5-11 7-16 4q-6-3-7-11 1-9 10-12m3 1q-8 0-12 8-1 7 4 11c5 5 14 4 18-3v-9q-3-6-10-7" clip-rule="evenodd"/>
    <path d="M776 77c0 2 4 7 5 7l12-2c2 0 4 7 4 9s-10 4-11 6v6l1 3c1 2 7 2 8 3l4 2q3 5-2 7 2-4 1-7c-3-3-12-1-12-6l-1-8 9-5 2-2-3-7c-3-1-9 3-13 2q-6-3-4-8"/>
    <path fill-rule="evenodd" d="m712 85 3 2c2 2 14 9 12 12q-2 5-1 9v3l-1-1-18 7-1-2q-4-14 4-27zm1 2c-3-2-6 11-7 14l1 15c4 0 18-4 18-9l1-8q3 0-5-6z" clip-rule="evenodd"/>
    <path d="M698 111v3zm48-61c1-1 9 1 9 1 3 3-2 13 2 14l7 3c2 1 7-8 10-8 2 0 8 4 8 6l-3 4-2 5c1-5 5-9 3-9q-2-4-6-5c-3 0-6 7-10 8l-7-3q-3 0-2-7 1-8-8-8c-3 0-2 12-8 12l-7 1-7-11-7 3c-3 0 3 11 2 13l-6 4-2 1c-4 0-8-6-12-6l-5 6c-1 2 8 8 8 10l-1 2-3 7h-7q-7-1-7 4v4l12 5q2 0 1 5c-2-4-14-8-14-9-1-1 0-9 1-9 3-3 12 2 15-3l1-4c3-5-7-7-7-12l6-7c3 0 10 7 12 6l7-5c0-2-4-11-2-13l8-3c2 0 6 9 8 11l9-1q1-7 4-12"/>
    <path fill-rule="evenodd" d="M750 71c10 0 20 11 24 18l1 3-6 2-13 5-5-5-6-4h1v-2c1-2 2-17 4-17m1 1c-1 0-6 18-3 19q5 2 7 6c1 1 1 1 8-2l9-3c8-3-16-19-21-20m-10-2 5 1-3 18v1c0 4-8 1-11 4l-2 1-5-4-9-7c-7-5 21-14 25-14m0 1q-13 0-24 9c-2 2-2 2 6 8 7 6 7 6 9 5q3-3 8-3 2 2 3-6l2-12zm-67-27 5 2c1 1 9 4 9 6l-1 2a29 29 0 0 1-21 10c-3-1 2-13-1-14zm1 1q-4 1-6 4c-4 1-2 14-2 14l9-2c1-1 12-7 10-9l-3-2z" clip-rule="evenodd"/>
    <path fill-rule="evenodd" d="m654 44 2 1q2 3 5 3c6 2 2 16 0 16s-24-9-20-13zm1 2c-3-2-10 5-13 6-1 0 15 11 19 11 2 0 3-13 0-14z" clip-rule="evenodd"/>
    <path d="M184 58v6z"/>
    <path fill-rule="evenodd" d="m689 24 1 1q6 12 1 23l-2 1-13-6h-1c-3-1 2-6 1-10l-1-3 2 1c4 0 8-7 12-7m0 2-4 2-8 4v9l8 5 4 2c3 0 4-22 0-22m-50-2 2 1 10 6q4-2 2 1-2 5 1 10v1l-2-1-12 7c-4 2-6-25-1-25m2 2c-5-3-5 22-1 22 2 0 12-6 12-7v-8c0-2-9-6-11-7" clip-rule="evenodd"/>
    <path fill-rule="evenodd" d="M662 28q10-2 12 7 1 7-5 10-4 2-8 1-5-3-6-8-1-8 7-10m3 1q-7 0-9 7 0 6 5 8t9-1 2-10q-3-4-7-4" clip-rule="evenodd"/>
    <path d="M788 32q-1 4 2 5l3-4c2-2 5 3 7 5v1l-2-2c-2-6-5-1-7 1l-4-1zm-4-30c-3-5 5 6-1 6l-5-1-1 2q3 1 4 4v2q-1 2-6 3c-3 3 6 3 6 4 2 4-4 6 0 9l4-2q4 0 3 3v-1q-2-2-5 0c-8 3-1-7-2-8-1-3-4 0-6-2-4-4 5-4 5-6q0-4-4-5l1-4c1-1 5 2 6 1q2-2 1-5M132 2c-5-3 6-2 4-1l20 21 9 9-10-8C135 3 135 3 132 2"/>
    <path d="M798 2h2v1a14 14 0 0 0-16 10q-2 12 8 16 3 2 8 1v1a15 15 0 0 1-15-7 14 14 0 0 1 13-22"/>
    <path fill-rule="evenodd" d="M666 9c6-3 19 8 22 12v1l-6 4-7 4-4-3c-1-1-7-2-6-3l1-3-3 4-7 3c-3 3-7-1-10-3l-5-3 1-3q8-9 21-10l2 2zm3 2h-2l-1 2v7l2 4 7 4q7-2 12-6c1-1-7-7-7-7q-6-4-11-4m-7-1-6 2c-2 0-16 8-14 10 2 1 11 7 13 5l6-3 1-7z" clip-rule="evenodd"/>
    <path d="m187 18-1 2zM175 1q2-2 3 0l-7 2v3l4 1q3 5 2 9l3 2 3-3q5-2 8 3l3-2-1-4q1-5 7-5V3l-7-2q2 7-4 11-5 1-9-2-3-3-2-8c2 4 3 13 10 9q6-4 4-9-2-2 1-2l8 3q-1 2 1 1l-3 4q-3 0-4 3v6q-3 3-5 1h-3l1-2q-3-1-7 1l-1 2-5-3 1-4q0-4-4-4c-3-1-3-6 0-6zm506-1c2 0-3 6-4 6l-5-1-3-1V0c2 0 0 4 2 4l5 1c2 1 3-5 5-5m108 1"/>
  </g>
</svg>
