<svg width="32" height="42" viewBox="0 0 32 42" fill="none" xmlns="http://www.w3.org/2000/svg">
<ellipse cx="14.6964" cy="21.0196" rx="14.6456" ry="14.3145" fill="#E4982D" style="fill:#E4982D;fill:color(display-p3 0.8942 0.5951 0.1763);fill-opacity:1;"/>
<ellipse cx="14.6961" cy="21.0637" rx="11.8592" ry="11.5911" fill="#0D1723" style="fill:#0D1723;fill:color(display-p3 0.0510 0.0902 0.1373);fill-opacity:1;"/>
<path d="M8.53709 1.46102L8.05078 7.47592C9.32363 7.47592 9.0579 6.81913 11.8705 6.36968C14.6831 5.92022 16.1235 6.30918 17.326 6.36968C18.288 6.41807 20.403 7.21372 21.3403 7.60549C21.2371 5.89436 20.9884 2.27333 20.8186 1.47826C20.6488 0.683191 19.9521 0.524793 19.6249 0.544978C16.5391 0.542097 10.3515 0.538064 10.2878 0.544978C10.2082 0.55362 9.88991 0.493155 9.30634 0.631428C8.83949 0.742047 8.59899 1.23058 8.53709 1.46102Z" fill="#E4982D" stroke="black" style="fill:#E4982D;fill:color(display-p3 0.8942 0.5951 0.1763);fill-opacity:1;stroke:black;stroke-opacity:1;" stroke-width="0.0630206"/>
<path d="M20.9209 40.664L21.4072 34.6491C20.1344 34.6491 20.4001 35.3059 17.5875 35.7553C14.7749 36.2048 13.3345 35.8158 12.132 35.7553C11.17 35.7069 9.05497 34.9113 8.11772 34.5195C8.22087 36.2306 8.46963 39.8517 8.63939 40.6467C8.80916 41.4418 9.50591 41.6002 9.83306 41.58C12.9189 41.5829 19.1065 41.5869 19.1702 41.58C19.2498 41.5714 19.5681 41.6318 20.1517 41.4936C20.6185 41.383 20.859 40.8944 20.9209 40.664Z" fill="#E4982D" stroke="black" style="fill:#E4982D;fill:color(display-p3 0.8942 0.5951 0.1763);fill-opacity:1;stroke:black;stroke-opacity:1;" stroke-width="0.0630206"/>
<path d="M14.6963 11.1621C20.3047 11.1621 24.8505 15.5764 24.8506 21.0195C24.8506 26.4627 20.3048 30.877 14.6963 30.877C9.08799 30.8767 4.54297 26.4626 4.54297 21.0195C4.54306 15.5766 9.08805 11.1623 14.6963 11.1621Z" fill="#F2E8CB" stroke="black" style="fill:#F2E8CB;fill:color(display-p3 0.9490 0.9098 0.7961);fill-opacity:1;stroke:black;stroke-opacity:1;" stroke-width="0.0630206"/>
<path d="M14.7393 12.1484C15.0315 12.1487 15.2686 12.3864 15.2686 12.6787V13.7646C15.2685 14.0569 15.0315 14.2937 14.7393 14.2939C14.4468 14.2939 14.209 14.0571 14.209 13.7646V12.6787C14.209 12.3862 14.4468 12.1484 14.7393 12.1484Z" fill="#0E1924" stroke="black" style="fill:#0E1924;fill:color(display-p3 0.0549 0.0980 0.1412);fill-opacity:1;stroke:black;stroke-opacity:1;" stroke-width="0.0630206"/>
<path d="M14.6963 27.8301C14.9886 27.8303 15.2256 28.068 15.2256 28.3604V29.4463C15.2255 29.7386 14.9885 29.9754 14.6963 29.9756C14.4038 29.9756 14.1661 29.7387 14.166 29.4463V28.3604C14.166 28.0679 14.4038 27.8301 14.6963 27.8301Z" fill="#0E1924" stroke="black" style="fill:#0E1924;fill:color(display-p3 0.0549 0.0980 0.1412);fill-opacity:1;stroke:black;stroke-opacity:1;" stroke-width="0.0630206"/>
<path d="M24.2158 21.0195C24.2156 21.3048 23.9836 21.5361 23.6982 21.5361L22.4521 21.5361C22.167 21.5359 21.9358 21.3047 21.9355 21.0195C21.9355 20.7342 22.1669 20.5022 22.4521 20.502L23.6982 20.502C23.9837 20.502 24.2158 20.7341 24.2158 21.0195Z" fill="#0E1924" stroke="black" style="fill:#0E1924;fill:color(display-p3 0.0549 0.0980 0.1412);fill-opacity:1;stroke:black;stroke-opacity:1;" stroke-width="0.0630206"/>
<path d="M7.58105 21.0195C7.58082 21.3048 7.34881 21.5361 7.06348 21.5361L5.81738 21.5361C5.53224 21.5359 5.30101 21.3047 5.30078 21.0195C5.30078 20.7342 5.5321 20.5022 5.81738 20.502L7.06348 20.502C7.34895 20.502 7.58105 20.7341 7.58105 21.0195Z" fill="#0E1924" stroke="black" style="fill:#0E1924;fill:color(display-p3 0.0549 0.0980 0.1412);fill-opacity:1;stroke:black;stroke-opacity:1;" stroke-width="0.0630206"/>
<path d="M20.625 14.6943C20.8606 14.5802 21.1062 14.5775 21.2627 14.6787C21.3406 14.7291 21.3982 14.8065 21.4229 14.9121C21.4472 15.0171 21.4382 15.1517 21.3828 15.3184L16.1191 20.4795L16.1045 20.4941L16.1123 20.5137C16.1815 20.6837 16.2197 20.8693 16.2197 21.0635C16.2197 21.8844 15.538 22.5508 14.6963 22.5508C13.8547 22.5506 13.1739 21.8843 13.1738 21.0635C13.1738 20.9062 13.1989 20.7545 13.2451 20.6123L13.252 20.5908L13.2334 20.5771L8.91211 17.376C8.77901 17.0622 8.76918 16.8216 8.87598 16.6768C8.98218 16.5328 9.21634 16.4674 9.61621 16.5361L13.9463 19.748L13.9619 19.7598L13.9795 19.75C14.193 19.6386 14.4372 19.5762 14.6963 19.5762C14.9324 19.5762 15.1561 19.6281 15.3555 19.7217L15.375 19.7314L15.3906 19.7158L20.625 14.6943Z" fill="#0E1924" stroke="black" style="fill:#0E1924;fill:color(display-p3 0.0549 0.0980 0.1412);fill-opacity:1;stroke:black;stroke-opacity:1;" stroke-width="0.0630206"/>
<path d="M14.6963 20.6621C14.9245 20.6621 15.1084 20.8431 15.1084 21.0645C15.1084 21.2858 14.9245 21.4668 14.6963 21.4668C14.4681 21.4667 14.2842 21.2857 14.2842 21.0645C14.2842 20.8432 14.4681 20.6622 14.6963 20.6621Z" fill="#E4982D" stroke="black" style="fill:#E4982D;fill:color(display-p3 0.8942 0.5951 0.1763);fill-opacity:1;stroke:black;stroke-opacity:1;" stroke-width="0.0630206"/>
<path d="M30.2246 18.6699L31.7119 19.1162C31.8319 19.1522 31.9141 19.2625 31.9141 19.3877V22.6973C31.914 22.8246 31.8297 22.9366 31.707 22.9707L30.2188 23.3838C30.0382 23.4337 29.8594 23.2978 29.8594 23.1104V18.9414C29.8594 18.7514 30.0426 18.6153 30.2246 18.6699Z" fill="#E4982D" stroke="black" style="fill:#E4982D;fill:color(display-p3 0.8942 0.5951 0.1763);fill-opacity:1;stroke:black;stroke-opacity:1;" stroke-width="0.0630206"/>
</svg>
